Antonio-Light.ufo
<glyph name="exclam" format="2">
  <advance width="515.9464285714286"/>
  <unicode hex="0021"/>
  <outline>
    <contour>
      <point x="221.10714285714286" y="382.94642857142856" type="line"/>
      <point x="294.39285714285717" y="382.94642857142856" type="line"/>
      <point x="364.92857142857144" y="1760.0" type="line"/>
      <point x="150.91071428571428" y="1760.0" type="line"/>
    </contour>
    <contour>
      <point x="153.23214285714286" y="0.0" type="line"/>
      <point x="359.1607142857143" y="0.0" type="line"/>
      <point x="359.1607142857143" y="216.39285714285714" type="line"/>
      <point x="153.23214285714286" y="216.39285714285714" type="line"/>
    </contour>
  </outline>
</glyph>
<glyph name="quotedbl" format="2">
  <advance width="756.0535714285714"/>
  <unicode hex="0022"/>
  <outline>
    <contour>
      <point x="487.55357142857144" y="1087.9107142857142" type="line"/>
      <point x="554.875" y="1087.9107142857142" type="line"/>
      <point x="662.2678571428571" y="1760.0" type="line"/>
      <point x="487.55357142857144" y="1760.0" type="line"/>
    </contour>
    <contour>
      <point x="176.625" y="1087.9107142857142" type="line"/>
      <point x="243.94642857142858" y="1087.9107142857142" type="line"/>
      <point x="350.89285714285717" y="1760.0" type="line"/>
      <point x="176.625" y="1760.0" type="line"/>
    </contour>
  </outline>
</glyph>
<glyph name="numbersign" format="2">
  <advance width="842.8392857142857"/>
  <unicode hex="0023"/>
  <outline>
    <contour>
      <point x="69.05357142857142" y="0.0" type="line"/>
      <point x="195.0" y="0.0" type="line"/>
      <point x="300.5357142857143" y="645.6428571428571" type="line"/>
      <point x="489.9642857142857" y="645.6428571428571" type="line"/>
      <point x="384.875" y="0.0" type="line"/>
      <point x="506.80357142857144" y="0.0" type="line"/>
      <point x="614.3392857142857" y="645.6428571428571" type="line"/>
      <point x="814.0535714285714" y="645.6428571428571" type="line"/>
      <point x="814.0535714285714" y="739.3214285714286" type="line"/>
      <point x="628.9107142857143" y="739.3214285714286" type="line"/>
      <point x="681.25" y="1062.0357142857142" type="line"/>
      <point x="853.1785714285714" y="1062.0357142857142" type="line"/>
      <point x="853.1785714285714" y="1155.7142857142858" type="line"/>
      <point x="697.375" y="1155.7142857142858" type="line"/>
      <point x="797.6785714285714" y="1760.0" type="line"/>
      <point x="675.3035714285714" y="1760.0" type="line"/>
      <point x="572.4464285714286" y="1155.7142857142858" type="line"/>
      <point x="383.57142857142856" y="1155.7142857142858" type="line"/>
      <point x="485.875" y="1760.0" type="line"/>
      <point x="359.48214285714283" y="1760.0" type="line"/>
      <point x="258.625" y="1155.7142857142858" type="line"/>
      <point x="54.80357142857143" y="1155.7142857142858" type="line"/>
      <point x="54.80357142857143" y="1062.0357142857142" type="line"/>
      <point x="242.94642857142858" y="1062.0357142857142" type="line"/>
      <point x="190.60714285714286" y="739.3214285714286" type="line"/>
      <point x="15.678571428571427" y="739.3214285714286" type="line"/>
      <point x="15.678571428571427" y="645.6428571428571" type="line"/>
      <point x="175.58928571428572" y="645.6428571428571" type="line"/>
    </contour>
    <contour>
      <point x="314.10714285714283" y="737.875" type="line"/>
      <point x="367.0" y="1057.142857142857" type="line"/>
      <point x="558.3214285714286" y="1057.142857142857" type="line"/>
      <point x="506.98214285714283" y="737.875" type="line"/>
    </contour>
  </outline>
</glyph>
<glyph name="dollar" format="2">
  <advance width="815.6071428571429"/>
  <unicode hex="0024"/>
  <anchor x="410.0357142857143" y="26.964285714285715" name="bottom"/>
  <anchor x="410.0357142857143" y="1526.9642857142858" name="top"/>
  <outline>
    <contour>
      <point x="378.2857142857143" y="-234.83928571428572" type="line"/>
      <point x="486.94642857142856" y="-234.83928571428572" type="line"/>
      <point x="486.94642857142856" y="48.73214285714286" type="line"/>
      <point x="378.2857142857143" y="48.73214285714286" type="line"/>
    </contour>
    <contour>
      <point x="351.23214285714283" y="1487.232142857143" type="line"/>
      <point x="459.89285714285717" y="1487.232142857143" type="line"/>
      <point x="459.89285714285717" y="1770.267857142857" type="line"/>
      <point x="351.23214285714283" y="1770.267857142857" type="line"/>
    </contour>
    <component base="s" xOffset="21.42857142857143" yOffset="26.964285714285715"/>
  </outline>
</glyph>
<glyph name="percent" format="2">
  <advance width="2133.3571428571427"/>
  <unicode hex="0025"/>
  <outline>
    <contour>
      <point x="631.9107142857143" y="0.0" type="line"/>
      <point x="797.0714285714286" y="0.0" type="line"/>
      <point x="1506.892857142857" y="1760.0" type="line"/>
      <point x="1349.732142857143" y="1760.0" type="line"/>
    </contour>
    <contour>
      <point x="455.01785714285717" y="581.0" type="curve" smooth="yes"/>
      <point x="682.8928571428571" y="581.0"/>
      <point x="749.9464285714286" y="683.0714285714286"/>
      <point x="749.9464285714286" y="1010.3392857142857" type="curve" smooth="yes"/>
      <point x="749.9464285714286" y="1364.0" type="line" smooth="yes"/>
      <point x="749.9464285714286" y="1682.142857142857"/>
      <point x="684.1071428571429" y="1782.4464285714287"/>
      <point x="455.01785714285717" y="1782.4464285714287" type="curve" smooth="yes"/>
      <point x="226.92857142857142" y="1782.4464285714287"/>
      <point x="161.08928571428572" y="1682.142857142857"/>
      <point x="161.08928571428572" y="1364.0" type="curve" smooth="yes"/>
      <point x="161.08928571428572" y="1010.3392857142857" type="line" smooth="yes"/>
      <point x="161.08928571428572" y="683.0714285714286"/>
      <point x="228.14285714285714" y="581.0"/>
    </contour>
    <contour>
      <point x="455.01785714285717" y="731.2857142857143" type="curve" smooth="yes"/>
      <point x="354.0" y="731.2857142857143"/>
      <point x="324.6607142857143" y="779.9464285714286"/>
      <point x="324.6607142857143" y="936.5535714285714" type="curve" smooth="yes"/>
      <point x="324.6607142857143" y="1434.3392857142858" type="line" smooth="yes"/>
      <point x="324.6607142857143" y="1586.0535714285713"/>
      <point x="353.89285714285717" y="1632.1607142857142"/>
      <point x="455.01785714285717" y="1632.1607142857142" type="curve" smooth="yes"/>
      <point x="556.5892857142857" y="1632.1607142857142"/>
      <point x="585.375" y="1586.607142857143"/>
      <point x="585.375" y="1434.3392857142858" type="curve" smooth="yes"/>
      <point x="585.375" y="936.5535714285714" type="line" smooth="yes"/>
      <point x="585.375" y="779.9464285714286"/>
      <point x="556.4821428571429" y="731.2857142857143"/>
    </contour>
    <contour>
      <point x="1671.6964285714287" y="-20.0" type="curve" smooth="yes"/>
      <point x="1898.5714285714287" y="-20.0"/>
      <point x="1965.625" y="82.07142857142857"/>
      <point x="1965.625" y="409.3392857142857" type="curve" smooth="yes"/>
      <point x="1965.625" y="763.0" type="line" smooth="yes"/>
      <point x="1965.625" y="1081.142857142857"/>
      <point x="1899.7857142857142" y="1181.0"/>
      <point x="1671.6964285714287" y="1181.0" type="curve" smooth="yes"/>
      <point x="1442.607142857143" y="1181.0"/>
      <point x="1376.767857142857" y="1081.142857142857"/>
      <point x="1376.767857142857" y="763.0" type="curve" smooth="yes"/>
      <point x="1376.767857142857" y="409.3392857142857" type="line" smooth="yes"/>
      <point x="1376.767857142857" y="82.07142857142857"/>
      <point x="1443.8214285714287" y="-20.0"/>
    </contour>
    <contour>
      <point x="1671.6964285714287" y="130.28571428571428" type="curve" smooth="yes"/>
      <point x="1570.6785714285713" y="130.28571428571428"/>
      <point x="1541.3392857142858" y="178.94642857142858"/>
      <point x="1541.3392857142858" y="335.55357142857144" type="curve" smooth="yes"/>
      <point x="1541.3392857142858" y="833.3392857142857" type="line" smooth="yes"/>
      <point x="1541.3392857142858" y="985.0535714285714"/>
      <point x="1570.125" y="1031.1607142857142"/>
      <point x="1671.6964285714287" y="1031.1607142857142" type="curve" smooth="yes"/>
      <point x="1772.8214285714287" y="1031.1607142857142"/>
      <point x="1802.0535714285713" y="985.6071428571429"/>
      <point x="1802.0535714285713" y="833.3392857142857" type="curve" smooth="yes"/>
      <point x="1802.0535714285713" y="335.55357142857144" type="line" smooth="yes"/>
      <point x="1802.0535714285713" y="178.94642857142858"/>
      <point x="1772.1607142857142" y="130.28571428571428"/>
    </contour>
  </outline>
</glyph>
<glyph name="ampersand" format="2">
  <advance width="900.8571428571429"/>
  <unicode hex="0026"/>
  <outline>
    <contour>
      <point x="357.375" y="-20.0" type="curve" smooth="yes"/>
      <point x="512.5178571428571" y="-20.0"/>
      <point x="584.2857142857143" y="80.66071428571429"/>
      <point x="636.3392857142857" y="207.05357142857144" type="curve"/>
      <point x="727.1607142857143" y="0.0" type="line"/>
      <point x="884.6071428571429" y="0.0" type="line"/>
      <point x="730.7142857142857" y="345.85714285714283" type="line"/>
      <point x="773.25" y="453.07142857142856"/>
      <point x="821.1071428571429" y="566.1785714285714"/>
      <point x="897.3214285714286" y="668.4107142857143" type="curve"/>
      <point x="821.9285714285714" y="797.0" type="line"/>
      <point x="751.2678571428571" y="704.0"/>
      <point x="701.625" y="607.4464285714286"/>
      <point x="659.3035714285714" y="516.5535714285714" type="curve"/>
      <point x="495.05357142857144" y="910.0535714285714" type="line"/>
      <point x="607.8214285714286" y="1065.0535714285713"/>
      <point x="717.3571428571429" y="1234.767857142857"/>
      <point x="717.3571428571429" y="1432.3392857142858" type="curve" smooth="yes"/>
      <point x="717.3571428571429" y="1652.892857142857"/>
      <point x="658.875" y="1782.4464285714287"/>
      <point x="455.55357142857144" y="1782.4464285714287" type="curve" smooth="yes"/>
      <point x="282.35714285714283" y="1782.4464285714287"/>
      <point x="178.17857142857142" y="1665.017857142857"/>
      <point x="178.17857142857142" y="1438.017857142857" type="curve" smooth="yes"/>
      <point x="178.17857142857142" y="1343.9107142857142"/>
      <point x="240.17857142857142" y="1159.267857142857"/>
      <point x="323.17857142857144" y="946.8214285714286" type="curve"/>
      <point x="189.96428571428572" y="771.4464285714286"/>
      <point x="70.33928571428571" y="602.5892857142857"/>
      <point x="70.33928571428571" y="335.2142857142857" type="curve" smooth="yes"/>
      <point x="70.33928571428571" y="86.51785714285714"/>
      <point x="196.85714285714286" y="-20.0"/>
    </contour>
    <contour>
      <point x="380.01785714285717" y="134.33928571428572" type="curve" smooth="yes"/>
      <point x="269.9107142857143" y="134.33928571428572"/>
      <point x="229.33928571428572" y="226.14285714285714"/>
      <point x="233.21428571428572" y="362.23214285714283" type="curve"/>
      <point x="237.64285714285714" y="508.5"/>
      <point x="299.6607142857143" y="673.4285714285714"/>
      <point x="388.80357142857144" y="795.0" type="curve"/>
      <point x="566.9464285714286" y="363.82142857142856" type="line"/>
      <point x="509.05357142857144" y="227.75"/>
      <point x="470.39285714285717" y="134.33928571428572"/>
    </contour>
    <contour>
      <point x="434.98214285714283" y="1065.3035714285713" type="curve"/>
      <point x="379.75" y="1222.5535714285713"/>
      <point x="338.17857142857144" y="1365.5535714285713"/>
      <point x="338.17857142857144" y="1437.8035714285713" type="curve" smooth="yes"/>
      <point x="338.17857142857144" y="1511.8035714285713"/>
      <point x="333.5" y="1639.875"/>
      <point x="460.42857142857144" y="1639.875" type="curve" smooth="yes"/>
      <point x="555.4464285714286" y="1639.875"/>
      <point x="572.2142857142857" y="1576.8392857142858"/>
      <point x="572.2142857142857" y="1444.9285714285713" type="curve" smooth="yes"/>
      <point x="572.2142857142857" y="1299.3035714285713"/>
      <point x="512.9821428571429" y="1174.0892857142858"/>
    </contour>
  </outline>
</glyph>
<glyph name="quotesingle" format="2">
  <advance width="408.98214285714283"/>
  <unicode hex="0027"/>
  <outline>
    <contour>
      <point x="177.35714285714286" y="1125.0" type="line"/>
      <point x="231.94642857142858" y="1125.0" type="line"/>
      <point x="296.94642857142856" y="1760.0" type="line"/>
      <point x="117.35714285714286" y="1760.0" type="line"/>
    </contour>
  </outline>
</glyph>
<glyph name="parenleft" format="2">
  <advance width="553.75"/>
  <unicode hex="0028"/>
  <outline>
    <contour>
      <point x="464.60714285714283" y="-186.19642857142856" type="curve"/>
      <point x="464.60714285714283" y="-49.94642857142857" type="line"/>
      <point x="344.60714285714283" y="-49.94642857142857"/>
      <point x="325.60714285714283" y="-43.0"/>
      <point x="325.60714285714283" y="231.76785714285714" type="curve" smooth="yes"/>
      <point x="325.60714285714283" y="1364.0357142857142" type="line" smooth="yes"/>
      <point x="325.60714285714283" y="1639.357142857143"/>
      <point x="344.60714285714283" y="1645.75"/>
      <point x="464.60714285714283" y="1645.75" type="curve"/>
      <point x="464.60714285714283" y="1782.4464285714287" type="line"/>
      <point x="211.0" y="1782.4464285714287"/>
      <point x="145.60714285714286" y="1723.0357142857142"/>
      <point x="145.60714285714286" y="1360.0357142857142" type="curve" smooth="yes"/>
      <point x="145.60714285714286" y="235.76785714285714" type="line" smooth="yes"/>
      <point x="145.60714285714286" y="-127.23214285714286"/>
      <point x="211.0" y="-186.19642857142856"/>
    </contour>
  </outline>
</glyph>
<glyph name="parenright" format="2">
  <advance width="553.75"/>
  <unicode hex="0029"/>
  <outline>
    <contour>
      <point x="89.14285714285714" y="-187.08928571428572" type="line"/>
      <point x="342.75" y="-187.08928571428572"/>
      <point x="408.14285714285717" y="-128.125"/>
      <point x="408.14285714285717" y="234.875" type="curve" smooth="yes"/>
      <point x="408.14285714285717" y="1360.0357142857142" type="line" smooth="yes"/>
      <point x="408.14285714285717" y="1723.0357142857142"/>
      <point x="342.75" y="1782.4464285714287"/>
      <point x="89.14285714285714" y="1782.4464285714287" type="curve"/>
      <point x="89.14285714285714" y="1645.75" type="line"/>
      <point x="209.14285714285714" y="1645.75"/>
      <point x="228.14285714285714" y="1639.357142857143"/>
      <point x="228.14285714285714" y="1364.0357142857142" type="curve" smooth="yes"/>
      <point x="228.14285714285714" y="230.875" type="line" smooth="yes"/>
      <point x="228.14285714285714" y="-43.89285714285714"/>
      <point x="209.14285714285714" y="-50.839285714285715"/>
      <point x="89.14285714285714" y="-50.839285714285715" type="curve"/>
    </contour>
  </outline>
</glyph>
<glyph name="asterisk" format="2">
  <advance width="912.3928571428571"/>
  <unicode hex="002A"/>
  <outline>
    <contour>
      <point x="382.44642857142856" y="1050.017857142857" type="line"/>
      <point x="530.3928571428571" y="1050.017857142857" type="line"/>
      <point x="508.17857142857144" y="1325.3392857142858" type="line"/>
      <point x="733.2857142857143" y="1147.7857142857142" type="line"/>
      <point x="808.4821428571429" y="1277.517857142857" type="line"/>
      <point x="554.6071428571429" y="1413.642857142857" type="line"/>
      <point x="808.4821428571429" y="1542.3214285714287" type="line"/>
      <point x="733.2857142857143" y="1671.0535714285713" type="line"/>
      <point x="508.17857142857144" y="1499.0535714285713" type="line"/>
      <point x="530.3928571428571" y="1770.267857142857" type="line"/>
      <point x="382.44642857142856" y="1770.267857142857" type="line"/>
      <point x="409.2142857142857" y="1496.9464285714287" type="line"/>
      <point x="179.10714285714286" y="1662.7142857142858" type="line"/>
      <point x="103.91071428571429" y="1533.982142857143" type="line"/>
      <point x="357.23214285714283" y="1413.642857142857" type="line"/>
      <point x="110.80357142857143" y="1285.857142857143" type="line"/>
      <point x="185.0" y="1155.6785714285713" type="line"/>
      <point x="409.76785714285717" y="1329.892857142857" type="line"/>
    </contour>
  </outline>
</glyph>
<glyph name="plus" format="2">
  <advance width="718.3928571428571"/>
  <unicode hex="002B"/>
  <outline>
    <contour>
      <point x="289.89285714285717" y="534.4821428571429" type="line"/>
      <point x="425.05357142857144" y="534.4821428571429" type="line"/>
      <point x="425.05357142857144" y="791.625" type="line"/>
      <point x="655.1785714285714" y="791.625" type="line"/>
      <point x="655.1785714285714" y="916.4464285714286" type="line"/>
      <point x="425.05357142857144" y="916.4464285714286" type="line"/>
      <point x="425.05357142857144" y="1168.6964285714287" type="line"/>
      <point x="289.89285714285717" y="1168.6964285714287" type="line"/>
      <point x="289.89285714285717" y="916.4464285714286" type="line"/>
      <point x="63.214285714285715" y="916.4464285714286" type="line"/>
      <point x="63.214285714285715" y="791.625" type="line"/>
      <point x="289.89285714285717" y="791.625" type="line"/>
    </contour>
  </outline>
</glyph>
<glyph name="comma" format="2">
  <advance width="450.8392857142857"/>
  <unicode hex="002C"/>
  <outline>
    <contour>
      <point x="166.42857142857142" y="-346.67857142857144" type="line"/>
      <point x="259.48214285714283" y="-346.67857142857144" type="line"/>
      <point x="361.82142857142856" y="9.0" type="line"/>
      <point x="361.82142857142856" y="207.32142857142856" type="line"/>
      <point x="129.71428571428572" y="207.32142857142856" type="line"/>
      <point x="129.71428571428572" y="0.0" type="line"/>
      <point x="249.69642857142858" y="0.0" type="line"/>
    </contour>
  </outline>
</glyph>
<glyph name="hyphen" format="2">
  <advance width="696.0"/>
  <unicode hex="002D"/>
  <outline>
    <contour>
      <point x="97.375" y="798.2678571428571" type="line"/>
      <point x="560.9821428571429" y="798.2678571428571" type="line"/>
      <point x="560.9821428571429" y="930.3214285714286" type="line"/>
      <point x="97.375" y="930.3214285714286" type="line"/>
    </contour>
  </outline>
</glyph>
<glyph name="period" format="2">
  <advance width="532.0"/>
  <unicode hex="002E"/>
  <outline>
    <contour>
      <point x="172.33928571428572" y="0.0" type="line"/>
      <point x="337.9642857142857" y="0.0" type="line"/>
      <point x="337.9642857142857" y="182.82142857142858" type="line"/>
      <point x="172.33928571428572" y="182.82142857142858" type="line"/>
    </contour>
  </outline>
</glyph>
<glyph name="slash" format="2">
  <advance width="735.8035714285714"/>
  <unicode hex="002F"/>
  <outline>
    <contour>
      <point x="69.17857142857143" y="0.0" type="line"/>
      <point x="229.75" y="0.0" type="line"/>
      <point x="674.6607142857143" y="1774.6964285714287" type="line"/>
      <point x="513.0892857142857" y="1774.6964285714287" type="line"/>
    </contour>
  </outline>
</glyph>
<glyph name="zero" format="2">
  <advance width="843.2857142857143"/>
  <unicode hex="0030"/>
  <outline>
    <contour>
      <point x="425.30357142857144" y="-21.0" type="curve" smooth="yes"/>
      <point x="683.8392857142857" y="-21.0"/>
      <point x="714.375" y="146.82142857142858"/>
      <point x="714.375" y="475.0" type="curve" smooth="yes"/>
      <point x="714.375" y="1316.0" type="line" smooth="yes"/>
      <point x="714.375" y="1629.267857142857"/>
      <point x="680.5178571428571" y="1780.7857142857142"/>
      <point x="425.30357142857144" y="1780.7857142857142" type="curve" smooth="yes"/>
      <point x="171.875" y="1780.7857142857142"/>
      <point x="129.35714285714286" y="1629.267857142857"/>
      <point x="129.35714285714286" y="1316.0" type="curve" smooth="yes"/>
      <point x="129.35714285714286" y="475.0" type="line" smooth="yes"/>
      <point x="129.35714285714286" y="146.82142857142858"/>
      <point x="168.55357142857144" y="-21.0"/>
    </contour>
    <contour>
      <point x="422.85714285714283" y="130.78571428571428" type="curve" smooth="yes"/>
      <point x="327.01785714285717" y="130.78571428571428"/>
      <point x="303.92857142857144" y="187.08928571428572"/>
      <point x="303.92857142857144" y="470.0" type="curve" smooth="yes"/>
      <point x="303.92857142857144" y="1328.0" type="line" smooth="yes"/>
      <point x="303.92857142857144" y="1579.0357142857142"/>
      <point x="334.76785714285717" y="1628.2142857142858"/>
      <point x="422.85714285714283" y="1628.2142857142858" type="curve" smooth="yes"/>
      <point x="515.1785714285714" y="1628.2142857142858"/>
      <point x="539.3571428571429" y="1577.9285714285713"/>
      <point x="539.3571428571429" y="1327.0" type="curve" smooth="yes"/>
      <point x="539.3571428571429" y="470.0" type="line" smooth="yes"/>
      <point x="539.3571428571429" y="187.64285714285714"/>
      <point x="519.0535714285714" y="130.78571428571428"/>
    </contour>
  </outline>
</glyph>
<glyph name="one" format="2">
  <advance width="843.2857142857143"/>
  <unicode hex="0031"/>
  <outline>
    <contour>
      <point x="400.14285714285717" y="0.0" type="line"/>
      <point x="580.6964285714286" y="0.0" type="line"/>
      <point x="580.6964285714286" y="1760.0" type="line"/>
      <point x="460.14285714285717" y="1760.0" type="line"/>
      <point x="404.14285714285717" y="1628.0"/>
      <point x="242.60714285714286" y="1547.0714285714287"/>
      <point x="136.60714285714286" y="1532.0714285714287" type="curve"/>
      <point x="136.60714285714286" y="1399.767857142857" type="line"/>
      <point x="210.60714285714286" y="1399.767857142857"/>
      <point x="352.14285714285717" y="1448.767857142857"/>
      <point x="400.14285714285717" y="1505.767857142857" type="curve"/>
    </contour>
  </outline>
</glyph>
<glyph name="two" format="2">
  <advance width="843.2857142857143"/>
  <unicode hex="0032"/>
  <outline>
    <contour>
      <point x="176.23214285714286" y="0.0" type="line"/>
      <point x="729.9821428571429" y="0.0" type="line"/>
      <point x="729.9821428571429" y="139.82142857142858" type="line"/>
      <point x="353.10714285714283" y="139.82142857142858" type="line"/>
      <point x="371.85714285714283" y="259.60714285714283"/>
      <point x="404.44642857142856" y="333.3392857142857"/>
      <point x="484.9732142857143" y="485.23214285714283" type="curve" smooth="yes"/>
      <point x="629.5714285714286" y="766.9821428571429" type="line" smooth="yes"/>
      <point x="717.6071428571429" y="941.2321428571429"/>
      <point x="755.6428571428571" y="1083.625"/>
      <point x="755.6428571428571" y="1300.5892857142858" type="curve" smooth="yes"/>
      <point x="755.6428571428571" y="1604.125"/>
      <point x="691.6071428571429" y="1779.4464285714287"/>
      <point x="483.60714285714283" y="1780.7857142857142" type="curve" smooth="yes"/>
      <point x="222.58928571428572" y="1782.125"/>
      <point x="168.25" y="1608.2857142857142"/>
      <point x="168.25" y="1248.8214285714287" type="curve" smooth="yes"/>
      <point x="168.25" y="1065.0" type="line"/>
      <point x="343.01785714285717" y="1065.0" type="line"/>
      <point x="343.01785714285717" y="1305.1607142857142" type="line" smooth="yes"/>
      <point x="343.01785714285717" y="1564.6785714285713"/>
      <point x="381.48214285714283" y="1626.3214285714287"/>
      <point x="467.7142857142857" y="1627.2142857142858" type="curve" smooth="yes"/>
      <point x="557.75" y="1628.107142857143"/>
      <point x="585.0892857142857" y="1580.0714285714287"/>
      <point x="585.0892857142857" y="1307.767857142857" type="curve" smooth="yes"/>
      <point x="585.0892857142857" y="1142.017857142857"/>
      <point x="573.3214285714286" y="1022.2857142857143"/>
      <point x="489.2142857142857" y="852.4464285714286" type="curve" smooth="yes"/>
      <point x="337.70535714285717" y="557.8571428571429" type="line" smooth="yes"/>
      <point x="241.66071428571428" y="379.35714285714283"/>
      <point x="196.76785714285714" y="264.625"/>
      <point x="176.23214285714286" y="108.26785714285714" type="curve" smooth="yes"/>
    </contour>
  </outline>
</glyph>
<glyph name="three" format="2">
  <advance width="843.2857142857143"/>
  <unicode hex="0033"/>
  <outline>
    <contour>
      <point x="418.73214285714283" y="-20.0" type="curve" smooth="yes"/>
      <point x="656.2321428571429" y="-20.0"/>
      <point x="751.4642857142857" y="143.08928571428572"/>
      <point x="751.4642857142857" y="477.4107142857143" type="curve" smooth="yes"/>
      <point x="751.4642857142857" y="677.5"/>
      <point x="700.125" y="862.9821428571429"/>
      <point x="571.25" y="921.1964285714286" type="curve"/>
      <point x="698.25" y="968.6428571428571"/>
      <point x="747.9107142857143" y="1121.3214285714287"/>
      <point x="747.9107142857143" y="1319.892857142857" type="curve" smooth="yes"/>
      <point x="747.9107142857143" y="1623.5535714285713"/>
      <point x="655.8035714285714" y="1779.4464285714287"/>
      <point x="421.94642857142856" y="1779.4464285714287" type="curve" smooth="yes"/>
      <point x="187.98214285714286" y="1779.4464285714287"/>
      <point x="109.32142857142857" y="1629.75"/>
      <point x="109.32142857142857" y="1325.4285714285713" type="curve" smooth="yes"/>
      <point x="109.32142857142857" y="1279.8035714285713" type="line"/>
      <point x="285.44642857142856" y="1279.8035714285713" type="line"/>
      <point x="285.44642857142856" y="1316.892857142857" type="line" smooth="yes"/>
      <point x="285.44642857142856" y="1566.5535714285713"/>
      <point x="335.375" y="1626.767857142857"/>
      <point x="421.1607142857143" y="1626.767857142857" type="curve" smooth="yes"/>
      <point x="507.625" y="1626.767857142857"/>
      <point x="568.5714285714286" y="1581.2142857142858"/>
      <point x="568.5714285714286" y="1320.3392857142858" type="curve" smooth="yes"/>
      <point x="568.5714285714286" y="1040.5714285714287"/>
      <point x="516.9642857142857" y="995.2857142857143"/>
      <point x="377.1607142857143" y="995.2857142857143" type="curve" smooth="yes"/>
      <point x="334.625" y="995.2857142857143" type="line"/>
      <point x="334.625" y="846.8035714285714" type="line"/>
      <point x="379.1607142857143" y="846.8035714285714" type="line" smooth="yes"/>
      <point x="521.5178571428571" y="846.8035714285714"/>
      <point x="571.0178571428571" y="761.0357142857143"/>
      <point x="571.0178571428571" y="480.30357142857144" type="curve" smooth="yes"/>
      <point x="571.0178571428571" y="226.33928571428572"/>
      <point x="546.7678571428571" y="132.23214285714286"/>
      <point x="424.17857142857144" y="132.23214285714286" type="curve" smooth="yes"/>
      <point x="300.69642857142856" y="132.23214285714286"/>
      <point x="279.3392857142857" y="211.67857142857142"/>
      <point x="279.3392857142857" y="472.3392857142857" type="curve" smooth="yes"/>
      <point x="279.3392857142857" y="536.375" type="line"/>
      <point x="104.42857142857143" y="536.375" type="line"/>
      <point x="104.42857142857143" y="468.4642857142857" type="line" smooth="yes"/>
      <point x="104.42857142857143" y="135.46428571428572"/>
      <point x="184.76785714285714" y="-20.0"/>
    </contour>
  </outline>
</glyph>
<glyph name="four" format="2">
  <advance width="843.2857142857143"/>
  <unicode hex="0034"/>
  <outline>
    <contour>
      <point x="491.64285714285717" y="0.0" type="line"/>
      <point x="655.9821428571429" y="0.0" type="line"/>
      <point x="655.9821428571429" y="340.92857142857144" type="line"/>
      <point x="805.0" y="340.92857142857144" type="line"/>
      <point x="805.0" y="483.5" type="line"/>
      <point x="655.9821428571429" y="483.5" type="line"/>
      <point x="655.9821428571429" y="1760.0" type="line"/>
      <point x="473.7857142857143" y="1760.0" type="line"/>
      <point x="87.25" y="464.5" type="line"/>
      <point x="87.25" y="340.92857142857144" type="line"/>
      <point x="491.64285714285717" y="340.92857142857144" type="line"/>
    </contour>
    <contour>
      <point x="235.82142857142858" y="483.5" type="line"/>
      <point x="491.64285714285717" y="1437.0" type="line"/>
      <point x="491.64285714285717" y="483.5" type="line"/>
    </contour>
  </outline>
</glyph>
<glyph name="five" format="2">
  <advance width="843.2857142857143"/>
  <unicode hex="0035"/>
  <outline>
    <contour>
      <point x="441.07142857142856" y="-20.0" type="curve" smooth="yes"/>
      <point x="691.2142857142857" y="-20.0"/>
      <point x="724.75" y="162.60714285714286"/>
      <point x="724.75" y="491.5" type="curve" smooth="yes"/>
      <point x="724.75" y="739.4285714285714" type="line" smooth="yes"/>
      <point x="724.75" y="1136.5357142857142"/>
      <point x="639.0535714285714" y="1228.982142857143"/>
      <point x="490.94642857142856" y="1228.982142857143" type="curve" smooth="yes"/>
      <point x="423.7142857142857" y="1228.982142857143"/>
      <point x="358.60714285714283" y="1197.0714285714287"/>
      <point x="337.94642857142856" y="1146.482142857143" type="curve"/>
      <point x="337.94642857142856" y="1596.3214285714287" type="line"/>
      <point x="684.5357142857143" y="1596.3214285714287" type="line"/>
      <point x="684.5357142857143" y="1760.0" type="line"/>
      <point x="173.05357142857142" y="1760.0" type="line"/>
      <point x="173.05357142857142" y="897.2678571428571" type="line"/>
      <point x="326.94642857142856" y="878.5892857142857" type="line"/>
      <point x="326.94642857142856" y="1011.9464285714286"/>
      <point x="376.51785714285717" y="1072.732142857143"/>
      <point x="443.51785714285717" y="1072.732142857143" type="curve" smooth="yes"/>
      <point x="526.5178571428571" y="1072.732142857143"/>
      <point x="551.6428571428571" y="1001.0714285714286"/>
      <point x="551.6428571428571" y="859.0357142857143" type="curve" smooth="yes"/>
      <point x="551.6428571428571" y="302.7857142857143" type="line" smooth="yes"/>
      <point x="551.6428571428571" y="180.98214285714286"/>
      <point x="515.2857142857143" y="130.78571428571428"/>
      <point x="439.2857142857143" y="130.78571428571428" type="curve" smooth="yes"/>
      <point x="354.2857142857143" y="130.78571428571428"/>
      <point x="326.92857142857144" y="190.85714285714286"/>
      <point x="326.92857142857144" y="291.7857142857143" type="curve" smooth="yes"/>
      <point x="326.92857142857144" y="487.23214285714283" type="line"/>
      <point x="152.375" y="487.23214285714283" type="line"/>
      <point x="152.375" y="304.8392857142857" type="line" smooth="yes"/>
      <point x="152.375" y="131.55357142857142"/>
      <point x="212.875" y="-20.0"/>
    </contour>
  </outline>
</glyph>
<glyph name="six" format="2">
  <advance width="843.2857142857143"/>
  <unicode hex="0036"/>
  <outline>
    <contour>
      <point x="451.9642857142857" y="-20.553571428571427" type="curve" smooth="yes"/>
      <point x="716.6607142857143" y="-20.553571428571427"/>
      <point x="761.0535714285714" y="171.57142857142856"/>
      <point x="761.0535714285714" y="477.98214285714283" type="curve" smooth="yes"/>
      <point x="761.0535714285714" y="562.3214285714286" type="line" smooth="yes"/>
      <point x="761.0535714285714" y="935.6428571428571"/>
      <point x="705.3392857142857" y="1103.5892857142858"/>
      <point x="465.35714285714283" y="1098.6785714285713" type="curve" smooth="yes"/>
      <point x="401.82142857142856" y="1097.3392857142858"/>
      <point x="342.5" y="1071.0"/>
      <point x="304.48214285714283" y="1029.607142857143" type="curve"/>
      <point x="304.48214285714283" y="1251.125" type="line" smooth="yes"/>
      <point x="304.48214285714283" y="1531.375"/>
      <point x="310.9642857142857" y="1626.767857142857"/>
      <point x="433.55357142857144" y="1626.767857142857" type="curve" smooth="yes"/>
      <point x="544.5714285714286" y="1626.767857142857"/>
      <point x="561.3214285714286" y="1572.3392857142858"/>
      <point x="561.7678571428571" y="1291.857142857143" type="curve" smooth="yes"/>
      <point x="561.7678571428571" y="1248.6785714285713" type="line"/>
      <point x="731.4821428571429" y="1248.6785714285713" type="line"/>
      <point x="731.4821428571429" y="1308.9107142857142" type="line" smooth="yes"/>
      <point x="729.6964285714286" y="1641.142857142857"/>
      <point x="672.5714285714286" y="1780.7857142857142"/>
      <point x="445.5357142857143" y="1780.7857142857142" type="curve" smooth="yes"/>
      <point x="186.10714285714286" y="1780.7857142857142"/>
      <point x="129.35714285714286" y="1615.5714285714287"/>
      <point x="129.35714285714286" y="1247.392857142857" type="curve" smooth="yes"/>
      <point x="129.35714285714286" y="499.35714285714283" type="line" smooth="yes"/>
      <point x="129.35714285714286" y="188.96428571428572"/>
      <point x="170.10714285714286" y="-20.553571428571427"/>
    </contour>
    <contour>
      <point x="449.19642857142856" y="134.67857142857142" type="curve" smooth="yes"/>
      <point x="321.89285714285717" y="134.67857142857142"/>
      <point x="304.48214285714283" y="236.51785714285714"/>
      <point x="304.48214285714283" y="479.64285714285717" type="curve" smooth="yes"/>
      <point x="304.48214285714283" y="903.3035714285714" type="line"/>
      <point x="312.9642857142857" y="905.5357142857143"/>
      <point x="375.05357142857144" y="952.5357142857143"/>
      <point x="456.32142857142856" y="952.5357142857143" type="curve" smooth="yes"/>
      <point x="573.2142857142857" y="952.5357142857143"/>
      <point x="590.0178571428571" y="853.3928571428571"/>
      <point x="590.0178571428571" y="566.375" type="curve" smooth="yes"/>
      <point x="590.0178571428571" y="448.76785714285717" type="line" smooth="yes"/>
      <point x="590.0178571428571" y="207.08928571428572"/>
      <point x="567.875" y="134.67857142857142"/>
    </contour>
  </outline>
</glyph>
<glyph name="seven" format="2">
  <advance width="843.2857142857143"/>
  <unicode hex="0037"/>
  <outline>
    <contour>
      <point x="219.94642857142858" y="0.0" type="curve"/>
      <point x="411.48214285714283" y="0.0" type="line"/>
      <point x="439.375" y="440.26785714285717"/>
      <point x="525.375" y="844.1071428571429"/>
      <point x="606.3571428571429" y="1140.6785714285713" type="curve"/>
      <point x="683.3571428571429" y="1427.2857142857142"/>
      <point x="757.0" y="1611.0714285714287"/>
      <point x="760.1071428571429" y="1629.75" type="curve"/>
      <point x="760.1071428571429" y="1760.0" type="line"/>
      <point x="88.91071428571429" y="1760.0" type="line"/>
      <point x="88.91071428571429" y="1612.0" type="line"/>
      <point x="590.8035714285714" y="1612.0" type="line"/>
      <point x="589.6964285714286" y="1606.4642857142858"/>
      <point x="520.8928571428571" y="1448.1964285714287"/>
      <point x="441.19642857142856" y="1174.9642857142858" type="curve"/>
      <point x="354.67857142857144" y="882.6785714285714"/>
      <point x="256.8392857142857" y="478.2142857142857"/>
    </contour>
  </outline>
</glyph>
<glyph name="eight" format="2">
  <advance width="843.2857142857143"/>
  <unicode hex="0038"/>
  <outline>
    <contour>
      <point x="427.0892857142857" y="-20.0" type="curve" smooth="yes"/>
      <point x="648.3571428571429" y="-20.0"/>
      <point x="742.3571428571429" y="113.32142857142857"/>
      <point x="742.3571428571429" y="419.0892857142857" type="curve" smooth="yes"/>
      <point x="742.3571428571429" y="467.2142857142857" type="line" smooth="yes"/>
      <point x="742.3571428571429" y="692.7142857142857"/>
      <point x="697.5892857142857" y="868.2857142857143"/>
      <point x="600.3392857142857" y="939.3035714285714" type="curve"/>
      <point x="703.4464285714286" y="1009.8571428571429"/>
      <point x="740.25" y="1142.0535714285713"/>
      <point x="740.25" y="1345.3392857142858" type="curve" smooth="yes"/>
      <point x="740.25" y="1650.5535714285713"/>
      <point x="657.2321428571429" y="1780.7857142857142"/>
      <point x="428.98214285714283" y="1780.7857142857142" type="curve" smooth="yes"/>
      <point x="200.39285714285714" y="1780.7857142857142"/>
      <point x="115.26785714285714" y="1649.4464285714287"/>
      <point x="115.26785714285714" y="1345.3392857142858" type="curve" smooth="yes"/>
      <point x="115.26785714285714" y="1140.9285714285713"/>
      <point x="154.05357142857142" y="1006.625"/>
      <point x="253.375" y="935.8571428571429" type="curve"/>
      <point x="151.57142857142858" y="866.8392857142857"/>
      <point x="99.375" y="693.9285714285714"/>
      <point x="100.48214285714286" y="467.2142857142857" type="curve" smooth="yes"/>
      <point x="101.03571428571429" y="410.75" type="line" smooth="yes"/>
      <point x="107.26785714285714" y="110.875"/>
      <point x="204.14285714285714" y="-20.0"/>
    </contour>
    <contour>
      <point x="428.5357142857143" y="131.23214285714286" type="curve" smooth="yes"/>
      <point x="313.32142857142856" y="131.23214285714286"/>
      <point x="282.0357142857143" y="215.5"/>
      <point x="282.0357142857143" y="431.875" type="curve" smooth="yes"/>
      <point x="282.0357142857143" y="488.82142857142856" type="line" smooth="yes"/>
      <point x="282.0357142857143" y="750.6607142857143"/>
      <point x="338.05357142857144" y="865.6785714285714"/>
      <point x="428.5357142857143" y="865.6785714285714" type="curve" smooth="yes"/>
      <point x="516.9776785714286" y="865.6785714285714"/>
      <point x="562.25" y="751.4464285714286"/>
      <point x="562.25" y="495.8392857142857" type="curve" smooth="yes"/>
      <point x="562.25" y="439.55357142857144" type="line" smooth="yes"/>
      <point x="562.25" y="216.73214285714286"/>
      <point x="539.1785714285714" y="131.23214285714286"/>
    </contour>
    <contour>
      <point x="426.5357142857143" y="995.8392857142857" type="curve" smooth="yes"/>
      <point x="338.26785714285717" y="995.8392857142857"/>
      <point x="291.39285714285717" y="1078.1607142857142"/>
      <point x="291.39285714285717" y="1339.142857142857" type="curve" smooth="yes"/>
      <point x="291.39285714285717" y="1570.3035714285713"/>
      <point x="334.94642857142856" y="1631.4107142857142"/>
      <point x="426.5357142857143" y="1631.4107142857142" type="curve" smooth="yes"/>
      <point x="520.6785714285714" y="1631.4107142857142"/>
      <point x="564.125" y="1577.392857142857"/>
      <point x="564.125" y="1343.5892857142858" type="curve" smooth="yes"/>
      <point x="564.125" y="1079.1607142857142"/>
      <point x="513.4821428571429" y="995.8392857142857"/>
    </contour>
  </outline>
</glyph>
<glyph name="nine" format="2">
  <advance width="843.2857142857143"/>
  <unicode hex="0039"/>
  <outline>
    <contour>
      <point x="422.98214285714283" y="-20.0" type="curve" smooth="yes"/>
      <point x="682.8571428571429" y="-20.0"/>
      <point x="726.6607142857143" y="163.85714285714286"/>
      <point x="726.6607142857143" y="532.0357142857143" type="curve" smooth="yes"/>
      <point x="726.6607142857143" y="1259.5357142857142" type="line" smooth="yes"/>
      <point x="726.6607142857143" y="1569.0357142857142"/>
      <point x="692.1607142857143" y="1780.7857142857142"/>
      <point x="410.30357142857144" y="1780.7857142857142" type="curve" smooth="yes"/>
      <point x="130.42857142857142" y="1780.7857142857142"/>
      <point x="105.67857142857143" y="1557.857142857143"/>
      <point x="105.67857142857143" y="1251.4464285714287" type="curve" smooth="yes"/>
      <point x="105.67857142857143" y="1207.732142857143" type="line" smooth="yes"/>
      <point x="105.67857142857143" y="848.6964285714286"/>
      <point x="149.33928571428572" y="662.0"/>
      <point x="392.89285714285717" y="662.0" type="curve" smooth="yes"/>
      <point x="456.875" y="662.0"/>
      <point x="515.6428571428571" y="682.9821428571429"/>
      <point x="550.0892857142857" y="713.6607142857143" type="curve"/>
      <point x="550.0892857142857" y="515.8035714285714" type="line" smooth="yes"/>
      <point x="550.0892857142857" y="245.375"/>
      <point x="558.0" y="131.23214285714286"/>
      <point x="437.64285714285717" y="131.23214285714286" type="curve" smooth="yes"/>
      <point x="324.8392857142857" y="131.23214285714286"/>
      <point x="304.51785714285717" y="173.60714285714286"/>
      <point x="303.625" y="469.7142857142857" type="curve" smooth="yes"/>
      <point x="303.625" y="510.2142857142857" type="line"/>
      <point x="138.375" y="510.2142857142857" type="line"/>
      <point x="138.375" y="448.64285714285717" type="line" smooth="yes"/>
      <point x="138.375" y="117.30357142857143"/>
      <point x="204.42857142857142" y="-20.0"/>
    </contour>
    <contour>
      <point x="412.98214285714283" y="803.6785714285714" type="curve" smooth="yes"/>
      <point x="288.05357142857144" y="803.6785714285714"/>
      <point x="276.1607142857143" y="903.2678571428571"/>
      <point x="276.1607142857143" y="1190.2857142857142" type="curve" smooth="yes"/>
      <point x="276.1607142857143" y="1284.6785714285713" type="line" smooth="yes"/>
      <point x="276.1607142857143" y="1519.6607142857142"/>
      <point x="290.69642857142856" y="1624.2142857142858"/>
      <point x="415.17857142857144" y="1624.2142857142858" type="curve" smooth="yes"/>
      <point x="532.6607142857143" y="1624.2142857142858"/>
      <point x="550.0892857142857" y="1515.232142857143"/>
      <point x="550.0892857142857" y="1278.8035714285713" type="curve" smooth="yes"/>
      <point x="550.0892857142857" y="841.75" type="line"/>
      <point x="541.1607142857143" y="837.7321428571429"/>
      <point x="485.76785714285717" y="803.6785714285714"/>
    </contour>
  </outline>
</glyph>
<glyph name="colon" format="2">
  <advance width="518.4642857142857"/>
  <unicode hex="003A"/>
  <outline>
    <contour>
      <point x="152.98214285714286" y="1047.4464285714287" type="line"/>
      <point x="359.23214285714283" y="1047.4464285714287" type="line"/>
      <point x="359.23214285714283" y="1294.5" type="line"/>
      <point x="152.98214285714286" y="1294.5" type="line"/>
    </contour>
    <contour>
      <point x="152.98214285714286" y="288.75" type="line"/>
      <point x="359.23214285714283" y="288.75" type="line"/>
      <point x="359.23214285714283" y="535.8035714285714" type="line"/>
      <point x="152.98214285714286" y="535.8035714285714" type="line"/>
    </contour>
  </outline>
</glyph>
<glyph name="semicolon" format="2">
  <advance width="561.0"/>
  <unicode hex="003B"/>
  <outline>
    <contour>
      <point x="194.46428571428572" y="-57.01785714285714" type="line"/>
      <point x="297.48214285714283" y="-57.01785714285714" type="line"/>
      <point x="407.01785714285717" y="321.35714285714283" type="line"/>
      <point x="407.01785714285717" y="529.0892857142857" type="line"/>
      <point x="192.625" y="529.0892857142857" type="line"/>
      <point x="192.625" y="312.35714285714283" type="line"/>
      <point x="284.92857142857144" y="312.35714285714283" type="line"/>
    </contour>
    <contour>
      <point x="186.19642857142858" y="1047.4464285714287" type="line"/>
      <point x="392.44642857142856" y="1047.4464285714287" type="line"/>
      <point x="392.44642857142856" y="1294.5" type="line"/>
      <point x="186.19642857142858" y="1294.5" type="line"/>
    </contour>
  </outline>
</glyph>
<glyph name="less" format="2">
  <advance width="730.0"/>
  <unicode hex="003C"/>
  <outline>
    <contour>
      <point x="640.8928571428571" y="274.7142857142857" type="line"/>
      <point x="640.8928571428571" y="464.60714285714283" type="line"/>
      <point x="192.26785714285714" y="756.3392857142857" type="line"/>
      <point x="640.8928571428571" y="1034.392857142857" type="line"/>
      <point x="640.8928571428571" y="1231.1785714285713" type="line"/>
      <point x="63.55357142857143" y="843.4821428571429" type="line"/>
      <point x="63.55357142857143" y="666.4107142857143" type="line"/>
    </contour>
  </outline>
</glyph>
<glyph name="equal" format="2">
  <advance width="722.0"/>
  <unicode hex="003D"/>
  <outline>
    <contour>
      <point x="88.46428571428571" y="587.1607142857143" type="line"/>
      <point x="650.1428571428571" y="587.1607142857143" type="line"/>
      <point x="650.1428571428571" y="732.3214285714286" type="line"/>
      <point x="88.46428571428571" y="732.3214285714286" type="line"/>
    </contour>
    <contour>
      <point x="88.46428571428571" y="893.7857142857143" type="line"/>
      <point x="650.1428571428571" y="893.7857142857143" type="line"/>
      <point x="650.1428571428571" y="1038.8392857142858" type="line"/>
      <point x="88.46428571428571" y="1038.8392857142858" type="line"/>
    </contour>
  </outline>
</glyph>
<glyph name="greater" format="2">
  <advance width="730.0"/>
  <unicode hex="003E"/>
  <outline>
    <contour>
      <point x="85.66071428571429" y="274.7142857142857" type="line"/>
      <point x="663.0" y="662.9642857142857" type="line"/>
      <point x="663.0" y="839.5892857142857" type="line"/>
      <point x="85.66071428571429" y="1231.1785714285713" type="line"/>
      <point x="85.66071428571429" y="1041.2857142857142" type="line"/>
      <point x="534.2857142857143" y="749.0" type="line"/>
      <point x="85.66071428571429" y="471.5" type="line"/>
    </contour>
  </outline>
</glyph>
<glyph name="question" format="2">
  <advance width="788.8214285714286"/>
  <unicode hex="003F"/>
  <outline>
    <contour>
      <point x="244.60714285714286" y="494.0" type="line"/>
      <point x="399.5" y="494.0" type="line"/>
      <point x="399.5" y="732.2857142857143" type="line"/>
      <point x="626.7678571428571" y="796.375"/>
      <point x="685.0" y="959.6964285714286"/>
      <point x="685.0" y="1305.6964285714287" type="curve" smooth="yes"/>
      <point x="685.0" y="1593.3214285714287"/>
      <point x="678.6071428571429" y="1782.4464285714287"/>
      <point x="421.89285714285717" y="1782.4464285714287" type="curve" smooth="yes"/>
      <point x="150.89285714285714" y="1782.4464285714287"/>
      <point x="158.55357142857142" y="1531.5892857142858"/>
      <point x="158.55357142857142" y="1367.767857142857" type="curve" smooth="yes"/>
      <point x="158.55357142857142" y="1160.0" type="line"/>
      <point x="329.85714285714283" y="1160.0" type="line"/>
      <point x="329.85714285714283" y="1364.482142857143" type="line" smooth="yes"/>
      <point x="329.85714285714283" y="1566.107142857143"/>
      <point x="338.89285714285717" y="1629.4464285714287"/>
      <point x="425.89285714285717" y="1629.4464285714287" type="curve" smooth="yes"/>
      <point x="505.89285714285717" y="1629.4464285714287"/>
      <point x="511.48214285714283" y="1554.75"/>
      <point x="511.48214285714283" y="1364.017857142857" type="curve" smooth="yes"/>
      <point x="511.48214285714283" y="1020.5714285714286"/>
      <point x="502.57142857142856" y="896.0178571428571"/>
      <point x="244.60714285714286" y="810.0" type="curve"/>
    </contour>
    <contour>
      <point x="245.82142857142858" y="0.0" type="line"/>
      <point x="400.05357142857144" y="0.0" type="line"/>
      <point x="400.05357142857144" y="299.0" type="line"/>
      <point x="245.82142857142858" y="299.0" type="line"/>
    </contour>
  </outline>
</glyph>
<glyph name="at" format="2">
  <advance width="1440.75"/>
  <unicode hex="0040"/>
  <outline>
    <contour>
      <point x="1226.3214285714287" y="72.28571428571428" type="curve"/>
      <point x="1205.5535714285713" y="193.875" type="line"/>
      <point x="616.25" y="-15.785714285714285"/>
      <point x="245.01785714285714" y="184.53571428571428"/>
      <point x="245.01785714285714" y="812.4642857142857" type="curve" smooth="yes"/>
      <point x="245.01785714285714" y="1270.357142857143"/>
      <point x="380.125" y="1581.5357142857142"/>
      <point x="774.625" y="1581.5357142857142" type="curve" smooth="yes"/>
      <point x="1171.8035714285713" y="1581.5357142857142"/>
      <point x="1214.1785714285713" y="1233.767857142857"/>
      <point x="1214.1785714285713" y="907.1785714285714" type="curve" smooth="yes"/>
      <point x="1214.1785714285713" y="614.8035714285714"/>
      <point x="1180.5892857142858" y="472.98214285714283"/>
      <point x="1105.6964285714287" y="472.98214285714283" type="curve" smooth="yes"/>
      <point x="1047.8035714285713" y="472.98214285714283"/>
      <point x="1029.8035714285713" y="538.4107142857143"/>
      <point x="1029.8035714285713" y="658.1607142857143" type="curve" smooth="yes"/>
      <point x="1029.8035714285713" y="1291.875" type="line"/>
      <point x="573.8035714285714" y="1473.4464285714287"/>
      <point x="410.1428571428571" y="1151.482142857143"/>
      <point x="410.1428571428571" y="802.6607142857143" type="curve" smooth="yes"/>
      <point x="410.1428571428571" y="486.2111607142857"/>
      <point x="544.8232142857142" y="344.7397321428571"/>
      <point x="703.125" y="343.99419642857146" type="curve" smooth="yes"/>
      <point x="806.9272321428572" y="343.4352678571429"/>
      <point x="898.2388392857142" y="423.55089285714286"/>
      <point x="925.8571428571429" y="549.1071428571429" type="curve"/>
      <point x="946.8392857142857" y="440.01785714285717"/>
      <point x="1016.4821428571429" y="357.0892857142857"/>
      <point x="1101.375" y="357.0892857142857" type="curve" smooth="yes"/>
      <point x="1276.232142857143" y="357.0892857142857"/>
      <point x="1345.3214285714287" y="604.8928571428571"/>
      <point x="1345.3214285714287" y="890.8035714285714" type="curve" smooth="yes"/>
      <point x="1345.3214285714287" y="1386.875"/>
      <point x="1194.3035714285713" y="1706.232142857143"/>
      <point x="785.5" y="1706.232142857143" type="curve" smooth="yes"/>
      <point x="276.5892857142857" y="1706.232142857143"/>
      <point x="95.42857142857143" y="1345.0892857142858"/>
      <point x="95.42857142857143" y="815.4642857142857" type="curve" smooth="yes"/>
      <point x="95.42857142857143" y="150.76785714285714"/>
      <point x="502.32142857142856" y="-166.80357142857144"/>
    </contour>
    <contour>
      <point x="709.2834821428571" y="456.04017857142856" type="curve" smooth="yes"/>
      <point x="601.5178571428571" y="457.82589285714283"/>
      <point x="543.4285714285714" y="572.6160714285714"/>
      <point x="543.4285714285714" y="808.2142857142857" type="curve" smooth="yes"/>
      <point x="543.4285714285714" y="1170.0535714285713"/>
      <point x="692.0178571428571" y="1283.5357142857142"/>
      <point x="896.9642857142857" y="1217.892857142857" type="curve"/>
      <point x="896.9642857142857" y="677.8214285714286" type="line" smooth="yes"/>
      <point x="886.4732142857143" y="556.6160714285714"/>
      <point x="800.4419642857143" y="454.2544642857143"/>
    </contour>
  </outline>
</glyph>
<glyph name="A" format="2">
  <advance width="867.2678571428571"/>
  <unicode hex="0041"/>
  <anchor x="423.4642857142857" y="0.0" name="bottom"/>
  <anchor x="744.8928571428571" y="0.0" name="ogonek"/>
  <anchor x="423.4642857142857" y="1760.0" name="top"/>
  <outline>
    <contour>
      <point x="43.30357142857143" y="0.0" type="line"/>
      <point x="215.30357142857142" y="0.0" type="line"/>
      <point x="264.42857142857144" y="347.60714285714283" type="line"/>
      <point x="598.1607142857143" y="347.60714285714283" type="line"/>
      <point x="651.7321428571429" y="0.0" type="line"/>
      <point x="823.9642857142857" y="0.0" type="line"/>
      <point x="523.1428571428571" y="1760.0" type="line"/>
      <point x="317.44642857142856" y="1760.0" type="line"/>
    </contour>
    <contour>
      <point x="285.64285714285717" y="490.1607142857143" type="line"/>
      <point x="423.01785714285717" y="1452.75" type="line"/>
      <point x="425.57142857142856" y="1452.75" type="line"/>
      <point x="574.8392857142857" y="490.1607142857143" type="line"/>
    </contour>
  </outline>
</glyph>
<glyph name="B" format="2">
  <advance width="895.125"/>
  <unicode hex="0042"/>
  <anchor x="447.8392857142857" y="0.0" name="bottom"/>
  <anchor x="447.8392857142857" y="1760.0" name="top"/>
  <outline>
    <contour>
      <point x="153.82142857142858" y="0.0" type="line"/>
      <point x="479.07142857142856" y="0.0" type="line" smooth="yes"/>
      <point x="731.375" y="0.0"/>
      <point x="803.7678571428571" y="150.33928571428572"/>
      <point x="808.2142857142857" y="490.32142857142856" type="curve"/>
      <point x="808.2142857142857" y="524.6428571428571" type="line" smooth="yes"/>
      <point x="808.2142857142857" y="721.9642857142857"/>
      <point x="777.0178571428571" y="897.5357142857143"/>
      <point x="657.375" y="950.3214285714286" type="curve"/>
      <point x="758.6964285714286" y="1009.3392857142857"/>
      <point x="781.4464285714286" y="1132.6785714285713"/>
      <point x="781.4464285714286" y="1333.5892857142858" type="curve" smooth="yes"/>
      <point x="781.4464285714286" y="1364.892857142857" type="line"/>
      <point x="779.0" y="1647.0"/>
      <point x="715.8214285714286" y="1760.0"/>
      <point x="444.5892857142857" y="1760.0" type="curve" smooth="yes"/>
      <point x="153.82142857142858" y="1760.0" type="line"/>
    </contour>
    <contour>
      <point x="334.92857142857144" y="149.58928571428572" type="line"/>
      <point x="334.92857142857144" y="874.0357142857143" type="line"/>
      <point x="483.19642857142856" y="874.0357142857143" type="line" smooth="yes"/>
      <point x="601.2142857142857" y="874.0357142857143"/>
      <point x="626.1071428571429" y="780.5714285714286"/>
      <point x="626.5535714285714" y="549.2857142857143" type="curve" smooth="yes"/>
      <point x="626.5437499999999" y="508.5232142857143" type="line" smooth="yes"/>
      <point x="626.1459821428572" y="227.69642857142856"/>
      <point x="595.8625" y="149.58928571428572"/>
      <point x="475.76785714285717" y="149.58928571428572" type="curve" smooth="yes"/>
    </contour>
    <contour>
      <point x="334.92857142857144" y="1015.625" type="line"/>
      <point x="334.92857142857144" y="1607.9642857142858" type="line"/>
      <point x="441.39285714285717" y="1607.9642857142858" type="line" smooth="yes"/>
      <point x="556.3214285714286" y="1607.9642857142858"/>
      <point x="600.0" y="1576.517857142857"/>
      <point x="601.4464285714286" y="1355.642857142857" type="curve"/>
      <point x="601.4392857142857" y="1322.2589285714287" type="line" smooth="yes"/>
      <point x="601.1232142857143" y="1042.4419642857142"/>
      <point x="578.2647321428572" y="1015.625"/>
      <point x="459.51785714285717" y="1015.625" type="curve" smooth="yes"/>
    </contour>
  </outline>
</glyph>
<glyph name="C" format="2">
  <advance width="895.6785714285714"/>
  <unicode hex="0043"/>
  <anchor x="447.8392857142857" y="0.0" name="bottom"/>
  <anchor x="447.8392857142857" y="1760.0" name="top"/>
  <outline>
    <contour>
      <point x="460.17857142857144" y="-20.553571428571427" type="curve" smooth="yes"/>
      <point x="720.0535714285714" y="-20.553571428571427"/>
      <point x="783.7678571428571" y="173.03571428571428"/>
      <point x="783.7678571428571" y="532.625" type="curve" smooth="yes"/>
      <point x="783.7678571428571" y="701.9642857142857" type="line"/>
      <point x="603.3214285714286" y="701.9642857142857" type="line"/>
      <point x="603.3214285714286" y="531.0714285714286" type="line" smooth="yes"/>
      <point x="603.3214285714286" y="245.16071428571428"/>
      <point x="579.7678571428571" y="131.33928571428572"/>
      <point x="460.2857142857143" y="131.33928571428572" type="curve" smooth="yes"/>
      <point x="336.4642857142857" y="131.33928571428572"/>
      <point x="310.4642857142857" y="243.60714285714286"/>
      <point x="310.4642857142857" y="530.9642857142857" type="curve" smooth="yes"/>
      <point x="310.4642857142857" y="1267.9642857142858" type="line" smooth="yes"/>
      <point x="310.4642857142857" y="1502.2857142857142"/>
      <point x="342.69642857142856" y="1627.0"/>
      <point x="466.2857142857143" y="1627.0" type="curve" smooth="yes"/>
      <point x="584.2142857142857" y="1627.0"/>
      <point x="603.3214285714286" y="1504.7142857142858"/>
      <point x="603.3214285714286" y="1266.9642857142858" type="curve" smooth="yes"/>
      <point x="603.3214285714286" y="1082.5714285714287" type="line"/>
      <point x="783.1071428571429" y="1082.5714285714287" type="line"/>
      <point x="783.1071428571429" y="1258.375" type="line" smooth="yes"/>
      <point x="783.1071428571429" y="1559.9464285714287"/>
      <point x="746.1964285714286" y="1780.7857142857142"/>
      <point x="466.73214285714283" y="1780.7857142857142" type="curve" smooth="yes"/>
      <point x="182.85714285714286" y="1780.7857142857142"/>
      <point x="129.35714285714286" y="1556.642857142857"/>
      <point x="129.35714285714286" y="1251.5535714285713" type="curve" smooth="yes"/>
      <point x="129.35714285714286" y="532.8392857142857" type="line" smooth="yes"/>
      <point x="129.35714285714286" y="175.57142857142858"/>
      <point x="202.73214285714286" y="-20.553571428571427"/>
    </contour>
  </outline>
</glyph>
<glyph name="D" format="2">
  <advance width="936.1428571428571"/>
  <unicode hex="0044"/>
  <anchor x="468.07142857142856" y="0.0" name="bottom"/>
  <anchor x="278.07142857142856" y="880.0" name="center"/>
  <anchor x="432.5357142857143" y="1760.0" name="top"/>
  <outline>
    <contour>
      <point x="153.82142857142858" y="0.0" type="line"/>
      <point x="451.48214285714283" y="0.0" type="line" smooth="yes"/>
      <point x="711.4642857142857" y="0.0"/>
      <point x="806.7857142857143" y="145.75"/>
      <point x="806.7857142857143" y="506.76785714285717" type="curve" smooth="yes"/>
      <point x="806.2321428571429" y="1271.2857142857142" type="line" smooth="yes"/>
      <point x="806.2321428571429" y="1572.3035714285713"/>
      <point x="738.0535714285714" y="1760.0"/>
      <point x="458.0357142857143" y="1760.0" type="curve" smooth="yes"/>
      <point x="153.82142857142858" y="1760.0" type="line"/>
    </contour>
    <contour>
      <point x="333.92857142857144" y="149.58928571428572" type="line"/>
      <point x="333.92857142857144" y="1613.857142857143" type="line"/>
      <point x="451.5357142857143" y="1613.857142857143" type="line" smooth="yes"/>
      <point x="572.2142857142857" y="1613.857142857143"/>
      <point x="625.6785714285714" y="1519.607142857143"/>
      <point x="625.6785714285714" y="1281.1964285714287" type="curve" smooth="yes"/>
      <point x="625.6785714285714" y="495.75" type="line" smooth="yes"/>
      <point x="625.6785714285714" y="210.05357142857142"/>
      <point x="567.1071428571429" y="149.58928571428572"/>
      <point x="447.51785714285717" y="149.58928571428572" type="curve" smooth="yes"/>
    </contour>
  </outline>
</glyph>
<glyph name="E" format="2">
  <advance width="737.5892857142857"/>
  <unicode hex="0045"/>
  <anchor x="369.07142857142856" y="0.0" name="bottom"/>
  <anchor x="572.3928571428571" y="0.0" name="ogonek"/>
  <anchor x="401.32142857142856" y="1760.0" name="top"/>
  <anchor x="20.0" y="1760.0" name="topleft"/>
  <outline>
    <contour>
      <point x="153.82142857142858" y="0.0" type="line"/>
      <point x="653.4642857142857" y="0.0" type="line"/>
      <point x="653.4642857142857" y="147.89285714285714" type="line"/>
      <point x="334.92857142857144" y="147.89285714285714" type="line"/>
      <point x="334.92857142857144" y="823.375" type="line"/>
      <point x="634.6964285714286" y="823.375" type="line"/>
      <point x="634.6964285714286" y="972.6071428571429" type="line"/>
      <point x="334.92857142857144" y="972.6071428571429" type="line"/>
      <point x="334.92857142857144" y="1613.0" type="line"/>
      <point x="652.5892857142857" y="1613.0" type="line"/>
      <point x="652.5892857142857" y="1760.0" type="line"/>
      <point x="153.82142857142858" y="1760.0" type="line"/>
    </contour>
  </outline>
</glyph>
<glyph name="F" format="2">
  <advance width="723.7857142857143"/>
  <unicode hex="0046"/>
  <anchor x="362.39285714285717" y="0.0" name="bottom"/>
  <anchor x="406.85714285714283" y="1760.0" name="top"/>
  <outline>
    <contour>
      <point x="153.82142857142858" y="0.0" type="line"/>
      <point x="333.92857142857144" y="0.0" type="line"/>
      <point x="333.92857142857144" y="869.3928571428571" type="line"/>
      <point x="634.8035714285714" y="869.3928571428571" type="line"/>
      <point x="634.8035714285714" y="1019.3928571428571" type="line"/>
      <point x="333.92857142857144" y="1019.3928571428571" type="line"/>
      <point x="333.92857142857144" y="1612.4464285714287" type="line"/>
      <point x="653.4642857142857" y="1612.4464285714287" type="line"/>
      <point x="653.4642857142857" y="1760.0" type="line"/>
      <point x="153.82142857142858" y="1760.0" type="line"/>
    </contour>
  </outline>
</glyph>
<glyph name="G" format="2">
  <advance width="917.125"/>
  <unicode hex="0047"/>
  <anchor x="458.8392857142857" y="0.0" name="bottom"/>
  <anchor x="458.8392857142857" y="1760.0" name="top"/>
  <outline>
    <contour>
      <point x="431.17857142857144" y="-18.339285714285715" type="curve" smooth="yes"/>
      <point x="543.5" y="-18.339285714285715"/>
      <point x="615.6785714285714" y="30.75"/>
      <point x="657.6964285714286" y="120.82142857142857" type="curve"/>
      <point x="680.3392857142857" y="0.0" type="line"/>
      <point x="784.4285714285714" y="0.0" type="line"/>
      <point x="784.4285714285714" y="908.8214285714286" type="line"/>
      <point x="466.60714285714283" y="908.8214285714286" type="line"/>
      <point x="466.60714285714283" y="763.5535714285714" type="line"/>
      <point x="613.1785714285714" y="763.5535714285714" type="line"/>
      <point x="613.1785714285714" y="537.6785714285714" type="line" smooth="yes"/>
      <point x="613.1785714285714" y="245.375"/>
      <point x="581.9642857142857" y="131.33928571428572"/>
      <point x="462.1607142857143" y="131.33928571428572" type="curve" smooth="yes"/>
      <point x="336.35714285714283" y="131.33928571428572"/>
      <point x="310.4642857142857" y="244.92857142857142"/>
      <point x="310.4642857142857" y="536.3571428571429" type="curve" smooth="yes"/>
      <point x="310.4642857142857" y="1266.5357142857142" type="line" smooth="yes"/>
      <point x="310.4642857142857" y="1532.1785714285713"/>
      <point x="348.80357142857144" y="1627.0"/>
      <point x="468.1607142857143" y="1627.0" type="curve" smooth="yes"/>
      <point x="581.3035714285714" y="1627.0"/>
      <point x="605.8571428571429" y="1536.732142857143"/>
      <point x="605.8571428571429" y="1360.375" type="curve" smooth="yes"/>
      <point x="605.8571428571429" y="1112.1785714285713" type="line"/>
      <point x="784.4285714285714" y="1112.1785714285713" type="line"/>
      <point x="784.4285714285714" y="1253.0892857142858" type="line" smooth="yes"/>
      <point x="784.4285714285714" y="1558.625"/>
      <point x="755.25" y="1780.7857142857142"/>
      <point x="470.39285714285717" y="1780.7857142857142" type="curve" smooth="yes"/>
      <point x="187.83928571428572" y="1780.7857142857142"/>
      <point x="129.35714285714286" y="1559.2857142857142"/>
      <point x="129.35714285714286" y="1254.4107142857142" type="curve" smooth="yes"/>
      <point x="129.35714285714286" y="527.5714285714286" type="line" smooth="yes"/>
      <point x="129.35714285714286" y="139.0"/>
      <point x="230.75" y="-18.339285714285715"/>
    </contour>
  </outline>
</glyph>
<glyph name="H" format="2">
  <advance width="969.7142857142857"/>
  <unicode hex="0048"/>
  <anchor x="484.85714285714283" y="0.0" name="bottom"/>
  <anchor x="484.85714285714283" y="880.0" name="center"/>
  <anchor x="484.85714285714283" y="1760.0" name="top"/>
  <anchor x="20.0" y="1760.0" name="topleft"/>
  <outline>
    <contour>
      <point x="153.82142857142858" y="0.0" type="line"/>
      <point x="334.92857142857144" y="0.0" type="line"/>
      <point x="334.92857142857144" y="859.4285714285714" type="line"/>
      <point x="634.7857142857143" y="859.4285714285714" type="line"/>
      <point x="634.7857142857143" y="0.0" type="line"/>
      <point x="815.8928571428571" y="0.0" type="line"/>
      <point x="815.8928571428571" y="1760.0" type="line"/>
      <point x="634.7857142857143" y="1760.0" type="line"/>
      <point x="634.7857142857143" y="1002.9821428571429" type="line"/>
      <point x="334.92857142857144" y="1002.9821428571429" type="line"/>
      <point x="334.92857142857144" y="1760.0" type="line"/>
      <point x="153.82142857142858" y="1760.0" type="line"/>
    </contour>
  </outline>
</glyph>
<glyph name="I" format="2">
  <advance width="490.5357142857143"/>
  <unicode hex="0049"/>
  <anchor x="245.76785714285714" y="0.0" name="bottom"/>
  <anchor x="259.2142857142857" y="0.0" name="ogonek"/>
  <anchor x="245.76785714285714" y="1760.0" name="top"/>
  <anchor x="20.0" y="1760.0" name="topleft"/>
  <outline>
    <contour>
      <point x="154.71428571428572" y="0.0" type="line"/>
      <point x="335.82142857142856" y="0.0" type="line"/>
      <point x="335.82142857142856" y="1760.0" type="line"/>
      <point x="154.71428571428572" y="1760.0" type="line"/>
    </contour>
  </outline>
</glyph>
<glyph name="J" format="2">
  <advance width="834.9285714285714"/>
  <unicode hex="004A"/>
  <anchor x="417.4642857142857" y="0.0" name="bottom"/>
  <anchor x="588.5357142857143" y="1760.0" name="top"/>
  <outline>
    <contour>
      <point x="389.23214285714283" y="-20.553571428571427" type="curve" smooth="yes"/>
      <point x="593.0892857142857" y="-20.553571428571427"/>
      <point x="683.1428571428571" y="124.64285714285714"/>
      <point x="683.1428571428571" y="423.32142857142856" type="curve" smooth="yes"/>
      <point x="683.1428571428571" y="1760.0" type="line"/>
      <point x="502.0357142857143" y="1760.0" type="line"/>
      <point x="502.0357142857143" y="418.0" type="line" smooth="yes"/>
      <point x="502.0357142857143" y="248.94642857142858"/>
      <point x="503.05357142857144" y="131.33928571428572"/>
      <point x="383.23214285714283" y="131.33928571428572" type="curve" smooth="yes"/>
      <point x="264.30357142857144" y="131.33928571428572"/>
      <point x="263.875" y="255.94642857142858"/>
      <point x="263.875" y="402.0" type="curve" smooth="yes"/>
      <point x="263.875" y="583.7321428571429" type="line"/>
      <point x="84.64285714285714" y="583.7321428571429" type="line"/>
      <point x="84.64285714285714" y="389.0" type="line" smooth="yes"/>
      <point x="84.64285714285714" y="113.66071428571429"/>
      <point x="168.91071428571428" y="-20.553571428571427"/>
    </contour>
  </outline>
</glyph>
<glyph name="K" format="2">
  <advance width="884.4464285714286"/>
  <unicode hex="004B"/>
  <anchor x="482.5" y="0.0" name="bottom"/>
  <anchor x="482.5" y="1760.0" name="top"/>
  <outline>
    <contour>
      <point x="153.82142857142858" y="0.0" type="line"/>
      <point x="336.92857142857144" y="0.0" type="line"/>
      <point x="336.92857142857144" y="850.0357142857143" type="line"/>
      <point x="680.7857142857143" y="0.0" type="line"/>
      <point x="869.1071428571429" y="0.0" type="line"/>
      <point x="502.92857142857144" y="891.0" type="line"/>
      <point x="846.1071428571429" y="1760.0" type="line"/>
      <point x="666.6785714285714" y="1760.0" type="line"/>
      <point x="334.92857142857144" y="908.5" type="line"/>
      <point x="334.92857142857144" y="1760.0" type="line"/>
      <point x="153.82142857142858" y="1760.0" type="line"/>
    </contour>
  </outline>
</glyph>
<glyph name="L" format="2">
  <advance width="671.7857142857143"/>
  <unicode hex="004C"/>
  <anchor x="334.375" y="1760.0" name="#exit"/>
  <anchor x="390.85714285714283" y="0.0" name="bottom"/>
  <anchor x="336.39285714285717" y="880.0" name="center"/>
  <anchor x="255.32142857142858" y="1760.0" name="top"/>
  <anchor x="651.7857142857143" y="1760.0" name="topright"/>
  <outline>
    <contour>
      <point x="153.82142857142858" y="0.0" type="line"/>
      <point x="654.125" y="0.0" type="line"/>
      <point x="654.125" y="147.33928571428572" type="line"/>
      <point x="334.92857142857144" y="147.33928571428572" type="line"/>
      <point x="334.92857142857144" y="1760.0" type="line"/>
      <point x="153.82142857142858" y="1760.0" type="line"/>
    </contour>
  </outline>
</glyph>
<glyph name="M" format="2">
  <advance width="1254.9285714285713"/>
  <unicode hex="004D"/>
  <anchor x="627.4642857142857" y="0.0" name="bottom"/>
  <anchor x="627.4642857142857" y="1760.0" name="top"/>
  <outline>
    <contour>
      <point x="153.82142857142858" y="0.0" type="line"/>
      <point x="311.9642857142857" y="0.0" type="line"/>
      <point x="311.9642857142857" y="705.2857142857143" type="line"/>
      <point x="292.2857142857143" y="1386.0535714285713" type="line"/>
      <point x="561.1428571428571" y="16.964285714285715" type="line"/>
      <point x="706.4642857142857" y="16.964285714285715" type="line"/>
      <point x="965.2142857142857" y="1386.0535714285713" type="line"/>
      <point x="945.5357142857143" y="705.2857142857143" type="line"/>
      <point x="945.5357142857143" y="0.0" type="line"/>
      <point x="1103.7857142857142" y="0.0" type="line"/>
      <point x="1103.7857142857142" y="1760.0" type="line"/>
      <point x="896.9285714285714" y="1760.0" type="line"/>
      <point x="634.3571428571429" y="321.30357142857144" type="line"/>
      <point x="360.125" y="1760.0" type="line"/>
      <point x="153.82142857142858" y="1760.0" type="line"/>
    </contour>
  </outline>
</glyph>
<glyph name="N" format="2">
  <advance width="1000.1607142857143"/>
  <unicode hex="004E"/>
  <anchor x="500.30357142857144" y="0.0" name="bottom"/>
  <anchor x="500.30357142857144" y="1760.0" name="top"/>
  <outline>
    <contour>
      <point x="153.82142857142858" y="0.0" type="line"/>
      <point x="322.05357142857144" y="0.0" type="line"/>
      <point x="322.05357142857144" y="802.3928571428571" type="line"/>
      <point x="310.94642857142856" y="1260.6785714285713" type="line"/>
      <point x="710.4107142857143" y="0.0" type="line"/>
      <point x="846.3392857142857" y="0.0" type="line"/>
      <point x="846.3392857142857" y="1760.0" type="line"/>
      <point x="687.0" y="1760.0" type="line"/>
      <point x="687.0" y="1041.5357142857142" type="line"/>
      <point x="705.3214285714286" y="489.23214285714283" type="line"/>
      <point x="286.60714285714283" y="1760.0" type="line"/>
      <point x="153.82142857142858" y="1760.0" type="line"/>
    </contour>
  </outline>
</glyph>
<glyph name="P" format="2">
  <advance width="873.0178571428571"/>
  <unicode hex="0050"/>
  <anchor x="436.73214285714283" y="0.0" name="bottom"/>
  <anchor x="436.73214285714283" y="1760.0" name="top"/>
  <outline>
    <contour>
      <point x="153.82142857142858" y="0.0" type="line"/>
      <point x="334.92857142857144" y="0.0" type="line"/>
      <point x="334.92857142857144" y="690.1071428571429" type="line"/>
      <point x="482.375" y="690.1071428571429" type="line" smooth="yes"/>
      <point x="742.9107142857143" y="690.1071428571429"/>
      <point x="806.2321428571429" y="869.0892857142857"/>
      <point x="806.2321428571429" y="1229.892857142857" type="curve"/>
      <point x="806.2321428571429" y="1252.875" type="line"/>
      <point x="806.2321428571429" y="1557.9642857142858"/>
      <point x="768.2857142857143" y="1760.0"/>
      <point x="486.39285714285717" y="1760.0" type="curve" smooth="yes"/>
      <point x="153.82142857142858" y="1760.0" type="line"/>
    </contour>
    <contour>
      <point x="334.92857142857144" y="841.5714285714286" type="line"/>
      <point x="334.92857142857144" y="1613.857142857143" type="line"/>
      <point x="481.10714285714283" y="1613.857142857143" type="line" smooth="yes"/>
      <point x="601.7857142857143" y="1613.857142857143"/>
      <point x="625.6785714285714" y="1502.8392857142858"/>
      <point x="625.2321428571429" y="1263.0" type="curve" smooth="yes"/>
      <point x="625.2321428571429" y="1229.0" type="line" smooth="yes"/>
      <point x="625.2321428571429" y="937.1428571428571"/>
      <point x="597.5535714285714" y="841.5714285714286"/>
      <point x="475.2142857142857" y="841.5714285714286" type="curve" smooth="yes"/>
    </contour>
  </outline>
</glyph>
<glyph name="Q" format="2">
  <advance width="920.3392857142857"/>
  <unicode hex="0051"/>
  <anchor x="460.39285714285717" y="0.0" name="bottom"/>
  <anchor x="460.39285714285717" y="880.0" name="center"/>
  <anchor x="828.5714285714286" y="10.0" name="ogonek"/>
  <anchor x="460.39285714285717" y="1760.0" name="top"/>
  <anchor x="20.0" y="1760.0" name="topleft"/>
  <anchor x="900.3392857142857" y="1760.0" name="topright"/>
  <outline>
    <contour>
      <point x="646.9107142857143" y="-322.57142857142856" type="line"/>
      <point x="747.125" y="-247.875" type="line"/>
      <point x="546.2321428571429" y="43.05357142857143" type="line"/>
      <point x="420.625" y="-13.678571428571429" type="line"/>
    </contour>
    <contour>
      <point x="461.94642857142856" y="-20.0" type="curve" smooth="yes"/>
      <point x="721.9285714285714" y="-20.0"/>
      <point x="790.9821428571429" y="152.10714285714286"/>
      <point x="790.9821428571429" y="511.80357142857144" type="curve" smooth="yes"/>
      <point x="790.9821428571429" y="1275.75" type="line" smooth="yes"/>
      <point x="790.9821428571429" y="1578.75"/>
      <point x="749.8392857142857" y="1782.4464285714287"/>
      <point x="467.8392857142857" y="1782.4464285714287" type="curve" smooth="yes"/>
      <point x="185.83928571428572" y="1782.4464285714287"/>
      <point x="129.35714285714286" y="1578.75"/>
      <point x="129.35714285714286" y="1275.75" type="curve" smooth="yes"/>
      <point x="129.35714285714286" y="511.80357142857144" type="line" smooth="yes"/>
      <point x="129.35714285714286" y="152.10714285714286"/>
      <point x="201.96428571428572" y="-20.0"/>
    </contour>
    <contour>
      <point x="461.94642857142856" y="133.0" type="curve" smooth="yes"/>
      <point x="336.69642857142856" y="133.0"/>
      <point x="310.4642857142857" y="222.57142857142856"/>
      <point x="310.4642857142857" y="510.69642857142856" type="curve" smooth="yes"/>
      <point x="310.4642857142857" y="1288.75" type="line" smooth="yes"/>
      <point x="310.4642857142857" y="1522.517857142857"/>
      <point x="343.80357142857144" y="1628.107142857143"/>
      <point x="467.8392857142857" y="1628.107142857143" type="curve" smooth="yes"/>
      <point x="586.5357142857143" y="1628.107142857143"/>
      <point x="609.875" y="1522.857142857143"/>
      <point x="609.875" y="1287.75" type="curve" smooth="yes"/>
      <point x="609.875" y="510.69642857142856" type="line" smooth="yes"/>
      <point x="609.875" y="223.67857142857142"/>
      <point x="582.1964285714286" y="133.0"/>
    </contour>
  </outline>
</glyph>
<glyph name="R" format="2">
  <advance width="921.1428571428571"/>
  <unicode hex="0052"/>
  <anchor x="461.07142857142856" y="0.0" name="bottom"/>
  <anchor x="461.07142857142856" y="1760.0" name="top"/>
  <outline>
    <contour>
      <point x="153.82142857142858" y="0.0" type="line"/>
      <point x="334.92857142857144" y="0.0" type="line"/>
      <point x="334.92857142857144" y="858.0357142857143" type="line"/>
      <point x="473.55357142857144" y="849.6964285714286" type="line" smooth="yes"/>
      <point x="620.8214285714286" y="840.8035714285714"/>
      <point x="625.6785714285714" y="795.2321428571429"/>
      <point x="625.6785714285714" y="576.9285714285714" type="curve" smooth="yes"/>
      <point x="625.6785714285714" y="173.33928571428572"/>
      <point x="626.6785714285714" y="34.910714285714285"/>
      <point x="644.3571428571429" y="0.0" type="curve"/>
      <point x="824.4642857142857" y="0.0" type="line"/>
      <point x="805.7857142857143" y="49.142857142857146"/>
      <point x="805.7857142857143" y="172.01785714285714"/>
      <point x="805.7857142857143" y="239.83928571428572" type="curve" smooth="yes"/>
      <point x="805.7857142857143" y="770.0892857142857"/>
      <point x="776.3571428571429" y="904.6607142857143"/>
      <point x="644.2321428571429" y="926.6607142857143" type="curve"/>
      <point x="768.8928571428571" y="962.3214285714286"/>
      <point x="805.6785714285714" y="1096.6785714285713"/>
      <point x="805.6785714285714" y="1317.6964285714287" type="curve" smooth="yes"/>
      <point x="805.6785714285714" y="1620.0357142857142"/>
      <point x="772.3571428571429" y="1760.0"/>
      <point x="491.57142857142856" y="1760.0" type="curve" smooth="yes"/>
      <point x="153.82142857142858" y="1760.0" type="line"/>
    </contour>
    <contour>
      <point x="334.48214285714283" y="986.8214285714286" type="line"/>
      <point x="334.48214285714283" y="1613.857142857143" type="line"/>
      <point x="481.0" y="1613.857142857143" type="line" smooth="yes"/>
      <point x="602.4464285714286" y="1613.857142857143"/>
      <point x="625.6785714285714" y="1571.3035714285713"/>
      <point x="625.6785714285714" y="1331.6785714285713" type="curve" smooth="yes"/>
      <point x="625.6785714285714" y="1319.232142857143" type="line" smooth="yes"/>
      <point x="625.6785714285714" y="1028.142857142857"/>
      <point x="597.4464285714286" y="986.8214285714286"/>
      <point x="477.19642857142856" y="986.8214285714286" type="curve" smooth="yes"/>
    </contour>
  </outline>
</glyph>
<glyph name="S" format="2">
  <advance width="812.8214285714286"/>
  <unicode hex="0053"/>
  <anchor x="406.4107142857143" y="0.0" name="bottom"/>
  <anchor x="406.4107142857143" y="1760.0" name="top"/>
  <outline>
    <contour>
      <point x="420.4107142857143" y="-20.0" type="curve" smooth="yes"/>
      <point x="688.7321428571429" y="-20.0"/>
      <point x="747.8035714285714" y="161.46428571428572"/>
      <point x="747.8035714285714" y="443.19642857142856" type="curve" smooth="yes"/>
      <point x="747.8035714285714" y="666.3392857142857"/>
      <point x="662.2678571428571" y="819.4285714285714"/>
      <point x="533.1428571428571" y="950.9821428571429" type="curve" smooth="yes"/>
      <point x="423.4107142857143" y="1064.142857142857" type="line"/>
      <point x="315.26785714285717" y="1173.607142857143"/>
      <point x="261.0357142857143" y="1219.1607142857142"/>
      <point x="261.0357142857143" y="1372.6607142857142" type="curve" smooth="yes"/>
      <point x="261.0357142857143" y="1566.142857142857"/>
      <point x="304.1607142857143" y="1628.6607142857142"/>
      <point x="412.30357142857144" y="1628.6607142857142" type="curve" smooth="yes"/>
      <point x="526.6607142857143" y="1628.6607142857142"/>
      <point x="551.4821428571429" y="1531.7142857142858"/>
      <point x="551.4821428571429" y="1269.607142857143" type="curve" smooth="yes"/>
      <point x="551.4821428571429" y="1155.1785714285713" type="line"/>
      <point x="720.4642857142857" y="1155.1785714285713" type="line"/>
      <point x="720.4642857142857" y="1256.9464285714287" type="line" smooth="yes"/>
      <point x="720.4642857142857" y="1560.5"/>
      <point x="698.75" y="1782.4464285714287"/>
      <point x="411.4107142857143" y="1782.4464285714287" type="curve" smooth="yes"/>
      <point x="141.53571428571428" y="1782.4464285714287"/>
      <point x="84.35714285714286" y="1607.3035714285713"/>
      <point x="84.35714285714286" y="1347.6607142857142" type="curve" smooth="yes"/>
      <point x="84.35714285714286" y="1147.875"/>
      <point x="201.83928571428572" y="1021.875"/>
      <point x="300.05357142857144" y="926.6785714285714" type="curve" smooth="yes"/>
      <point x="410.14285714285717" y="820.1607142857143" type="line" smooth="yes"/>
      <point x="518.6071428571429" y="715.7142857142857"/>
      <point x="567.5714285714286" y="614.7321428571429"/>
      <point x="567.5714285714286" y="447.01785714285717" type="curve" smooth="yes"/>
      <point x="567.5714285714286" y="222.26785714285714"/>
      <point x="557.8035714285714" y="132.44642857142856"/>
      <point x="425.5357142857143" y="132.44642857142856" type="curve" smooth="yes"/>
      <point x="298.7142857142857" y="132.44642857142856"/>
      <point x="272.0357142857143" y="240.60714285714286"/>
      <point x="272.0357142857143" y="512.1607142857143" type="curve" smooth="yes"/>
      <point x="272.0357142857143" y="691.1607142857143" type="line"/>
      <point x="95.58928571428571" y="691.1607142857143" type="line"/>
      <point x="95.58928571428571" y="515.25" type="line" smooth="yes"/>
      <point x="95.58928571428571" y="209.60714285714286"/>
      <point x="137.08928571428572" y="-20.0"/>
    </contour>
  </outline>
</glyph>
<glyph name="T" format="2">
  <advance width="590.1607142857143"/>
  <unicode hex="0054"/>
  <anchor x="295.35714285714283" y="0.0" name="bottom"/>
  <anchor x="295.35714285714283" y="880.0" name="center"/>
  <anchor x="295.35714285714283" y="1760.0" name="top"/>
  <outline>
    <contour>
      <point x="213.08928571428572" y="0.0" type="line"/>
      <point x="393.19642857142856" y="0.0" type="line"/>
      <point x="393.19642857142856" y="1613.0" type="line"/>
      <point x="567.0535714285714" y="1613.0" type="line"/>
      <point x="567.0535714285714" y="1760.0" type="line"/>
      <point x="23.553571428571427" y="1760.0" type="line"/>
      <point x="23.553571428571427" y="1613.0" type="line"/>
      <point x="213.08928571428572" y="1613.0" type="line"/>
    </contour>
  </outline>
</glyph>
<glyph name="U" format="2">
  <advance width="936.5892857142857"/>
  <unicode hex="0055"/>
  <anchor x="468.51785714285717" y="0.0" name="bottom"/>
  <anchor x="542.2857142857143" y="0.0" name="ogonek"/>
  <anchor x="468.51785714285717" y="1760.0" name="top"/>
  <anchor x="916.5892857142857" y="1760.0" name="topright"/>
  <outline>
    <contour>
      <point x="470.07142857142856" y="-20.553571428571427" type="curve" smooth="yes"/>
      <point x="725.7142857142857" y="-20.553571428571427"/>
      <point x="799.1071428571429" y="132.0"/>
      <point x="799.1071428571429" y="452.0" type="curve" smooth="yes"/>
      <point x="799.1071428571429" y="1760.0" type="line"/>
      <point x="618.5535714285714" y="1760.0" type="line"/>
      <point x="618.5535714285714" y="456.0" type="line" smooth="yes"/>
      <point x="618.5535714285714" y="248.58928571428572"/>
      <point x="616.8928571428571" y="130.78571428571428"/>
      <point x="470.51785714285717" y="130.78571428571428" type="curve" smooth="yes"/>
      <point x="325.14285714285717" y="130.78571428571428"/>
      <point x="319.14285714285717" y="249.58928571428572"/>
      <point x="319.14285714285717" y="457.0" type="curve" smooth="yes"/>
      <point x="319.14285714285717" y="1760.0" type="line"/>
      <point x="138.03571428571428" y="1760.0" type="line"/>
      <point x="138.03571428571428" y="452.0" type="line" smooth="yes"/>
      <point x="138.03571428571428" y="132.0"/>
      <point x="214.42857142857142" y="-20.553571428571427"/>
    </contour>
  </outline>
</glyph>
<glyph name="V" format="2">
  <advance width="866.4821428571429"/>
  <unicode hex="0056"/>
  <anchor x="433.51785714285717" y="0.0" name="bottom"/>
  <anchor x="433.51785714285717" y="1760.0" name="top"/>
  <outline>
    <contour>
      <point x="345.60714285714283" y="0.0" type="line"/>
      <point x="548.2142857142857" y="0.0" type="line"/>
      <point x="822.8035714285714" y="1760.0" type="line"/>
      <point x="651.0178571428571" y="1760.0" type="line"/>
      <point x="547.3392857142857" y="1035.982142857143" type="line"/>
      <point x="449.17857142857144" y="341.25" type="line"/>
      <point x="446.51785714285717" y="341.25" type="line"/>
      <point x="334.9107142857143" y="1035.982142857143" type="line"/>
      <point x="216.57142857142856" y="1760.0" type="line"/>
      <point x="43.67857142857143" y="1760.0" type="line"/>
    </contour>
  </outline>
</glyph>
<glyph name="W" format="2">
  <advance width="1327.5"/>
  <unicode hex="0057"/>
  <anchor x="663.75" y="0.0" name="bottom"/>
  <anchor x="663.75" y="1760.0" name="top"/>
  <outline>
    <contour>
      <point x="294.92857142857144" y="0.0" type="line"/>
      <point x="466.80357142857144" y="0.0" type="line"/>
      <point x="681.4285714285714" y="1365.517857142857" type="line"/>
      <point x="882.8214285714286" y="0.0" type="line"/>
      <point x="1061.9285714285713" y="0.0" type="line"/>
      <point x="1272.1607142857142" y="1760.0" type="line"/>
      <point x="1104.0357142857142" y="1760.0" type="line"/>
      <point x="967.6607142857143" y="371.2678571428571" type="line"/>
      <point x="749.2678571428571" y="1760.0" type="line"/>
      <point x="600.3571428571429" y="1760.0" type="line"/>
      <point x="391.42857142857144" y="371.2678571428571" type="line"/>
      <point x="226.25" y="1760.0" type="line"/>
      <point x="55.339285714285715" y="1760.0" type="line"/>
    </contour>
  </outline>
</glyph>
<glyph name="X" format="2">
  <advance width="757.6071428571429"/>
  <unicode hex="0058"/>
  <anchor x="378.80357142857144" y="0.0" name="bottom"/>
  <anchor x="378.80357142857144" y="1760.0" name="top"/>
  <outline>
    <contour>
      <point x="48.125" y="0.0" type="line"/>
      <point x="208.10714285714286" y="0.0" type="line"/>
      <point x="371.9107142857143" y="640.1428571428571" type="line"/>
      <point x="549.5714285714286" y="0.0" type="line"/>
      <point x="708.5892857142857" y="0.0" type="line"/>
      <point x="471.32142857142856" y="855.2142857142857" type="line"/>
      <point x="705.5" y="1760.0" type="line"/>
      <point x="547.1785714285714" y="1760.0" type="line"/>
      <point x="391.26785714285717" y="1141.4107142857142" type="line"/>
      <point x="220.60714285714286" y="1760.0" type="line"/>
      <point x="59.25" y="1760.0" type="line"/>
      <point x="291.64285714285717" y="926.1964285714286" type="line"/>
    </contour>
  </outline>
</glyph>
<glyph name="Y" format="2">
  <advance width="808.6964285714286"/>
  <unicode hex="0059"/>
  <anchor x="404.625" y="0.0" name="bottom"/>
  <anchor x="404.625" y="1760.0" name="top"/>
  <anchor x="20.0" y="1760.0" name="topleft"/>
  <outline>
    <contour>
      <point x="326.80357142857144" y="0.0" type="line"/>
      <point x="507.9107142857143" y="0.0" type="line"/>
      <point x="507.9107142857143" y="754.1785714285714" type="line"/>
      <point x="793.25" y="1760.0" type="line"/>
      <point x="609.9107142857143" y="1760.0" type="line"/>
      <point x="419.9642857142857" y="1016.875" type="line"/>
      <point x="416.4107142857143" y="1016.875" type="line"/>
      <point x="195.89285714285714" y="1760.0" type="line"/>
      <point x="15.446428571428571" y="1760.0" type="line"/>
      <point x="326.80357142857144" y="753.7321428571429" type="line"/>
    </contour>
  </outline>
</glyph>
<glyph name="Z" format="2">
  <advance width="666.7857142857143"/>
  <unicode hex="005A"/>
  <anchor x="333.39285714285717" y="0.0" name="bottom"/>
  <anchor x="333.39285714285717" y="880.0" name="center"/>
  <anchor x="333.39285714285717" y="1760.0" name="top"/>
  <outline>
    <contour>
      <point x="76.14285714285714" y="0.0" type="line"/>
      <point x="607.6428571428571" y="0.0" type="line"/>
      <point x="607.6428571428571" y="147.89285714285714" type="line"/>
      <point x="261.57142857142856" y="147.89285714285714" type="line"/>
      <point x="614.75" y="1627.0" type="line"/>
      <point x="614.75" y="1760.0" type="line"/>
      <point x="98.42857142857143" y="1760.0" type="line"/>
      <point x="98.42857142857143" y="1613.0" type="line"/>
      <point x="428.42857142857144" y="1613.0" type="line"/>
      <point x="76.14285714285714" y="154.89285714285714" type="line"/>
    </contour>
  </outline>
</glyph>
<glyph name="bracketleft" format="2">
  <advance width="610.5892857142857"/>
  <unicode hex="005B"/>
  <outline>
    <contour>
      <point x="153.82142857142858" y="-102.14285714285714" type="line"/>
      <point x="545.6071428571429" y="-102.14285714285714" type="line"/>
      <point x="545.6071428571429" y="37.767857142857146" type="line"/>
      <point x="334.375" y="37.767857142857146" type="line"/>
      <point x="334.375" y="1621.0892857142858" type="line"/>
      <point x="545.6071428571429" y="1621.0892857142858" type="line"/>
      <point x="545.6071428571429" y="1760.0" type="line"/>
      <point x="153.82142857142858" y="1760.0" type="line"/>
    </contour>
  </outline>
</glyph>
<glyph name="backslash" format="2">
  <advance width="731.5357142857143"/>
  <unicode hex="005C"/>
  <outline>
    <contour>
      <point x="492.82142857142856" y="0.0" type="line"/>
      <point x="649.7142857142857" y="0.0" type="line"/>
      <point x="239.71428571428572" y="1760.0" type="line"/>
      <point x="81.82142857142857" y="1760.0" type="line"/>
    </contour>
  </outline>
</glyph>
<glyph name="asciicircum" format="2">
  <advance width="942.6607142857143"/>
  <unicode hex="005E"/>
  <outline>
    <contour>
      <point x="112.10714285714286" y="837.0" type="line"/>
      <point x="291.3392857142857" y="837.0" type="line"/>
      <point x="472.05357142857144" y="1621.4285714285713" type="line"/>
      <point x="652.7678571428571" y="837.0" type="line"/>
      <point x="830.5535714285714" y="837.0" type="line"/>
      <point x="589.5535714285714" y="1760.0" type="line"/>
      <point x="353.10714285714283" y="1760.0" type="line"/>
    </contour>
  </outline>
</glyph>
<glyph name="a" format="2">
  <advance width="876.1071428571429"/>
  <unicode hex="0061"/>
  <anchor x="438.05357142857144" y="0.0" name="bottom"/>
  <anchor x="677.5" y="0.0" name="ogonek"/>
  <anchor x="438.05357142857144" y="1500.0" name="top"/>
  <outline>
    <contour>
      <point x="368.2142857142857" y="-12.107142857142858" type="curve" smooth="yes"/>
      <point x="487.89285714285717" y="-12.107142857142858"/>
      <point x="553.7678571428571" y="71.67857142857143"/>
      <point x="569.0892857142857" y="121.96428571428571" type="curve"/>
      <point x="569.0892857142857" y="0.0" type="line"/>
      <point x="749.6428571428571" y="0.0" type="line"/>
      <point x="749.6428571428571" y="1000.9107142857143" type="line" smooth="yes"/>
      <point x="749.6428571428571" y="1335.857142857143"/>
      <point x="725.4107142857143" y="1518.0"/>
      <point x="449.05357142857144" y="1518.0" type="curve" smooth="yes"/>
      <point x="166.17857142857142" y="1518.0"/>
      <point x="137.80357142857142" y="1308.607142857143"/>
      <point x="137.80357142857142" y="1059.3035714285713" type="curve" smooth="yes"/>
      <point x="137.80357142857142" y="1017.6428571428571" type="line"/>
      <point x="317.69642857142856" y="1017.6428571428571" type="line"/>
      <point x="317.69642857142856" y="1062.9464285714287" type="line" smooth="yes"/>
      <point x="317.69642857142856" y="1278.607142857143"/>
      <point x="331.80357142857144" y="1364.857142857143"/>
      <point x="446.8392857142857" y="1364.857142857143" type="curve" smooth="yes"/>
      <point x="563.7678571428571" y="1364.857142857143"/>
      <point x="568.5357142857143" y="1276.375"/>
      <point x="568.5357142857143" y="1067.9642857142858" type="curve" smooth="yes"/>
      <point x="568.5357142857143" y="958.2142857142857" type="line"/>
      <point x="312.35714285714283" y="852.1071428571429"/>
      <point x="119.25" y="789.75"/>
      <point x="119.25" y="547.9642857142857" type="curve" smooth="yes"/>
      <point x="119.25" y="381.42857142857144" type="line"/>
      <point x="119.80357142857143" y="131.98214285714286"/>
      <point x="196.48214285714286" y="-12.107142857142858"/>
    </contour>
    <contour>
      <point x="412.375" y="135.14285714285714" type="curve" smooth="yes"/>
      <point x="322.4642857142857" y="135.14285714285714"/>
      <point x="299.9107142857143" y="207.16071428571428"/>
      <point x="299.9107142857143" y="390.55357142857144" type="curve" smooth="yes"/>
      <point x="299.9107142857143" y="520.625" type="line" smooth="yes"/>
      <point x="299.9107142857143" y="701.4464285714286"/>
      <point x="343.3392857142857" y="730.5357142857143"/>
      <point x="568.5357142857143" y="831.4642857142857" type="curve"/>
      <point x="568.5357142857143" y="235.91071428571428" type="line"/>
      <point x="548.8571428571429" y="192.69642857142856"/>
      <point x="487.05357142857144" y="135.14285714285714"/>
    </contour>
  </outline>
</glyph>
<glyph name="b" format="2">
  <advance width="910.5357142857143"/>
  <unicode hex="0062"/>
  <anchor x="455.26785714285717" y="0.0" name="bottom"/>
  <anchor x="244.19642857142858" y="1780.3392857142858" name="top"/>
  <outline>
    <contour>
      <point x="536.5714285714286" y="-12.107142857142858" type="curve" smooth="yes"/>
      <point x="746.3392857142857" y="-12.107142857142858"/>
      <point x="784.75" y="197.35714285714286"/>
      <point x="784.75" y="475.05357142857144" type="curve" smooth="yes"/>
      <point x="784.75" y="1027.5" type="line" smooth="yes"/>
      <point x="784.75" y="1304.1964285714287"/>
      <point x="741.2142857142857" y="1522.4642857142858"/>
      <point x="515.9821428571429" y="1518.0" type="curve" smooth="yes"/>
      <point x="438.55357142857144" y="1516.6607142857142"/>
      <point x="353.3392857142857" y="1461.0892857142858"/>
      <point x="333.9107142857143" y="1376.982142857143" type="curve"/>
      <point x="333.9107142857143" y="1780.7857142857142" type="line"/>
      <point x="153.91071428571428" y="1780.7857142857142" type="line"/>
      <point x="153.91071428571428" y="0.0" type="line"/>
      <point x="333.9107142857143" y="0.0" type="line"/>
      <point x="333.9107142857143" y="120.64285714285714" type="line"/>
      <point x="375.4642857142857" y="22.32142857142857"/>
      <point x="456.80357142857144" y="-12.107142857142858"/>
    </contour>
    <contour>
      <point x="476.60714285714283" y="136.58928571428572" type="curve"/>
      <point x="357.69642857142856" y="136.58928571428572"/>
      <point x="333.9107142857143" y="239.82142857142858"/>
      <point x="333.9107142857143" y="458.89285714285717" type="curve" smooth="yes"/>
      <point x="333.9107142857143" y="1062.875" type="line" smooth="yes"/>
      <point x="333.9107142857143" y="1325.4285714285713"/>
      <point x="389.26785714285717" y="1363.857142857143"/>
      <point x="481.94642857142856" y="1363.857142857143" type="curve" smooth="yes"/>
      <point x="592.75" y="1363.857142857143"/>
      <point x="604.1964285714286" y="1244.7142857142858"/>
      <point x="604.1964285714286" y="1064.3214285714287" type="curve" smooth="yes"/>
      <point x="604.1964285714286" y="464.3392857142857" type="line" smooth="yes"/>
      <point x="604.1964285714286" y="233.92857142857142"/>
      <point x="580.625" y="137.58928571428572"/>
    </contour>
  </outline>
</glyph>
<glyph name="c" format="2">
  <advance width="844.5178571428571"/>
  <unicode hex="0063"/>
  <anchor x="422.48214285714283" y="0.0" name="bottom"/>
  <anchor x="422.48214285714283" y="1500.0" name="top"/>
  <outline>
    <contour>
      <point x="440.69642857142856" y="-18.0" type="curve" smooth="yes"/>
      <point x="719.7142857142857" y="-18.0"/>
      <point x="741.5178571428571" y="193.375"/>
      <point x="741.5178571428571" y="495.9642857142857" type="curve" smooth="yes"/>
      <point x="741.5178571428571" y="569.75" type="line"/>
      <point x="562.2857142857143" y="569.75" type="line"/>
      <point x="562.2857142857143" y="439.0357142857143" type="line" smooth="yes"/>
      <point x="562.2857142857143" y="250.625"/>
      <point x="555.0714285714286" y="140.58928571428572"/>
      <point x="439.48214285714283" y="140.58928571428572" type="curve" smooth="yes"/>
      <point x="318.0" y="140.58928571428572"/>
      <point x="306.3392857142857" y="236.94642857142858"/>
      <point x="306.3392857142857" y="443.92857142857144" type="curve" smooth="yes"/>
      <point x="306.3392857142857" y="1065.857142857143" type="line" smooth="yes"/>
      <point x="306.3392857142857" y="1245.6964285714287"/>
      <point x="323.0" y="1359.4107142857142"/>
      <point x="445.92857142857144" y="1359.4107142857142" type="curve" smooth="yes"/>
      <point x="561.0714285714286" y="1359.4107142857142"/>
      <point x="562.2857142857143" y="1260.7142857142858"/>
      <point x="562.2857142857143" y="1072.75" type="curve" smooth="yes"/>
      <point x="562.2857142857143" y="958.6071428571429" type="line"/>
      <point x="741.5178571428571" y="958.6071428571429" type="line"/>
      <point x="741.5178571428571" y="1037.1607142857142" type="line" smooth="yes"/>
      <point x="741.5178571428571" y="1323.9642857142858"/>
      <point x="715.7142857142857" y="1518.0"/>
      <point x="446.5892857142857" y="1518.0" type="curve" smooth="yes"/>
      <point x="170.19642857142858" y="1518.0"/>
      <point x="125.78571428571429" y="1304.4285714285713"/>
      <point x="125.78571428571429" y="1016.9285714285714" type="curve" smooth="yes"/>
      <point x="125.78571428571429" y="508.23214285714283" type="line" smooth="yes"/>
      <point x="125.78571428571429" y="195.35714285714286"/>
      <point x="158.28571428571428" y="-18.0"/>
    </contour>
  </outline>
</glyph>
<glyph name="d" format="2">
  <advance width="901.5"/>
  <unicode hex="0064"/>
  <anchor x="647.625" y="1780.7857142857142" name="#exit"/>
  <anchor x="451.25" y="0.0" name="bottom"/>
  <anchor x="581.0" y="1635.875" name="center"/>
  <anchor x="662.0178571428571" y="1780.3392857142858" name="top"/>
  <anchor x="881.5" y="1500.0" name="topright"/>
  <outline>
    <contour>
      <point x="372.75" y="-12.107142857142858" type="curve" smooth="yes"/>
      <point x="455.05357142857144" y="-12.107142857142858"/>
      <point x="535.7321428571429" y="22.982142857142858"/>
      <point x="576.1785714285714" y="120.64285714285714" type="curve"/>
      <point x="576.1785714285714" y="0.0" type="line"/>
      <point x="757.1785714285714" y="0.0" type="line"/>
      <point x="757.1785714285714" y="1780.7857142857142" type="line"/>
      <point x="576.1785714285714" y="1780.7857142857142" type="line"/>
      <point x="576.1785714285714" y="1396.875" type="line"/>
      <point x="546.8571428571429" y="1462.875"/>
      <point x="482.64285714285717" y="1518.0"/>
      <point x="407.76785714285717" y="1518.0" type="curve" smooth="yes"/>
      <point x="179.19642857142858" y="1518.0"/>
      <point x="125.78571428571429" y="1306.857142857143"/>
      <point x="125.78571428571429" y="1029.5892857142858" type="curve" smooth="yes"/>
      <point x="125.78571428571429" y="480.44642857142856" type="line" smooth="yes"/>
      <point x="125.78571428571429" y="200.0"/>
      <point x="159.67857142857142" y="-12.107142857142858"/>
    </contour>
    <contour>
      <point x="431.69642857142856" y="136.14285714285714" type="curve" smooth="yes"/>
      <point x="321.55357142857144" y="136.14285714285714"/>
      <point x="306.7857142857143" y="255.17857142857142"/>
      <point x="306.7857142857143" y="437.6607142857143" type="curve" smooth="yes"/>
      <point x="306.7857142857143" y="1038.3035714285713" type="line" smooth="yes"/>
      <point x="306.7857142857143" y="1266.1785714285713"/>
      <point x="333.57142857142856" y="1362.4107142857142"/>
      <point x="437.5892857142857" y="1363.4107142857142" type="curve"/>
      <point x="555.2857142857143" y="1363.4107142857142"/>
      <point x="577.1785714285714" y="1260.1785714285713"/>
      <point x="577.1785714285714" y="1044.1964285714287" type="curve" smooth="yes"/>
      <point x="577.1785714285714" y="441.75" type="line" smooth="yes"/>
      <point x="577.1785714285714" y="179.08928571428572"/>
      <point x="525.6964285714286" y="136.14285714285714"/>
    </contour>
  </outline>
</glyph>
<glyph name="e" format="2">
  <advance width="845.7321428571429"/>
  <unicode hex="0065"/>
  <anchor x="423.14285714285717" y="0.0" name="bottom"/>
  <anchor x="507.69642857142856" y="0.0" name="ogonek"/>
  <anchor x="423.14285714285717" y="1500.0" name="top"/>
  <outline>
    <contour>
      <point x="439.26785714285717" y="-18.0" type="curve" smooth="yes"/>
      <point x="724.2321428571429" y="-18.0"/>
      <point x="738.2857142857143" y="194.03571428571428"/>
      <point x="738.2857142857143" y="502.01785714285717" type="curve" smooth="yes"/>
      <point x="738.2857142857143" y="559.3214285714286" type="line"/>
      <point x="562.2857142857143" y="559.3214285714286" type="line"/>
      <point x="562.2857142857143" y="442.3392857142857" type="line" smooth="yes"/>
      <point x="562.2857142857143" y="252.05357142857142"/>
      <point x="556.9464285714286" y="135.14285714285714"/>
      <point x="439.48214285714283" y="135.14285714285714" type="curve" smooth="yes"/>
      <point x="317.23214285714283" y="135.14285714285714"/>
      <point x="306.3392857142857" y="238.82142857142858"/>
      <point x="306.3392857142857" y="446.67857142857144" type="curve" smooth="yes"/>
      <point x="306.3392857142857" y="747.0178571428571" type="line"/>
      <point x="742.2857142857143" y="747.0178571428571" type="line"/>
      <point x="742.2857142857143" y="1015.2857142857143" type="line" smooth="yes"/>
      <point x="742.2857142857143" y="1304.732142857143"/>
      <point x="718.25" y="1518.0"/>
      <point x="445.48214285714283" y="1518.0" type="curve" smooth="yes"/>
      <point x="174.82142857142858" y="1518.0"/>
      <point x="125.78571428571429" y="1307.625"/>
      <point x="125.78571428571429" y="1025.625" type="curve" smooth="yes"/>
      <point x="125.78571428571429" y="507.67857142857144" type="line" smooth="yes"/>
      <point x="125.78571428571429" y="196.01785714285714"/>
      <point x="157.625" y="-18.0"/>
    </contour>
    <contour>
      <point x="305.7857142857143" y="879.7678571428571" type="line"/>
      <point x="305.7857142857143" y="1063.3214285714287" type="line" smooth="yes"/>
      <point x="305.7857142857143" y="1243.7142857142858"/>
      <point x="321.57142857142856" y="1365.9642857142858"/>
      <point x="445.92857142857144" y="1365.9642857142858" type="curve" smooth="yes"/>
      <point x="559.8571428571429" y="1365.9642857142858"/>
      <point x="562.2857142857143" y="1261.375"/>
      <point x="562.2857142857143" y="1070.767857142857" type="curve" smooth="yes"/>
      <point x="562.2857142857143" y="879.7678571428571" type="line"/>
    </contour>
  </outline>
</glyph>
<glyph name="f" format="2">
  <advance width="631.8035714285714"/>
  <unicode hex="0066"/>
  <anchor x="316.17857142857144" y="0.0" name="bottom"/>
  <anchor x="400.64285714285717" y="1780.3392857142858" name="top"/>
  <outline>
    <contour>
      <point x="209.58928571428572" y="0.0" type="line"/>
      <point x="390.0357142857143" y="0.0" type="line"/>
      <point x="390.0357142857143" y="1307.9642857142858" type="line"/>
      <point x="576.3035714285714" y="1307.9642857142858" type="line"/>
      <point x="576.3035714285714" y="1442.0" type="line"/>
      <point x="390.0357142857143" y="1442.0" type="line"/>
      <point x="390.0357142857143" y="1527.9107142857142" type="line" smooth="yes"/>
      <point x="390.0357142857143" y="1596.0357142857142"/>
      <point x="401.4642857142857" y="1640.9464285714287"/>
      <point x="500.8392857142857" y="1640.9464285714287" type="curve" smooth="yes"/>
      <point x="521.7321428571429" y="1640.9464285714287"/>
      <point x="547.0714285714286" y="1638.9464285714287"/>
      <point x="576.3035714285714" y="1634.5" type="curve"/>
      <point x="576.3035714285714" y="1767.6785714285713" type="line"/>
      <point x="571.6428571428571" y="1769.232142857143"/>
      <point x="509.42857142857144" y="1787.3392857142858"/>
      <point x="433.55357142857144" y="1787.3392857142858" type="curve" smooth="yes"/>
      <point x="272.55357142857144" y="1787.3392857142858"/>
      <point x="209.58928571428572" y="1688.0"/>
      <point x="209.58928571428572" y="1513.6607142857142" type="curve" smooth="yes"/>
      <point x="209.58928571428572" y="1442.0" type="line"/>
      <point x="75.67857142857143" y="1442.0" type="line"/>
      <point x="75.67857142857143" y="1307.9642857142858" type="line"/>
      <point x="209.58928571428572" y="1307.9642857142858" type="line"/>
    </contour>
  </outline>
</glyph>
<glyph name="g" format="2">
  <advance width="897.3035714285714"/>
  <unicode hex="0067"/>
  <anchor x="448.92857142857144" y="-647.0" name="bottom"/>
  <anchor x="448.92857142857144" y="1500.0" name="top"/>
  <outline>
    <contour>
      <point x="435.73214285714283" y="-230.33928571428572" type="curve" smooth="yes"/>
      <point x="699.0178571428571" y="-220.0"/>
      <point x="754.9642857142857" y="-22.625"/>
      <point x="754.9642857142857" y="120.80357142857143" type="curve" smooth="yes"/>
      <point x="754.9642857142857" y="1500.0" type="line"/>
      <point x="574.9642857142857" y="1500.0" type="line"/>
      <point x="574.9642857142857" y="1399.8214285714287" type="line"/>
      <point x="546.5178571428571" y="1482.357142857143"/>
      <point x="482.4107142857143" y="1517.0"/>
      <point x="405.44642857142856" y="1518.0" type="curve" smooth="yes"/>
      <point x="197.46428571428572" y="1521.4464285714287"/>
      <point x="124.67857142857143" y="1306.1964285714287"/>
      <point x="124.67857142857143" y="1026.8392857142858" type="curve" smooth="yes"/>
      <point x="124.67857142857143" y="618.7142857142857" type="line" smooth="yes"/>
      <point x="124.67857142857143" y="342.23214285714283"/>
      <point x="174.21428571428572" y="134.19642857142858"/>
      <point x="384.32142857142856" y="134.19642857142858" type="curve" smooth="yes"/>
      <point x="465.51785714285717" y="134.19642857142858"/>
      <point x="534.1785714285714" y="157.41071428571428"/>
      <point x="574.9642857142857" y="255.51785714285714" type="curve"/>
      <point x="574.9642857142857" y="102.69642857142857" type="line" smooth="yes"/>
      <point x="574.9642857142857" y="-10.857142857142858"/>
      <point x="520.9642857142857" y="-81.07142857142857"/>
      <point x="431.98214285714283" y="-83.96428571428572" type="curve" smooth="yes"/>
      <point x="323.4107142857143" y="-87.41071428571429"/>
      <point x="246.19642857142858" y="-48.625"/>
      <point x="192.10714285714286" y="-10.410714285714288" type="curve"/>
      <point x="125.69642857142857" y="-139.25" type="line"/>
      <point x="198.44642857142858" y="-196.44642857142858"/>
      <point x="310.7857142857143" y="-235.23214285714286"/>
    </contour>
    <contour>
      <point x="452.60714285714283" y="281.57142857142856" type="curve" smooth="yes"/>
      <point x="333.9107142857143" y="281.57142857142856"/>
      <point x="305.23214285714283" y="386.14285714285717"/>
      <point x="305.23214285714283" y="606.5714285714286" type="curve" smooth="yes"/>
      <point x="305.23214285714283" y="1061.9642857142858" type="line" smooth="yes"/>
      <point x="305.23214285714283" y="1241.0357142857142"/>
      <point x="318.67857142857144" y="1364.857142857143"/>
      <point x="441.7142857142857" y="1364.857142857143" type="curve" smooth="yes"/>
      <point x="553.75" y="1364.857142857143"/>
      <point x="574.9642857142857" y="1263.392857142857"/>
      <point x="574.9642857142857" y="1059.9642857142858" type="curve" smooth="yes"/>
      <point x="574.9642857142857" y="609.0178571428571" type="line" smooth="yes"/>
      <point x="574.9642857142857" y="338.9107142857143"/>
      <point x="536.625" y="281.57142857142856"/>
    </contour>
  </outline>
</glyph>
<glyph name="h" format="2">
  <advance width="947.5714285714286"/>
  <unicode hex="0068"/>
  <anchor x="474.2857142857143" y="0.0" name="bottom"/>
  <anchor x="315.10714285714283" y="1635.875" name="center"/>
  <anchor x="240.98214285714286" y="1780.3392857142858" name="top"/>
  <outline>
    <contour>
      <point x="151.69642857142858" y="0.0" type="line"/>
      <point x="331.69642857142856" y="0.0" type="line"/>
      <point x="331.69642857142856" y="1170.517857142857" type="line" smooth="yes"/>
      <point x="331.69642857142856" y="1309.5535714285713"/>
      <point x="411.4107142857143" y="1359.4107142857142"/>
      <point x="494.4107142857143" y="1359.4107142857142" type="curve" smooth="yes"/>
      <point x="571.0892857142857" y="1359.4107142857142"/>
      <point x="624.1071428571429" y="1321.0892857142858"/>
      <point x="624.1071428571429" y="1188.8214285714287" type="curve" smooth="yes"/>
      <point x="624.1071428571429" y="0.0" type="line"/>
      <point x="804.5535714285714" y="0.0" type="line"/>
      <point x="804.5535714285714" y="1202.6964285714287" type="line" smooth="yes"/>
      <point x="804.5535714285714" y="1418.357142857143"/>
      <point x="713.1071428571429" y="1519.0"/>
      <point x="572.9285714285714" y="1519.0" type="curve" smooth="yes"/>
      <point x="454.26785714285717" y="1519.0"/>
      <point x="357.69642857142856" y="1435.7857142857142"/>
      <point x="331.69642857142856" y="1346.357142857143" type="curve"/>
      <point x="331.69642857142856" y="1780.7857142857142" type="line"/>
      <point x="151.69642857142858" y="1780.7857142857142" type="line"/>
    </contour>
  </outline>
</glyph>
<glyph name="k" format="2">
  <advance width="868.7678571428571"/>
  <unicode hex="006B"/>
  <anchor x="434.60714285714283" y="0.0" name="bottom"/>
  <anchor x="434.60714285714283" y="1780.3392857142858" name="top"/>
  <outline>
    <contour>
      <point x="153.91071428571428" y="0.0" type="line"/>
      <point x="333.9107142857143" y="0.0" type="line"/>
      <point x="333.9107142857143" y="735.3571428571429" type="line"/>
      <point x="657.0892857142857" y="0.0" type="line"/>
      <point x="843.5357142857143" y="0.0" type="line"/>
      <point x="498.92857142857144" y="757.6607142857143" type="line"/>
      <point x="826.0892857142857" y="1500.0" type="line"/>
      <point x="644.9821428571429" y="1500.0" type="line"/>
      <point x="333.9107142857143" y="774.9464285714286" type="line"/>
      <point x="333.9107142857143" y="1780.7857142857142" type="line"/>
      <point x="153.91071428571428" y="1780.7857142857142" type="line"/>
    </contour>
  </outline>
</glyph>
<glyph name="l" format="2">
  <advance width="486.0357142857143"/>
  <unicode hex="006C"/>
  <anchor x="215.16071428571428" y="1780.7857142857142" name="#exit"/>
  <anchor x="243.51785714285714" y="0.0" name="bottom"/>
  <anchor x="243.51785714285714" y="890.4464285714286" name="center"/>
  <anchor x="243.51785714285714" y="1780.3392857142858" name="top"/>
  <anchor x="466.5892857142857" y="1780.3392857142858" name="topright"/>
  <outline>
    <contour>
      <point x="153.69642857142858" y="0.0" type="line"/>
      <point x="334.14285714285717" y="0.0" type="line"/>
      <point x="334.14285714285717" y="1780.7857142857142" type="line"/>
      <point x="153.69642857142858" y="1780.7857142857142" type="line"/>
    </contour>
  </outline>
</glyph>
<glyph name="m" format="2">
  <advance width="1398.75"/>
  <unicode hex="006D"/>
  <anchor x="699.375" y="0.0" name="bottom"/>
  <anchor x="699.375" y="1500.0" name="top"/>
  <outline>
    <contour>
      <point x="150.58928571428572" y="0.0" type="line"/>
      <point x="330.5892857142857" y="0.0" type="line"/>
      <point x="330.5892857142857" y="1186.3035714285713" type="line" smooth="yes"/>
      <point x="330.5892857142857" y="1296.3214285714287"/>
      <point x="385.5" y="1359.4107142857142"/>
      <point x="486.625" y="1359.4107142857142" type="curve" smooth="yes"/>
      <point x="563.4107142857143" y="1359.4107142857142"/>
      <point x="612.6607142857143" y="1319.767857142857"/>
      <point x="612.6607142857143" y="1206.625" type="curve" smooth="yes"/>
      <point x="612.6607142857143" y="0.0" type="line"/>
      <point x="793.2142857142857" y="0.0" type="line"/>
      <point x="793.2142857142857" y="1198.732142857143" type="line" smooth="yes"/>
      <point x="793.2142857142857" y="1322.1964285714287"/>
      <point x="835.7678571428571" y="1359.4107142857142"/>
      <point x="947.6964285714286" y="1359.4107142857142" type="curve" smooth="yes"/>
      <point x="1023.7142857142857" y="1359.4107142857142"/>
      <point x="1075.2857142857142" y="1321.75"/>
      <point x="1075.2857142857142" y="1206.0714285714287" type="curve" smooth="yes"/>
      <point x="1075.2857142857142" y="0.0" type="line"/>
      <point x="1255.732142857143" y="0.0" type="line"/>
      <point x="1255.732142857143" y="1198.732142857143" type="line" smooth="yes"/>
      <point x="1255.732142857143" y="1415.7142857142858"/>
      <point x="1166.8214285714287" y="1519.0"/>
      <point x="1023.4464285714286" y="1519.0" type="curve" smooth="yes"/>
      <point x="910.125" y="1519.0"/>
      <point x="818.0" y="1457.107142857143"/>
      <point x="769.4464285714286" y="1367.0" type="curve"/>
      <point x="733.2321428571429" y="1471.2142857142858"/>
      <point x="659.0178571428571" y="1519.0"/>
      <point x="562.3571428571429" y="1519.0" type="curve" smooth="yes"/>
      <point x="442.82142857142856" y="1519.0"/>
      <point x="356.69642857142856" y="1437.6607142857142"/>
      <point x="330.5892857142857" y="1347.125" type="curve"/>
      <point x="330.5892857142857" y="1500.0" type="line"/>
      <point x="150.58928571428572" y="1500.0" type="line"/>
    </contour>
  </outline>
</glyph>
<glyph name="n" format="2">
  <advance width="946.5714285714286"/>
  <unicode hex="006E"/>
  <anchor x="473.2857142857143" y="0.0" name="bottom"/>
  <anchor x="473.2857142857143" y="1500.0" name="top"/>
  <outline>
    <contour>
      <point x="150.58928571428572" y="0.0" type="line"/>
      <point x="330.5892857142857" y="0.0" type="line"/>
      <point x="330.5892857142857" y="1195.0892857142858" type="line" smooth="yes"/>
      <point x="330.5892857142857" y="1321.3392857142858"/>
      <point x="404.9642857142857" y="1364.857142857143"/>
      <point x="487.9642857142857" y="1364.857142857143" type="curve" smooth="yes"/>
      <point x="564.6428571428571" y="1364.857142857143"/>
      <point x="623.5535714285714" y="1321.0892857142858"/>
      <point x="623.5535714285714" y="1207.5" type="curve" smooth="yes"/>
      <point x="623.5535714285714" y="0.0" type="line"/>
      <point x="803.5535714285714" y="0.0" type="line"/>
      <point x="803.5535714285714" y="1202.6964285714287" type="line" smooth="yes"/>
      <point x="803.5535714285714" y="1418.357142857143"/>
      <point x="713.2142857142857" y="1519.0"/>
      <point x="572.5892857142857" y="1519.0" type="curve" smooth="yes"/>
      <point x="453.375" y="1519.0"/>
      <point x="356.5892857142857" y="1435.7857142857142"/>
      <point x="330.5892857142857" y="1346.357142857143" type="curve"/>
      <point x="330.5892857142857" y="1500.0" type="line"/>
      <point x="150.58928571428572" y="1500.0" type="line"/>
    </contour>
  </outline>
</glyph>
<glyph name="p" format="2">
  <advance width="910.875"/>
  <unicode hex="0070"/>
  <anchor x="455.7142857142857" y="0.0" name="bottom"/>
  <anchor x="455.7142857142857" y="1500.0" name="top"/>
  <outline>
    <contour>
      <point x="154.14285714285714" y="-269.98214285714283" type="line"/>
      <point x="334.14285714285717" y="-269.98214285714283" type="line"/>
      <point x="334.14285714285717" y="103.57142857142857" type="line"/>
      <point x="363.4642857142857" y="38.339285714285715"/>
      <point x="428.125" y="-18.0"/>
      <point x="502.44642857142856" y="-18.0" type="curve" smooth="yes"/>
      <point x="736.9642857142857" y="-18.0"/>
      <point x="785.0892857142857" y="198.98214285714286"/>
      <point x="785.0892857142857" y="481.64285714285717" type="curve" smooth="yes"/>
      <point x="785.0892857142857" y="1022.4107142857143" type="line" smooth="yes"/>
      <point x="785.0892857142857" y="1301.875"/>
      <point x="749.2142857142857" y="1512.107142857143"/>
      <point x="538.125" y="1512.107142857143" type="curve" smooth="yes"/>
      <point x="458.4642857142857" y="1512.107142857143"/>
      <point x="374.5892857142857" y="1477.017857142857"/>
      <point x="334.14285714285717" y="1379.4642857142858" type="curve"/>
      <point x="334.14285714285717" y="1500.0" type="line"/>
      <point x="154.14285714285714" y="1500.0" type="line"/>
    </contour>
    <contour>
      <point x="476.73214285714283" y="136.58928571428572" type="curve"/>
      <point x="358.48214285714283" y="136.58928571428572"/>
      <point x="334.14285714285717" y="238.60714285714286"/>
      <point x="334.14285714285717" y="456.35714285714283" type="curve" smooth="yes"/>
      <point x="334.14285714285717" y="1062.875" type="line" smooth="yes"/>
      <point x="334.14285714285717" y="1326.0892857142858"/>
      <point x="390.7142857142857" y="1363.857142857143"/>
      <point x="481.625" y="1363.857142857143" type="curve" smooth="yes"/>
      <point x="593.5357142857143" y="1363.857142857143"/>
      <point x="604.5357142857143" y="1243.5"/>
      <point x="604.5357142857143" y="1063.767857142857" type="curve" smooth="yes"/>
      <point x="604.5357142857143" y="463.01785714285717" type="line" smooth="yes"/>
      <point x="604.5357142857143" y="233.92857142857142"/>
      <point x="580.1964285714286" y="137.58928571428572"/>
    </contour>
  </outline>
</glyph>
<glyph name="q" format="2">
  <advance width="899.5"/>
  <unicode hex="0071"/>
  <anchor x="450.25" y="0.0" name="bottom"/>
  <anchor x="450.25" y="1500.0" name="top"/>
  <outline>
    <contour>
      <point x="576.0714285714286" y="-269.98214285714283" type="line"/>
      <point x="756.5178571428571" y="-269.98214285714283" type="line"/>
      <point x="756.5178571428571" y="1500.0" type="line"/>
      <point x="576.0714285714286" y="1500.0" type="line"/>
      <point x="576.0714285714286" y="1382.107142857143" type="line"/>
      <point x="535.0714285714286" y="1478.892857142857"/>
      <point x="452.51785714285717" y="1512.107142857143"/>
      <point x="372.85714285714283" y="1512.107142857143" type="curve" smooth="yes"/>
      <point x="163.08928571428572" y="1512.107142857143"/>
      <point x="125.78571428571429" y="1301.3214285714287"/>
      <point x="125.78571428571429" y="1022.4107142857143" type="curve" smooth="yes"/>
      <point x="125.78571428571429" y="479.55357142857144" type="line" smooth="yes"/>
      <point x="125.78571428571429" y="196.89285714285714"/>
      <point x="176.33928571428572" y="-18.0"/>
      <point x="408.42857142857144" y="-18.0" type="curve" smooth="yes"/>
      <point x="482.75" y="-18.0"/>
      <point x="548.0714285714286" y="38.44642857142857"/>
      <point x="576.0714285714286" y="104.89285714285714" type="curve"/>
    </contour>
    <contour>
      <point x="427.5892857142857" y="136.14285714285714" type="curve" smooth="yes"/>
      <point x="315.67857142857144" y="136.14285714285714"/>
      <point x="305.3392857142857" y="256.5"/>
      <point x="305.3392857142857" y="437.0" type="curve" smooth="yes"/>
      <point x="305.3392857142857" y="1038.1964285714287" type="line" smooth="yes"/>
      <point x="305.3392857142857" y="1266.625"/>
      <point x="328.4642857142857" y="1362.4107142857142"/>
      <point x="433.0357142857143" y="1363.4107142857142" type="curve"/>
      <point x="549.9642857142857" y="1363.4107142857142"/>
      <point x="575.0714285714286" y="1262.7142857142858"/>
      <point x="575.0714285714286" y="1044.1964285714287" type="curve" smooth="yes"/>
      <point x="575.0714285714286" y="437.67857142857144" type="line" smooth="yes"/>
      <point x="575.0714285714286" y="175.23214285714286"/>
      <point x="520.2678571428571" y="136.14285714285714"/>
    </contour>
  </outline>
</glyph>
<glyph name="r" format="2">
  <advance width="625.4821428571429"/>
  <unicode hex="0072"/>
  <anchor x="254.41071428571428" y="0.0" name="bottom"/>
  <anchor x="357.42857142857144" y="1500.0" name="top"/>
  <outline>
    <contour>
      <point x="152.80357142857142" y="0.0" type="line"/>
      <point x="333.35714285714283" y="0.0" type="line"/>
      <point x="333.35714285714283" y="1231.0535714285713" type="line"/>
      <point x="402.17857142857144" y="1334.4285714285713"/>
      <point x="494.01785714285717" y="1364.982142857143"/>
      <point x="591.3571428571429" y="1364.982142857143" type="curve"/>
      <point x="591.3571428571429" y="1364.982142857143"/>
      <point x="593.3571428571429" y="1518.0"/>
      <point x="588.3571428571429" y="1518.0" type="curve" smooth="yes"/>
      <point x="455.35714285714283" y="1518.0"/>
      <point x="367.35714285714283" y="1449.0"/>
      <point x="333.35714285714283" y="1333.0" type="curve"/>
      <point x="333.35714285714283" y="1500.0" type="line"/>
      <point x="152.80357142857142" y="1500.0" type="line"/>
    </contour>
  </outline>
</glyph>
<glyph name="s" format="2">
  <advance width="777.2142857142857"/>
  <unicode hex="0073"/>
  <anchor x="388.60714285714283" y="0.0" name="bottom"/>
  <anchor x="388.60714285714283" y="1500.0" name="top"/>
  <outline>
    <contour>
      <point x="417.07142857142856" y="-20.0" type="curve" smooth="yes"/>
      <point x="624.0178571428571" y="-20.0"/>
      <point x="717.3214285714286" y="118.78571428571429"/>
      <point x="717.3214285714286" y="335.51785714285717" type="curve" smooth="yes"/>
      <point x="717.3214285714286" y="498.2857142857143"/>
      <point x="654.6964285714286" y="642.375"/>
      <point x="514.25" y="775.9464285714286" type="curve" smooth="yes"/>
      <point x="407.5892857142857" y="877.8392857142857" type="line" smooth="yes"/>
      <point x="297.42857142857144" y="982.7857142857143"/>
      <point x="266.80357142857144" y="1070.2857142857142"/>
      <point x="267.9107142857143" y="1164.9464285714287" type="curve"/>
      <point x="270.125" y="1294.857142857143"/>
      <point x="306.44642857142856" y="1359.4107142857142"/>
      <point x="397.375" y="1359.4107142857142" type="curve" smooth="yes"/>
      <point x="485.39285714285717" y="1359.4107142857142"/>
      <point x="519.6428571428571" y="1266.9642857142858"/>
      <point x="519.6428571428571" y="1080.2142857142858" type="curve" smooth="yes"/>
      <point x="519.6428571428571" y="968.625" type="line"/>
      <point x="690.0892857142857" y="968.625" type="line"/>
      <point x="690.0892857142857" y="1050.4464285714287" type="line" smooth="yes"/>
      <point x="690.0892857142857" y="1403.6785714285713"/>
      <point x="581.75" y="1518.0"/>
      <point x="394.92857142857144" y="1518.0" type="curve" smooth="yes"/>
      <point x="208.10714285714286" y="1518.0"/>
      <point x="90.23214285714286" y="1408.3392857142858"/>
      <point x="90.23214285714286" y="1174.375" type="curve" smooth="yes"/>
      <point x="90.23214285714286" y="1022.2678571428571"/>
      <point x="148.85714285714286" y="887.9464285714286"/>
      <point x="280.32142857142856" y="763.375" type="curve" smooth="yes"/>
      <point x="388.55357142857144" y="660.5892857142857" type="line" smooth="yes"/>
      <point x="505.94642857142856" y="549.0892857142857"/>
      <point x="534.5357142857143" y="447.6607142857143"/>
      <point x="534.5357142857143" y="338.98214285714283" type="curve" smooth="yes"/>
      <point x="534.5357142857143" y="186.82142857142858"/>
      <point x="496.0892857142857" y="137.58928571428572"/>
      <point x="406.2857142857143" y="137.58928571428572" type="curve" smooth="yes"/>
      <point x="317.375" y="137.58928571428572"/>
      <point x="277.57142857142856" y="239.41071428571428"/>
      <point x="277.57142857142856" y="423.0357142857143" type="curve" smooth="yes"/>
      <point x="277.57142857142856" y="531.0178571428571" type="line"/>
      <point x="100.89285714285714" y="531.0178571428571" type="line"/>
      <point x="100.89285714285714" y="410.875" type="line" smooth="yes"/>
      <point x="100.89285714285714" y="105.23214285714286"/>
      <point x="205.85714285714286" y="-20.0"/>
    </contour>
  </outline>
</glyph>
<glyph name="t" format="2">
  <advance width="591.0892857142857"/>
  <unicode hex="0074"/>
  <anchor x="399.07142857142856" y="1783.0" name="#exit"/>
  <anchor x="369.875" y="0.0" name="bottom"/>
  <anchor x="295.76785714285717" y="750.0" name="center"/>
  <anchor x="273.76785714285717" y="1760.0" name="top"/>
  <anchor x="571.0892857142857" y="1500.0" name="topright"/>
  <outline>
    <contour>
      <point x="414.69642857142856" y="-9.0" type="curve" smooth="yes"/>
      <point x="539.1785714285714" y="-9.0" type="line"/>
      <point x="539.1785714285714" y="137.92857142857142" type="line"/>
      <point x="383.14285714285717" y="137.92857142857142"/>
      <point x="369.82142857142856" y="148.92857142857142"/>
      <point x="369.82142857142856" y="226.71428571428572" type="curve" smooth="yes"/>
      <point x="369.82142857142856" y="1357.4285714285713" type="line"/>
      <point x="538.5178571428571" y="1357.4285714285713" type="line"/>
      <point x="538.5178571428571" y="1493.357142857143" type="line"/>
      <point x="369.82142857142856" y="1493.357142857143" type="line"/>
      <point x="369.82142857142856" y="1760.0" type="line"/>
      <point x="189.375" y="1760.0" type="line"/>
      <point x="189.375" y="1493.357142857143" type="line"/>
      <point x="46.57142857142857" y="1493.357142857143" type="line"/>
      <point x="46.57142857142857" y="1357.4285714285713" type="line"/>
      <point x="189.375" y="1357.4285714285713" type="line"/>
      <point x="189.375" y="220.32142857142858" type="line" smooth="yes"/>
      <point x="189.375" y="51.32142857142857"/>
      <point x="221.69642857142858" y="-9.0"/>
    </contour>
  </outline>
</glyph>
<glyph name="u" format="2">
  <advance width="940.5714285714286"/>
  <unicode hex="0075"/>
  <anchor x="470.2857142857143" y="0.0" name="bottom"/>
  <anchor x="717.0535714285714" y="0.0" name="ogonek"/>
  <anchor x="470.2857142857143" y="1500.0" name="top"/>
  <anchor x="920.5714285714286" y="1500.0" name="topright"/>
  <outline>
    <contour>
      <point x="385.55357142857144" y="-20.0" type="curve" smooth="yes"/>
      <point x="504.875" y="-20.0"/>
      <point x="585.7857142857143" y="61.67857142857143"/>
      <point x="613.1071428571429" y="151.66071428571428" type="curve"/>
      <point x="613.1071428571429" y="0.0" type="line"/>
      <point x="793.6607142857143" y="0.0" type="line"/>
      <point x="793.6607142857143" y="1500.0" type="line"/>
      <point x="612.2142857142857" y="1500.0" type="line"/>
      <point x="613.1071428571429" y="323.48214285714283" type="line" smooth="yes"/>
      <point x="613.1071428571429" y="214.91071428571428"/>
      <point x="559.5178571428571" y="140.58928571428572"/>
      <point x="457.8392857142857" y="140.58928571428572" type="curve" smooth="yes"/>
      <point x="368.39285714285717" y="140.58928571428572"/>
      <point x="320.80357142857144" y="198.91071428571428"/>
      <point x="320.80357142857144" y="315.80357142857144" type="curve" smooth="yes"/>
      <point x="320.80357142857144" y="1500.0" type="line"/>
      <point x="140.80357142857142" y="1500.0" type="line"/>
      <point x="140.80357142857142" y="299.94642857142856" type="line" smooth="yes"/>
      <point x="140.80357142857142" y="61.39285714285714"/>
      <point x="268.9642857142857" y="-20.0"/>
    </contour>
  </outline>
</glyph>
<glyph name="v" format="2">
  <advance width="749.0"/>
  <unicode hex="0076"/>
  <anchor x="374.5" y="0.0" name="bottom"/>
  <anchor x="374.5" y="1500.0" name="top"/>
  <outline>
    <contour>
      <point x="275.375" y="0.0" type="line"/>
      <point x="475.30357142857144" y="0.0" type="line"/>
      <point x="696.5357142857143" y="1500.0" type="line"/>
      <point x="532.3035714285714" y="1500.0" type="line"/>
      <point x="425.625" y="668.3035714285714" type="line"/>
      <point x="386.1607142857143" y="270.3392857142857" type="line"/>
      <point x="379.60714285714283" y="270.3392857142857" type="line"/>
      <point x="334.14285714285717" y="667.3035714285714" type="line"/>
      <point x="216.69642857142856" y="1500.0" type="line"/>
      <point x="53.017857142857146" y="1500.0" type="line"/>
    </contour>
  </outline>
</glyph>
<glyph name="w" format="2">
  <advance width="1127.607142857143"/>
  <unicode hex="0077"/>
  <anchor x="563.8035714285714" y="0.0" name="bottom"/>
  <anchor x="563.8035714285714" y="1500.0" name="top"/>
  <outline>
    <contour>
      <point x="232.67857142857142" y="0.0" type="line"/>
      <point x="396.26785714285717" y="0.0" type="line"/>
      <point x="573.1428571428571" y="1222.6607142857142" type="line"/>
      <point x="722.3571428571429" y="0.0" type="line"/>
      <point x="893.0535714285714" y="0.0" type="line"/>
      <point x="1070.9285714285713" y="1500.0" type="line"/>
      <point x="919.0" y="1500.0" type="line"/>
      <point x="842.3392857142857" y="670.6964285714286" type="line"/>
      <point x="820.125" y="344.07142857142856" type="line"/>
      <point x="811.2321428571429" y="344.07142857142856" type="line"/>
      <point x="770.6785714285714" y="669.25" type="line"/>
      <point x="643.6428571428571" y="1500.0" type="line"/>
      <point x="613.7678571428571" y="1500.0" type="line"/>
      <point x="538.7321428571429" y="1500.0" type="line"/>
      <point x="487.85714285714283" y="1500.0" type="line"/>
      <point x="365.73214285714283" y="642.7857142857143" type="line"/>
      <point x="331.30357142857144" y="344.07142857142856" type="line"/>
      <point x="320.9642857142857" y="344.07142857142856" type="line"/>
      <point x="297.51785714285717" y="641.7857142857143" type="line"/>
      <point x="213.60714285714286" y="1500.0" type="line"/>
      <point x="57.232142857142854" y="1500.0" type="line"/>
    </contour>
  </outline>
</glyph>
<glyph name="x" format="2">
  <advance width="713.9464285714286"/>
  <unicode hex="0078"/>
  <anchor x="357.25" y="0.0" name="bottom"/>
  <anchor x="357.25" y="1500.0" name="top"/>
  <outline>
    <contour>
      <point x="31.339285714285715" y="0.0" type="line"/>
      <point x="193.23214285714286" y="0.0" type="line"/>
      <point x="348.69642857142856" y="538.5714285714286" type="line"/>
      <point x="515.8214285714286" y="0.0" type="line"/>
      <point x="683.6071428571429" y="0.0" type="line"/>
      <point x="438.75" y="771.8035714285714" type="line"/>
      <point x="676.2857142857143" y="1500.0" type="line"/>
      <point x="509.92857142857144" y="1500.0" type="line"/>
      <point x="365.9107142857143" y="999.5714285714286" type="line"/>
      <point x="207.01785714285714" y="1500.0" type="line"/>
      <point x="48.785714285714285" y="1500.0" type="line"/>
      <point x="276.64285714285717" y="768.0892857142857" type="line"/>
    </contour>
  </outline>
</glyph>
<glyph name="y" format="2">
  <advance width="767.6964285714286"/>
  <unicode hex="0079"/>
  <anchor x="384.07142857142856" y="0.0" name="bottom"/>
  <anchor x="384.07142857142856" y="1500.0" name="top"/>
  <outline>
    <contour>
      <point x="116.94642857142857" y="-245.19642857142858" type="line"/>
      <point x="283.57142857142856" y="-245.19642857142858" type="line" smooth="yes"/>
      <point x="433.69642857142856" y="-245.19642857142858"/>
      <point x="454.23214285714283" y="-185.75"/>
      <point x="480.57142857142856" y="-14.714285714285714" type="curve"/>
      <point x="725.1071428571429" y="1500.0" type="line"/>
      <point x="548.9821428571429" y="1500.0" type="line"/>
      <point x="446.9642857142857" y="714.1964285714286" type="line"/>
      <point x="406.17857142857144" y="307.30357142857144" type="line"/>
      <point x="390.4107142857143" y="307.30357142857144" type="line"/>
      <point x="344.625" y="714.1964285714286" type="line"/>
      <point x="231.71428571428572" y="1500.0" type="line"/>
      <point x="54.589285714285715" y="1500.0" type="line"/>
      <point x="301.82142857142856" y="46.30357142857143" type="line" smooth="yes"/>
      <point x="310.7142857142857" y="-11.607142857142858"/>
      <point x="318.60714285714283" y="-62.160714285714285"/>
      <point x="299.92857142857144" y="-84.05357142857143" type="curve"/>
      <point x="289.5892857142857" y="-98.69642857142857"/>
      <point x="237.91071428571428" y="-102.25"/>
      <point x="180.80357142857142" y="-102.25" type="curve" smooth="yes"/>
      <point x="116.94642857142857" y="-102.25" type="line"/>
    </contour>
  </outline>
</glyph>
<glyph name="z" format="2">
  <advance width="649.7857142857143"/>
  <unicode hex="007A"/>
  <anchor x="325.39285714285717" y="0.0" name="bottom"/>
  <anchor x="325.39285714285717" y="750.0" name="center"/>
  <anchor x="325.39285714285717" y="1500.0" name="top"/>
  <outline>
    <contour>
      <point x="75.57142857142857" y="0.0" type="line"/>
      <point x="575.125" y="0.0" type="line"/>
      <point x="575.125" y="154.91071428571428" type="line"/>
      <point x="261.125" y="154.91071428571428" type="line"/>
      <point x="593.4642857142857" y="1380.4285714285713" type="line"/>
      <point x="593.4642857142857" y="1500.0" type="line"/>
      <point x="100.57142857142857" y="1500.0" type="line"/>
      <point x="100.57142857142857" y="1344.4285714285713" type="line"/>
      <point x="405.125" y="1344.4285714285713" type="line"/>
      <point x="75.57142857142857" y="132.91071428571428" type="line"/>
    </contour>
  </outline>
</glyph>
<glyph name="braceleft" format="2">
  <advance width="644.0535714285714"/>
  <unicode hex="007B"/>
  <outline>
    <contour>
      <point x="489.30357142857144" y="-157.94642857142856" type="curve" smooth="yes"/>
      <point x="549.3035714285714" y="-157.94642857142856" type="line"/>
      <point x="549.3035714285714" y="-10.142857142857139" type="line"/>
      <point x="426.4107142857143" y="-10.142857142857139"/>
      <point x="409.85714285714283" y="19.767857142857146"/>
      <point x="409.85714285714283" y="193.5" type="curve" smooth="yes"/>
      <point x="409.85714285714283" y="476.1071428571429" type="line" smooth="yes"/>
      <point x="409.85714285714283" y="706.5178571428571"/>
      <point x="388.30357142857144" y="767.0178571428571"/>
      <point x="264.8392857142857" y="811.8035714285714" type="curve"/>
      <point x="388.30357142857144" y="857.0357142857143"/>
      <point x="409.85714285714283" y="917.5357142857143"/>
      <point x="409.85714285714283" y="1147.9464285714287" type="curve" smooth="yes"/>
      <point x="409.85714285714283" y="1430.5535714285713" type="line" smooth="yes"/>
      <point x="409.85714285714283" y="1604.2857142857142"/>
      <point x="426.4107142857143" y="1634.1964285714287"/>
      <point x="549.3035714285714" y="1634.1964285714287" type="curve"/>
      <point x="549.3035714285714" y="1782.4464285714287" type="line"/>
      <point x="489.30357142857144" y="1782.4464285714287" type="line" smooth="yes"/>
      <point x="292.0357142857143" y="1782.4464285714287"/>
      <point x="230.85714285714286" y="1704.5535714285713"/>
      <point x="230.85714285714286" y="1443.5535714285713" type="curve" smooth="yes"/>
      <point x="230.85714285714286" y="1126.4107142857142" type="line" smooth="yes"/>
      <point x="230.85714285714286" y="924.5892857142857"/>
      <point x="216.51785714285714" y="885.4642857142857"/>
      <point x="92.30357142857143" y="885.4642857142857" type="curve"/>
      <point x="92.30357142857143" y="738.5892857142857" type="line"/>
      <point x="216.51785714285714" y="738.5892857142857"/>
      <point x="230.85714285714286" y="699.4642857142857"/>
      <point x="230.85714285714286" y="497.64285714285717" type="curve" smooth="yes"/>
      <point x="230.85714285714286" y="180.5" type="line" smooth="yes"/>
      <point x="230.85714285714286" y="-80.5"/>
      <point x="292.0357142857143" y="-157.94642857142856"/>
    </contour>
  </outline>
</glyph>
<glyph name="bar" format="2">
  <advance width="512.0"/>
  <unicode hex="007C"/>
  <outline>
    <contour>
      <point x="170.98214285714286" y="-128.46428571428572" type="line"/>
      <point x="346.55357142857144" y="-128.46428571428572" type="line"/>
      <point x="346.55357142857144" y="1812.892857142857" type="line"/>
      <point x="170.98214285714286" y="1812.892857142857" type="line"/>
    </contour>
  </outline>
</glyph>
<glyph name="braceright" format="2">
  <advance width="644.0535714285714"/>
  <unicode hex="007D"/>
  <outline>
    <contour>
      <point x="94.75" y="-157.94642857142856" type="line"/>
      <point x="154.75" y="-157.94642857142856" type="line" smooth="yes"/>
      <point x="352.01785714285717" y="-157.94642857142856"/>
      <point x="413.19642857142856" y="-80.5"/>
      <point x="413.19642857142856" y="180.5" type="curve" smooth="yes"/>
      <point x="413.19642857142856" y="497.64285714285717" type="line" smooth="yes"/>
      <point x="413.19642857142856" y="699.4642857142857"/>
      <point x="427.5357142857143" y="738.5892857142857"/>
      <point x="551.75" y="738.5892857142857" type="curve"/>
      <point x="551.75" y="885.4642857142857" type="line"/>
      <point x="427.5357142857143" y="885.4642857142857"/>
      <point x="413.19642857142856" y="924.5892857142857"/>
      <point x="413.19642857142856" y="1126.4107142857142" type="curve" smooth="yes"/>
      <point x="413.19642857142856" y="1443.5535714285713" type="line" smooth="yes"/>
      <point x="413.19642857142856" y="1704.5535714285713"/>
      <point x="352.01785714285717" y="1782.4464285714287"/>
      <point x="154.75" y="1782.4464285714287" type="curve" smooth="yes"/>
      <point x="94.75" y="1782.4464285714287" type="line"/>
      <point x="94.75" y="1634.1964285714287" type="line"/>
      <point x="217.64285714285714" y="1634.1964285714287"/>
      <point x="234.19642857142858" y="1604.2857142857142"/>
      <point x="234.19642857142858" y="1430.5535714285713" type="curve" smooth="yes"/>
      <point x="234.19642857142858" y="1147.9464285714287" type="line" smooth="yes"/>
      <point x="234.19642857142858" y="917.5357142857143"/>
      <point x="255.75" y="857.0357142857143"/>
      <point x="379.2142857142857" y="811.8035714285714" type="curve"/>
      <point x="255.75" y="767.0178571428571"/>
      <point x="234.19642857142858" y="706.5178571428571"/>
      <point x="234.19642857142858" y="476.1071428571429" type="curve" smooth="yes"/>
      <point x="234.19642857142858" y="193.5" type="line" smooth="yes"/>
      <point x="234.19642857142858" y="19.767857142857146"/>
      <point x="217.64285714285714" y="-10.142857142857139"/>
      <point x="94.75" y="-10.142857142857139" type="curve"/>
    </contour>
  </outline>
</glyph>
<glyph name="asciitilde" format="2">
  <advance width="1086.642857142857"/>
  <unicode hex="007E"/>
  <outline>
    <contour>
      <point x="246.16071428571428" y="835.0178571428571" type="line"/>
      <point x="268.25" y="905.5"/>
      <point x="292.23214285714283" y="946.3214285714286"/>
      <point x="338.0357142857143" y="944.5357142857143" type="curve" smooth="yes"/>
      <point x="426.17857142857144" y="942.3035714285714"/>
      <point x="649.1071428571429" y="841.375"/>
      <point x="763.1071428571429" y="841.375" type="curve" smooth="yes"/>
      <point x="867.1964285714286" y="841.375"/>
      <point x="942.0357142857143" y="957.5535714285714"/>
      <point x="968.4464285714286" y="1120.7857142857142" type="curve"/>
      <point x="822.75" y="1151.625" type="line"/>
      <point x="805.1071428571429" y="1055.5357142857142"/>
      <point x="776.5892857142857" y="1021.4285714285714"/>
      <point x="737.2321428571429" y="1019.2142857142857" type="curve"/>
      <point x="673.2321428571429" y="1019.2142857142857"/>
      <point x="424.4642857142857" y="1119.267857142857"/>
      <point x="320.4642857142857" y="1119.267857142857" type="curve" smooth="yes"/>
      <point x="224.71428571428572" y="1119.267857142857"/>
      <point x="153.07142857142858" y="1048.75"/>
      <point x="111.0" y="893.8214285714286" type="curve"/>
    </contour>
  </outline>
</glyph>
<glyph name="cent" format="2">
  <advance width="844.5178571428571"/>
  <unicode hex="00A2"/>
  <anchor x="422.48214285714283" y="0.0" name="bottom"/>
  <anchor x="422.48214285714283" y="1500.0" name="top"/>
  <outline>
    <contour>
      <point x="392.17857142857144" y="1507.982142857143" type="line"/>
      <point x="496.25" y="1506.875" type="line"/>
      <point x="496.25" y="1763.875" type="line"/>
      <point x="392.17857142857144" y="1763.875" type="line"/>
    </contour>
    <contour>
      <point x="392.17857142857144" y="-249.55357142857142" type="line"/>
      <point x="496.25" y="-249.55357142857142" type="line"/>
      <point x="496.25" y="5.446428571428571" type="line"/>
      <point x="392.17857142857144" y="5.446428571428571" type="line"/>
    </contour>
    <component base="c"/>
  </outline>
</glyph>
<glyph name="sterling" format="2">
  <advance width="843.2857142857143"/>
  <unicode hex="00A3"/>
  <outline>
    <contour>
      <point x="118.0" y="0.0" type="line"/>
      <point x="782.9821428571429" y="0.0" type="line"/>
      <point x="782.9821428571429" y="139.89285714285714" type="line"/>
      <point x="340.625" y="139.89285714285714" type="line"/>
      <point x="480.4107142857143" y="212.35714285714286"/>
      <point x="528.8035714285714" y="351.4107142857143"/>
      <point x="478.44642857142856" y="626.9464285714286" type="curve" smooth="yes"/>
      <point x="466.7857142857143" y="688.8214285714286"/>
      <point x="455.67857142857144" y="750.6964285714286"/>
      <point x="444.01785714285717" y="812.5714285714286" type="curve"/>
      <point x="717.7142857142857" y="812.5714285714286" type="line"/>
      <point x="717.7142857142857" y="936.0535714285714" type="line"/>
      <point x="414.60714285714283" y="936.0535714285714" type="line"/>
      <point x="372.07142857142856" y="1144.9107142857142" type="line" smooth="yes"/>
      <point x="349.19642857142856" y="1257.5535714285713"/>
      <point x="337.625" y="1342.017857142857"/>
      <point x="337.625" y="1407.3392857142858" type="curve" smooth="yes"/>
      <point x="337.625" y="1602.8214285714287"/>
      <point x="393.5357142857143" y="1635.857142857143"/>
      <point x="482.44642857142856" y="1635.857142857143" type="curve" smooth="yes"/>
      <point x="587.1785714285714" y="1635.857142857143"/>
      <point x="618.6964285714286" y="1570.1964285714287"/>
      <point x="618.6964285714286" y="1397.9107142857142" type="curve" smooth="yes"/>
      <point x="618.6964285714286" y="1246.0" type="line"/>
      <point x="772.6071428571429" y="1246.0" type="line"/>
      <point x="772.6071428571429" y="1389.7857142857142" type="line" smooth="yes"/>
      <point x="772.6071428571429" y="1686.6785714285713"/>
      <point x="666.75" y="1782.4464285714287"/>
      <point x="477.2142857142857" y="1782.4464285714287" type="curve" smooth="yes"/>
      <point x="264.7857142857143" y="1782.4464285714287"/>
      <point x="165.39285714285714" y="1659.0535714285713"/>
      <point x="165.39285714285714" y="1395.4107142857142" type="curve" smooth="yes"/>
      <point x="165.39285714285714" y="1321.4285714285713"/>
      <point x="180.625" y="1230.3214285714287"/>
      <point x="202.28571428571428" y="1124.125" type="curve" smooth="yes"/>
      <point x="241.05357142857142" y="936.0535714285714" type="line"/>
      <point x="84.125" y="936.0535714285714" type="line"/>
      <point x="84.125" y="812.5714285714286" type="line"/>
      <point x="268.35714285714283" y="812.5714285714286" type="line"/>
      <point x="280.57142857142856" y="752.25"/>
      <point x="292.7857142857143" y="692.375"/>
      <point x="305.0" y="632.0535714285714" type="curve" smooth="yes"/>
      <point x="364.2142857142857" y="337.17857142857144"/>
      <point x="278.875" y="212.14285714285714"/>
      <point x="118.0" y="117.55357142857143" type="curve"/>
    </contour>
  </outline>
</glyph>
<glyph name="currency" format="2">
  <advance width="1159.0"/>
  <unicode hex="00A4"/>
  <outline>
    <contour>
      <point x="274.0" y="501.4107142857143" type="line"/>
      <point x="363.0" y="590.4107142857143" type="line"/>
      <point x="424.0" y="555.4107142857143"/>
      <point x="496.0" y="537.4107142857143"/>
      <point x="579.0" y="537.4107142857143" type="curve" smooth="yes"/>
      <point x="661.0" y="537.4107142857143"/>
      <point x="733.0" y="554.4107142857143"/>
      <point x="795.0" y="589.4107142857143" type="curve"/>
      <point x="884.0" y="501.4107142857143" type="line"/>
      <point x="1034.0" y="650.4107142857143" type="line"/>
      <point x="944.0" y="740.4107142857143" type="line"/>
      <point x="980.0" y="805.4107142857143"/>
      <point x="998.0" y="877.4107142857143"/>
      <point x="998.0" y="956.4107142857143" type="curve" smooth="yes"/>
      <point x="998.0" y="1035.4107142857142"/>
      <point x="980.0" y="1106.4107142857142"/>
      <point x="944.0" y="1171.4107142857142" type="curve"/>
      <point x="1034.0" y="1261.4107142857142" type="line"/>
      <point x="884.0" y="1410.4107142857142" type="line"/>
      <point x="797.0" y="1323.4107142857142" type="line"/>
      <point x="732.0" y="1359.4107142857142"/>
      <point x="659.0" y="1377.4107142857142"/>
      <point x="579.0" y="1377.4107142857142" type="curve" smooth="yes"/>
      <point x="498.0" y="1377.4107142857142"/>
      <point x="426.0" y="1359.4107142857142"/>
      <point x="361.0" y="1322.4107142857142" type="curve"/>
      <point x="274.0" y="1410.4107142857142" type="line"/>
      <point x="125.0" y="1260.4107142857142" type="line"/>
      <point x="215.0" y="1170.4107142857142" type="line"/>
      <point x="180.0" y="1105.4107142857142"/>
      <point x="163.0" y="1034.4107142857142"/>
      <point x="163.0" y="956.4107142857143" type="curve" smooth="yes"/>
      <point x="163.0" y="879.4107142857143"/>
      <point x="181.0" y="807.4107142857143"/>
      <point x="216.0" y="742.4107142857143" type="curve"/>
      <point x="125.0" y="651.4107142857143" type="line"/>
    </contour>
    <contour>
      <point x="579.0" y="670.8571428571429" type="curve" smooth="yes"/>
      <point x="416.26785714285717" y="670.8571428571429"/>
      <point x="312.3392857142857" y="798.0178571428571"/>
      <point x="312.3392857142857" y="956.4107142857143" type="curve" smooth="yes"/>
      <point x="312.3392857142857" y="1113.8035714285713"/>
      <point x="417.26785714285717" y="1240.9642857142858"/>
      <point x="579.0" y="1240.9642857142858" type="curve" smooth="yes"/>
      <point x="744.2857142857143" y="1240.9642857142858"/>
      <point x="846.6607142857143" y="1120.6964285714287"/>
      <point x="846.6607142857143" y="958.4107142857143" type="curve" smooth="yes"/>
      <point x="846.6607142857143" y="800.5714285714286"/>
      <point x="741.7321428571429" y="670.8571428571429"/>
    </contour>
  </outline>
</glyph>
<glyph name="yen" format="2">
  <advance width="808.6964285714286"/>
  <unicode hex="00A5"/>
  <anchor x="404.625" y="0.0" name="bottom"/>
  <anchor x="404.625" y="1760.0" name="top"/>
  <anchor x="20.0" y="1760.0" name="topleft"/>
  <outline>
    <contour>
      <point x="66.96428571428571" y="422.69642857142856" type="line"/>
      <point x="744.0714285714286" y="422.69642857142856" type="line"/>
      <point x="744.0714285714286" y="523.5178571428571" type="line"/>
      <point x="473.23214285714283" y="523.5178571428571" type="line"/>
      <point x="473.23214285714283" y="708.3392857142857" type="line"/>
      <point x="744.0714285714286" y="708.3392857142857" type="line"/>
      <point x="744.0714285714286" y="809.6071428571429" type="line"/>
      <point x="66.96428571428571" y="809.6071428571429" type="line"/>
      <point x="66.96428571428571" y="708.3392857142857" type="line"/>
      <point x="378.1607142857143" y="708.3392857142857" type="line"/>
      <point x="378.1607142857143" y="523.5178571428571" type="line"/>
      <point x="66.96428571428571" y="523.5178571428571" type="line"/>
    </contour>
    <component base="Y"/>
  </outline>
</glyph>
<glyph name="brokenbar" format="2">
  <advance width="482.76785714285717"/>
  <unicode hex="00A6"/>
  <outline>
    <contour>
      <point x="153.82142857142858" y="-119.98214285714286" type="line"/>
      <point x="328.94642857142856" y="-119.98214285714286" type="line"/>
      <point x="328.94642857142856" y="705.1785714285714" type="line"/>
      <point x="153.82142857142858" y="705.1785714285714" type="line"/>
    </contour>
    <contour>
      <point x="153.82142857142858" y="930.4464285714286" type="line"/>
      <point x="328.94642857142856" y="930.4464285714286" type="line"/>
      <point x="328.94642857142856" y="1760.0" type="line"/>
      <point x="153.82142857142858" y="1760.0" type="line"/>
    </contour>
  </outline>
</glyph>
<glyph name="section" format="2">
  <advance width="786.6964285714286"/>
  <unicode hex="00A7"/>
  <outline>
    <contour>
      <point x="422.875" y="-20.0" type="curve" smooth="yes"/>
      <point x="618.7857142857143" y="-20.892857142857142"/>
      <point x="732.0535714285714" y="109.375"/>
      <point x="723.125" y="300.64285714285717" type="curve" smooth="yes"/>
      <point x="719.5535714285714" y="385.75"/>
      <point x="688.875" y="506.1607142857143"/>
      <point x="588.2321428571429" y="603.3214285714286" type="curve"/>
      <point x="638.6964285714286" y="653.5714285714286"/>
      <point x="699.5535714285714" y="706.9107142857143"/>
      <point x="705.6428571428571" y="790.3571428571429" type="curve" smooth="yes"/>
      <point x="710.0714285714286" y="889.3120535714286"/>
      <point x="675.8928571428571" y="979.1071428571429"/>
      <point x="573.4183035714286" y="1076.21875" type="curve" smooth="yes"/>
      <point x="424.14285714285717" y="1215.357142857143" type="line" smooth="yes"/>
      <point x="295.80357142857144" y="1344.6785714285713"/>
      <point x="264.875" y="1388.5535714285713"/>
      <point x="265.76785714285717" y="1496.125" type="curve" smooth="yes"/>
      <point x="266.6607142857143" y="1601.357142857143"/>
      <point x="327.5" y="1646.375"/>
      <point x="404.48214285714283" y="1646.375" type="curve" smooth="yes"/>
      <point x="488.35714285714283" y="1646.375"/>
      <point x="534.8214285714286" y="1563.232142857143"/>
      <point x="534.8214285714286" y="1377.375" type="curve" smooth="yes"/>
      <point x="534.8214285714286" y="1282.0" type="line"/>
      <point x="701.5892857142857" y="1282.0" type="line"/>
      <point x="701.5892857142857" y="1394.875" type="line" smooth="yes"/>
      <point x="701.5892857142857" y="1656.0"/>
      <point x="602.6964285714286" y="1782.4464285714287"/>
      <point x="409.2142857142857" y="1782.4464285714287" type="curve" smooth="yes"/>
      <point x="218.05357142857142" y="1782.4464285714287"/>
      <point x="101.39285714285714" y="1678.2857142857142"/>
      <point x="105.41071428571429" y="1481.642857142857" type="curve" smooth="yes"/>
      <point x="106.75" y="1389.0357142857142"/>
      <point x="150.89285714285714" y="1293.125"/>
      <point x="226.82142857142858" y="1206.107142857143" type="curve"/>
      <point x="136.53571428571428" y="1149.7142857142858"/>
      <point x="104.41071428571429" y="1062.0535714285713"/>
      <point x="104.41071428571429" y="980.6785714285714" type="curve" smooth="yes"/>
      <point x="104.41071428571429" y="871.9446428571429"/>
      <point x="167.375" y="790.9642857142857"/>
      <point x="247.91071428571428" y="718.7321428571429" type="curve" smooth="yes"/>
      <point x="395.9107142857143" y="590.6607142857143" type="line" smooth="yes"/>
      <point x="486.75" y="507.57142857142856"/>
      <point x="558.3303571428571" y="428.00892857142856"/>
      <point x="561.2321428571429" y="293.94642857142856" type="curve" smooth="yes"/>
      <point x="564.3571428571429" y="165.57142857142856"/>
      <point x="508.73214285714283" y="111.16071428571428"/>
      <point x="419.14285714285717" y="115.625" type="curve" smooth="yes"/>
      <point x="310.30357142857144" y="120.08928571428571"/>
      <point x="284.26785714285717" y="209.32142857142858"/>
      <point x="284.26785714285717" y="371.9107142857143" type="curve" smooth="yes"/>
      <point x="284.26785714285717" y="475.07142857142856" type="line"/>
      <point x="112.94642857142857" y="475.07142857142856" type="line"/>
      <point x="112.94642857142857" y="365.44642857142856" type="line" smooth="yes"/>
      <point x="112.94642857142857" y="99.10714285714286"/>
      <point x="221.07142857142858" y="-19.107142857142858"/>
    </contour>
    <contour>
      <point x="513.1071428571429" y="682.1071428571429" type="curve"/>
      <point x="354.9107142857143" y="822.0714285714286"/>
      <point x="252.53571428571428" y="903.0535714285714"/>
      <point x="249.85714285714286" y="994.6071428571429" type="curve" smooth="yes"/>
      <point x="248.96428571428572" y="1041.0357142857142"/>
      <point x="266.80357142857144" y="1080.892857142857"/>
      <point x="307.64285714285717" y="1114.9107142857142" type="curve"/>
      <point x="482.89285714285717" y="967.2678571428571"/>
      <point x="557.1964285714286" y="894.6428571428571"/>
      <point x="557.1964285714286" y="783.9107142857143" type="curve" smooth="yes"/>
      <point x="557.1964285714286" y="742.1785714285714"/>
      <point x="539.1428571428571" y="705.3035714285714"/>
    </contour>
  </outline>
</glyph>
<glyph name="copyright" format="2">
  <advance width="1466.0"/>
  <unicode hex="00A9"/>
  <outline>
    <contour>
      <point x="737.4285714285714" y="188.48214285714286" type="curve" smooth="yes"/>
      <point x="1110.4285714285713" y="188.48214285714286"/>
      <point x="1381.9285714285713" y="476.05357142857144"/>
      <point x="1381.9285714285713" y="853.9642857142857" type="curve" smooth="yes"/>
      <point x="1381.9285714285713" y="1231.4285714285713"/>
      <point x="1110.4285714285713" y="1519.0"/>
      <point x="737.4285714285714" y="1519.0" type="curve" smooth="yes"/>
      <point x="364.42857142857144" y="1519.0"/>
      <point x="92.92857142857143" y="1231.4285714285713"/>
      <point x="92.92857142857143" y="853.9642857142857" type="curve" smooth="yes"/>
      <point x="92.92857142857143" y="476.05357142857144"/>
      <point x="364.42857142857144" y="188.48214285714286"/>
    </contour>
    <contour>
      <point x="737.4285714285714" y="290.25" type="curve" smooth="yes"/>
      <point x="401.4642857142857" y="290.25"/>
      <point x="203.57142857142856" y="555.9285714285714"/>
      <point x="203.57142857142856" y="853.4107142857143" type="curve" smooth="yes"/>
      <point x="203.57142857142856" y="1150.4464285714287"/>
      <point x="401.4642857142857" y="1417.232142857143"/>
      <point x="737.4285714285714" y="1417.232142857143" type="curve" smooth="yes"/>
      <point x="1073.392857142857" y="1417.232142857143"/>
      <point x="1271.2857142857142" y="1151.5535714285713"/>
      <point x="1271.2857142857142" y="854.5178571428571" type="curve" smooth="yes"/>
      <point x="1271.2857142857142" y="557.0357142857143"/>
      <point x="1073.392857142857" y="290.25"/>
    </contour>
    <contour>
      <point x="733.7857142857143" y="410.1607142857143" type="curve" smooth="yes"/>
      <point x="895.7857142857143" y="410.1607142857143"/>
      <point x="947.125" y="488.07142857142856"/>
      <point x="947.125" y="624.7857142857143" type="curve" smooth="yes"/>
      <point x="947.125" y="754.2857142857143" type="line"/>
      <point x="830.625" y="754.2857142857143" type="line"/>
      <point x="830.625" y="621.8035714285714" type="line" smooth="yes"/>
      <point x="830.625" y="535.7321428571429"/>
      <point x="800.0892857142857" y="511.0"/>
      <point x="736.2142857142857" y="511.0" type="curve" smooth="yes"/>
      <point x="673.125" y="511.0"/>
      <point x="635.9285714285714" y="542.0892857142857"/>
      <point x="635.9285714285714" y="621.8035714285714" type="curve" smooth="yes"/>
      <point x="635.9285714285714" y="1079.142857142857" type="line" smooth="yes"/>
      <point x="635.9285714285714" y="1166.267857142857"/>
      <point x="669.1071428571429" y="1196.142857142857"/>
      <point x="736.2142857142857" y="1196.142857142857" type="curve" smooth="yes"/>
      <point x="800.0892857142857" y="1196.142857142857"/>
      <point x="830.625" y="1171.2857142857142"/>
      <point x="830.625" y="1066.142857142857" type="curve" smooth="yes"/>
      <point x="830.625" y="969.8571428571429" type="line"/>
      <point x="943.125" y="969.8571428571429" type="line"/>
      <point x="943.125" y="1095.892857142857" type="line" smooth="yes"/>
      <point x="943.125" y="1243.8214285714287"/>
      <point x="871.7857142857143" y="1302.3214285714287"/>
      <point x="737.7857142857143" y="1302.3214285714287" type="curve" smooth="yes"/>
      <point x="572.7857142857143" y="1302.3214285714287"/>
      <point x="518.9642857142857" y="1213.4285714285713"/>
      <point x="518.9642857142857" y="1065.3392857142858" type="curve" smooth="yes"/>
      <point x="518.9642857142857" y="626.2142857142857" type="line" smooth="yes"/>
      <point x="518.9642857142857" y="487.35714285714283"/>
      <point x="594.7857142857143" y="410.1607142857143"/>
    </contour>
  </outline>
</glyph>
<glyph name="ordfeminine" format="2">
  <advance width="854.6785714285714"/>
  <unicode hex="00AA"/>
  <outline>
    <contour>
      <point x="386.35714285714283" y="554.6607142857143" type="curve" smooth="yes"/>
      <point x="482.5892857142857" y="554.6607142857143"/>
      <point x="536.5714285714286" y="623.6607142857143"/>
      <point x="548.125" y="661.6428571428571" type="curve"/>
      <point x="548.125" y="565.2142857142857" type="line"/>
      <point x="692.4821428571429" y="565.2142857142857" type="line"/>
      <point x="692.4821428571429" y="1367.482142857143" type="line" smooth="yes"/>
      <point x="692.4821428571429" y="1634.75"/>
      <point x="672.8928571428571" y="1782.4464285714287"/>
      <point x="451.42857142857144" y="1782.4464285714287" type="curve" smooth="yes"/>
      <point x="225.10714285714286" y="1782.4464285714287"/>
      <point x="202.16071428571428" y="1613.2857142857142"/>
      <point x="202.16071428571428" y="1414.1964285714287" type="curve" smooth="yes"/>
      <point x="202.16071428571428" y="1380.0892857142858" type="line"/>
      <point x="345.9642857142857" y="1380.0892857142858" type="line"/>
      <point x="345.9642857142857" y="1417.8392857142858" type="line" smooth="yes"/>
      <point x="345.9642857142857" y="1590.5892857142858"/>
      <point x="357.625" y="1659.2857142857142"/>
      <point x="450.2142857142857" y="1659.2857142857142" type="curve" smooth="yes"/>
      <point x="545.8928571428571" y="1659.2857142857142"/>
      <point x="547.5714285714286" y="1581.4285714285713"/>
      <point x="547.5714285714286" y="1413.0357142857142" type="curve" smooth="yes"/>
      <point x="547.5714285714286" y="1334.3214285714287" type="line"/>
      <point x="341.05357142857144" y="1247.767857142857"/>
      <point x="187.60714285714286" y="1197.75"/>
      <point x="187.60714285714286" y="1004.0535714285714" type="curve" smooth="yes"/>
      <point x="187.60714285714286" y="870.4285714285714" type="line"/>
      <point x="188.16071428571428" y="670.0892857142857"/>
      <point x="248.94642857142858" y="554.6607142857143"/>
    </contour>
    <contour>
      <point x="422.19642857142856" y="672.9285714285714" type="curve" smooth="yes"/>
      <point x="350.17857142857144" y="672.9285714285714"/>
      <point x="331.625" y="730.0535714285714"/>
      <point x="331.625" y="878.2142857142857" type="curve" smooth="yes"/>
      <point x="331.625" y="981.3035714285714" type="line" smooth="yes"/>
      <point x="331.625" y="1126.892857142857"/>
      <point x="366.8392857142857" y="1149.6607142857142"/>
      <point x="547.5714285714286" y="1230.357142857143" type="curve"/>
      <point x="547.5714285714286" y="754.1428571428571" type="line"/>
      <point x="531.3392857142857" y="719.9285714285714"/>
      <point x="482.42857142857144" y="672.9285714285714"/>
    </contour>
  </outline>
</glyph>
<glyph name="guillemotleft" format="2">
  <advance width="1304.0"/>
  <unicode hex="00AB"/>
  <outline>
    <contour>
      <point x="1083.267857142857" y="390.75" type="line"/>
      <point x="1083.267857142857" y="580.6428571428571" type="line"/>
      <point x="771.2678571428571" y="749.0" type="line"/>
      <point x="1083.267857142857" y="908.3571428571429" type="line"/>
      <point x="1083.267857142857" y="1089.9107142857142" type="line"/>
      <point x="610.625" y="818.9107142857143" type="line"/>
      <point x="610.625" y="675.75" type="line"/>
    </contour>
    <contour>
      <point x="551.9642857142857" y="390.75" type="line"/>
      <point x="551.9642857142857" y="580.6428571428571" type="line"/>
      <point x="239.96428571428572" y="749.0" type="line"/>
      <point x="551.9642857142857" y="908.3571428571429" type="line"/>
      <point x="551.9642857142857" y="1089.9107142857142" type="line"/>
      <point x="79.32142857142857" y="818.9107142857143" type="line"/>
      <point x="79.32142857142857" y="675.75" type="line"/>
    </contour>
  </outline>
</glyph>
<glyph name="logicalnot" format="2">
  <advance width="947.0"/>
  <unicode hex="00AC"/>
  <outline>
    <contour>
      <point x="646.1964285714286" y="439.0" type="line"/>
      <point x="807.7321428571429" y="439.0" type="line"/>
      <point x="807.7321428571429" y="924.9821428571429" type="line"/>
      <point x="97.0" y="924.9821428571429" type="line"/>
      <point x="97.0" y="772.3392857142857" type="line"/>
      <point x="646.1964285714286" y="772.3392857142857" type="line"/>
    </contour>
  </outline>
</glyph>
<glyph name="registered" format="2">
  <advance width="1502.0"/>
  <unicode hex="00AE"/>
  <outline>
    <contour>
      <point x="549.1428571428571" y="437.14285714285717" type="line"/>
      <point x="675.7857142857143" y="437.14285714285717" type="line"/>
      <point x="675.7857142857143" y="855.1428571428571" type="line"/>
      <point x="784.7142857142857" y="855.1428571428571"/>
      <point x="827.9642857142857" y="845.9285714285714"/>
      <point x="827.9642857142857" y="755.75" type="curve" smooth="yes"/>
      <point x="827.9642857142857" y="437.14285714285717" type="line"/>
      <point x="951.5" y="437.14285714285717" type="line"/>
      <point x="951.5" y="772.0535714285714" type="line" smooth="yes"/>
      <point x="951.5" y="841.3928571428571"/>
      <point x="925.3928571428571" y="893.9107142857143"/>
      <point x="852.4642857142857" y="903.9107142857143" type="curve"/>
      <point x="937.1964285714286" y="925.8035714285714"/>
      <point x="960.2857142857143" y="976.9107142857143"/>
      <point x="960.2857142857143" y="1062.8214285714287" type="curve" smooth="yes"/>
      <point x="960.2857142857143" y="1081.482142857143" type="line" smooth="yes"/>
      <point x="960.2857142857143" y="1229.9464285714287"/>
      <point x="903.7674107142857" y="1289.142857142857"/>
      <point x="761.0357142857143" y="1289.142857142857" type="curve" smooth="yes"/>
      <point x="549.1428571428571" y="1289.142857142857" type="line"/>
    </contour>
    <contour>
      <point x="676.7857142857143" y="947.6785714285714" type="line"/>
      <point x="676.7857142857143" y="1195.607142857143" type="line"/>
      <point x="813.5714285714286" y="1195.607142857143"/>
      <point x="841.9642857142857" y="1174.267857142857"/>
      <point x="841.9642857142857" y="1074.3392857142858" type="curve" smooth="yes"/>
      <point x="841.9642857142857" y="992.8928571428571"/>
      <point x="818.75" y="947.6785714285714"/>
      <point x="742.6071428571429" y="947.6785714285714" type="curve" smooth="yes"/>
    </contour>
    <contour>
      <point x="742.9642857142857" y="305.875" type="curve" smooth="yes"/>
      <point x="407.0" y="305.875"/>
      <point x="200.17857142857142" y="568.4285714285714"/>
      <point x="200.17857142857142" y="861.4464285714286" type="curve" smooth="yes"/>
      <point x="200.17857142857142" y="1154.4642857142858"/>
      <point x="407.0" y="1418.125"/>
      <point x="742.9642857142857" y="1418.125" type="curve" smooth="yes"/>
      <point x="1078.9285714285713" y="1418.125"/>
      <point x="1285.75" y="1155.5714285714287"/>
      <point x="1285.75" y="862.5535714285714" type="curve" smooth="yes"/>
      <point x="1285.75" y="569.5357142857143"/>
      <point x="1078.9285714285713" y="305.875"/>
    </contour>
    <contour>
      <point x="742.9642857142857" y="205.0" type="curve" smooth="yes"/>
      <point x="1115.9642857142858" y="205.0"/>
      <point x="1399.9642857142858" y="489.0"/>
      <point x="1399.9642857142858" y="862.0" type="curve" smooth="yes"/>
      <point x="1399.9642857142858" y="1235.0"/>
      <point x="1115.9642857142858" y="1519.0"/>
      <point x="742.9642857142857" y="1519.0" type="curve" smooth="yes"/>
      <point x="369.9642857142857" y="1519.0"/>
      <point x="85.96428571428571" y="1235.0"/>
      <point x="85.96428571428571" y="862.0" type="curve" smooth="yes"/>
      <point x="85.96428571428571" y="489.0"/>
      <point x="369.9642857142857" y="205.0"/>
    </contour>
  </outline>
</glyph>
<glyph name="degree" format="2">
  <advance width="891.7857142857143"/>
  <unicode hex="00B0"/>
  <outline>
    <contour>
      <point x="445.39285714285717" y="1114.0" type="curve" smooth="yes"/>
      <point x="620.1607142857143" y="1114.0"/>
      <point x="794.9285714285714" y="1226.0"/>
      <point x="794.9285714285714" y="1448.0" type="curve" smooth="yes"/>
      <point x="794.9285714285714" y="1671.0"/>
      <point x="620.1607142857143" y="1782.4464285714287"/>
      <point x="445.94642857142856" y="1782.4464285714287" type="curve" smooth="yes"/>
      <point x="271.625" y="1782.4464285714287"/>
      <point x="96.85714285714286" y="1671.0"/>
      <point x="96.85714285714286" y="1448.0" type="curve" smooth="yes"/>
      <point x="96.85714285714286" y="1225.0"/>
      <point x="270.625" y="1114.0"/>
    </contour>
    <contour>
      <point x="446.94642857142856" y="1219.8214285714287" type="curve" smooth="yes"/>
      <point x="340.25" y="1219.8214285714287"/>
      <point x="233.10714285714286" y="1294.8392857142858"/>
      <point x="233.10714285714286" y="1448.0" type="curve" smooth="yes"/>
      <point x="233.10714285714286" y="1601.1607142857142"/>
      <point x="339.25" y="1676.1785714285713"/>
      <point x="445.8392857142857" y="1676.1785714285713" type="curve" smooth="yes"/>
      <point x="552.5357142857143" y="1676.1785714285713"/>
      <point x="659.6785714285714" y="1601.1607142857142"/>
      <point x="659.6785714285714" y="1448.0" type="curve" smooth="yes"/>
      <point x="659.6785714285714" y="1294.8392857142858"/>
      <point x="553.5357142857143" y="1219.8214285714287"/>
    </contour>
  </outline>
</glyph>
<glyph name="plusminus" format="2">
  <advance width="854.0"/>
  <unicode hex="00B1"/>
  <outline>
    <contour>
      <point x="359.69642857142856" y="532.9642857142857" type="line"/>
      <point x="494.30357142857144" y="532.9642857142857" type="line"/>
      <point x="494.30357142857144" y="790.1071428571429" type="line"/>
      <point x="724.9821428571429" y="790.1071428571429" type="line"/>
      <point x="724.9821428571429" y="914.9285714285714" type="line"/>
      <point x="494.30357142857144" y="914.9285714285714" type="line"/>
      <point x="494.30357142857144" y="1166.732142857143" type="line"/>
      <point x="359.69642857142856" y="1166.732142857143" type="line"/>
      <point x="359.69642857142856" y="914.9285714285714" type="line"/>
      <point x="133.01785714285714" y="914.9285714285714" type="line"/>
      <point x="133.01785714285714" y="790.1071428571429" type="line"/>
      <point x="359.69642857142856" y="790.1071428571429" type="line"/>
    </contour>
    <contour>
      <point x="168.57142857142858" y="219.69642857142858" type="line"/>
      <point x="684.5714285714286" y="219.69642857142858" type="line"/>
      <point x="684.5714285714286" y="354.85714285714283" type="line"/>
      <point x="168.57142857142858" y="354.85714285714283" type="line"/>
    </contour>
  </outline>
</glyph>
<glyph name="uni00B2" format="2">
  <advance width="852.6964285714286"/>
  <unicode hex="00B2"/>
  <outline>
    <contour>
      <point x="242.96428571428572" y="458.75" type="line"/>
      <point x="658.1964285714286" y="458.75" type="line"/>
      <point x="658.1964285714286" y="556.125" type="line"/>
      <point x="378.32142857142856" y="556.125" type="line"/>
      <point x="421.8392857142857" y="887.3214285714286"/>
      <point x="675.5357142857143" y="1069.142857142857"/>
      <point x="675.5357142857143" y="1417.625" type="curve" smooth="yes"/>
      <point x="675.5357142857143" y="1589.9464285714287"/>
      <point x="644.6964285714286" y="1778.5535714285713"/>
      <point x="476.92857142857144" y="1778.5535714285713" type="curve" smooth="yes"/>
      <point x="253.26785714285714" y="1778.5535714285713"/>
      <point x="238.96428571428572" y="1611.3035714285713"/>
      <point x="238.96428571428572" y="1328.392857142857" type="curve" smooth="yes"/>
      <point x="238.51785714285714" y="1248.607142857143" type="line"/>
      <point x="372.23214285714283" y="1248.607142857143" type="line"/>
      <point x="372.23214285714283" y="1419.9642857142858" type="line" smooth="yes"/>
      <point x="372.23214285714283" y="1630.9464285714287"/>
      <point x="413.80357142857144" y="1664.9464285714287"/>
      <point x="462.69642857142856" y="1664.9464285714287" type="curve" smooth="yes"/>
      <point x="510.0357142857143" y="1664.9464285714287"/>
      <point x="546.7142857142857" y="1629.5"/>
      <point x="546.7142857142857" y="1430.857142857143" type="curve" smooth="yes"/>
      <point x="546.7142857142857" y="1341.0714285714287"/>
      <point x="524.2678571428571" y="1221.0357142857142"/>
      <point x="493.1607142857143" y="1159.357142857143" type="curve"/>
      <point x="483.25" y="1146.9107142857142"/>
      <point x="242.96428571428572" y="632.3392857142857"/>
      <point x="242.96428571428572" y="527.9821428571429" type="curve" smooth="yes"/>
    </contour>
  </outline>
</glyph>
<glyph name="uni00B3" format="2">
  <advance width="873.3571428571429"/>
  <unicode hex="00B3"/>
  <outline>
    <contour>
      <point x="435.23214285714283" y="558.0535714285714" type="curve" smooth="yes"/>
      <point x="598.7321428571429" y="558.0535714285714"/>
      <point x="668.1607142857143" y="668.375"/>
      <point x="668.1607142857143" y="894.8214285714286" type="curve" smooth="yes"/>
      <point x="668.1607142857143" y="1029.5892857142858"/>
      <point x="634.4821428571429" y="1155.732142857143"/>
      <point x="546.6071428571429" y="1194.8392857142858" type="curve"/>
      <point x="633.1607142857143" y="1227.2857142857142"/>
      <point x="666.1607142857143" y="1329.75"/>
      <point x="666.1607142857143" y="1463.875" type="curve" smooth="yes"/>
      <point x="666.1607142857143" y="1669.2142857142858"/>
      <point x="598.9642857142857" y="1777.2142857142858"/>
      <point x="438.0" y="1777.2142857142858" type="curve" smooth="yes"/>
      <point x="274.82142857142856" y="1777.2142857142858"/>
      <point x="217.07142857142858" y="1670.4285714285713"/>
      <point x="217.07142857142858" y="1463.875" type="curve" smooth="yes"/>
      <point x="217.07142857142858" y="1438.107142857143" type="line"/>
      <point x="340.875" y="1438.107142857143" type="line"/>
      <point x="340.875" y="1461.767857142857" type="line" smooth="yes"/>
      <point x="340.875" y="1631.732142857143"/>
      <point x="375.3392857142857" y="1671.8392857142858"/>
      <point x="435.44642857142856" y="1671.8392857142858" type="curve" smooth="yes"/>
      <point x="495.125" y="1671.8392857142858"/>
      <point x="541.6964285714286" y="1641.2857142857142"/>
      <point x="541.6964285714286" y="1464.767857142857" type="curve" smooth="yes"/>
      <point x="541.6964285714286" y="1274.8035714285713"/>
      <point x="501.4642857142857" y="1245.9285714285713"/>
      <point x="404.125" y="1245.8214285714287" type="curve"/>
      <point x="375.67857142857144" y="1245.8214285714287" type="line"/>
      <point x="375.67857142857144" y="1144.4285714285713" type="line"/>
      <point x="405.57142857142856" y="1144.4285714285713" type="line" smooth="yes"/>
      <point x="505.57142857142856" y="1144.4285714285713"/>
      <point x="543.5892857142857" y="1085.5535714285713"/>
      <point x="543.5892857142857" y="896.2678571428571" type="curve" smooth="yes"/>
      <point x="543.5892857142857" y="724.7678571428571"/>
      <point x="522.0178571428571" y="660.875"/>
      <point x="436.3392857142857" y="660.875" type="curve" smooth="yes"/>
      <point x="349.76785714285717" y="660.875"/>
      <point x="336.32142857142856" y="715.2142857142857"/>
      <point x="336.32142857142856" y="891.7321428571429" type="curve" smooth="yes"/>
      <point x="336.32142857142856" y="935.0178571428571" type="line"/>
      <point x="213.07142857142858" y="935.0178571428571" type="line"/>
      <point x="213.07142857142858" y="892.1785714285714" type="line" smooth="yes"/>
      <point x="213.07142857142858" y="667.5"/>
      <point x="272.05357142857144" y="558.0535714285714"/>
    </contour>
  </outline>
</glyph>
<glyph name="uni00B5" format="2">
  <advance width="940.5714285714286"/>
  <unicode hex="00B5"/>
  <outline>
    <contour>
      <point x="385.55357142857144" y="-20.0" type="curve" smooth="yes"/>
      <point x="504.875" y="-20.0"/>
      <point x="585.7857142857143" y="61.67857142857143"/>
      <point x="613.1071428571429" y="151.66071428571428" type="curve"/>
      <point x="613.1071428571429" y="0.0" type="line"/>
      <point x="793.6607142857143" y="0.0" type="line"/>
      <point x="793.6607142857143" y="1500.0" type="line"/>
      <point x="612.2142857142857" y="1500.0" type="line"/>
      <point x="613.1071428571429" y="323.48214285714283" type="line" smooth="yes"/>
      <point x="613.1071428571429" y="214.91071428571428"/>
      <point x="559.5178571428571" y="140.58928571428572"/>
      <point x="457.8392857142857" y="140.58928571428572" type="curve" smooth="yes"/>
      <point x="368.39285714285717" y="140.58928571428572"/>
      <point x="320.80357142857144" y="198.91071428571428"/>
      <point x="320.80357142857144" y="315.80357142857144" type="curve" smooth="yes"/>
      <point x="320.80357142857144" y="1500.0" type="line"/>
      <point x="140.80357142857142" y="1500.0" type="line"/>
      <point x="140.80357142857142" y="299.94642857142856" type="line" smooth="yes"/>
      <point x="140.80357142857142" y="61.39285714285714"/>
      <point x="268.9642857142857" y="-20.0"/>
    </contour>
    <contour>
      <point x="140.80357142857142" y="483.0" type="line"/>
      <point x="140.80357142857142" y="-265.0" type="line"/>
      <point x="320.80357142857144" y="-265.0" type="line"/>
      <point x="320.80357142857144" y="483.0" type="line"/>
    </contour>
  </outline>
</glyph>
<glyph name="paragraph" format="2">
  <advance width="1030.517857142857"/>
  <unicode hex="00B6"/>
  <outline>
    <contour>
      <point x="425.01785714285717" y="0.0" type="line"/>
      <point x="577.125" y="0.0" type="line"/>
      <point x="577.125" y="1595.0892857142858" type="line"/>
      <point x="724.5892857142857" y="1595.0892857142858" type="line"/>
      <point x="724.5892857142857" y="0.0" type="line"/>
      <point x="876.6964285714286" y="0.0" type="line"/>
      <point x="876.6964285714286" y="1760.0" type="line"/>
      <point x="600.4821428571429" y="1760.0" type="line" smooth="yes"/>
      <point x="211.875" y="1760.0"/>
      <point x="109.16071428571429" y="1659.607142857143"/>
      <point x="109.16071428571429" y="1455.107142857143" type="curve" smooth="yes"/>
      <point x="109.16071428571429" y="1291.5714285714287"/>
      <point x="215.03571428571428" y="1178.642857142857"/>
      <point x="425.01785714285717" y="1155.0892857142858" type="curve"/>
    </contour>
  </outline>
</glyph>
<glyph name="uni00B9" format="2">
  <advance width="626.5535714285714"/>
  <unicode hex="00B9"/>
  <outline>
    <contour>
      <point x="258.80357142857144" y="454.4107142857143" type="line"/>
      <point x="394.7142857142857" y="454.4107142857143" type="line"/>
      <point x="394.7142857142857" y="1760.0" type="line"/>
      <point x="305.125" y="1760.0" type="line"/>
      <point x="266.32142857142856" y="1662.982142857143"/>
      <point x="174.80357142857142" y="1606.3214285714287"/>
      <point x="95.80357142857143" y="1595.982142857143" type="curve"/>
      <point x="95.80357142857143" y="1507.5892857142858" type="line"/>
      <point x="150.80357142857142" y="1507.5892857142858"/>
      <point x="222.03571428571428" y="1528.375"/>
      <point x="258.80357142857144" y="1569.5" type="curve"/>
    </contour>
  </outline>
</glyph>
<glyph name="ordmasculine" format="2">
  <advance width="864.2678571428571"/>
  <unicode hex="00BA"/>
  <outline>
    <contour>
      <point x="443.7857142857143" y="540.8392857142857" type="curve" smooth="yes"/>
      <point x="670.0" y="540.8392857142857"/>
      <point x="695.0535714285714" y="715.0892857142857"/>
      <point x="695.0535714285714" y="959.5357142857143" type="curve" smooth="yes"/>
      <point x="695.0535714285714" y="1374.607142857143" type="line" smooth="yes"/>
      <point x="695.0535714285714" y="1602.0535714285713"/>
      <point x="663.3214285714286" y="1772.1785714285713"/>
      <point x="443.7857142857143" y="1772.1785714285713" type="curve" smooth="yes"/>
      <point x="224.91071428571428" y="1772.1785714285713"/>
      <point x="187.51785714285714" y="1600.5"/>
      <point x="187.51785714285714" y="1374.607142857143" type="curve" smooth="yes"/>
      <point x="187.51785714285714" y="959.5357142857143" type="line" smooth="yes"/>
      <point x="187.51785714285714" y="710.5357142857143"/>
      <point x="218.57142857142858" y="540.8392857142857"/>
    </contour>
    <contour>
      <point x="443.7857142857143" y="663.1071428571429" type="curve"/>
      <point x="345.85714285714283" y="663.1071428571429"/>
      <point x="332.5357142857143" y="763.9285714285714"/>
      <point x="332.5357142857143" y="915.7678571428571" type="curve" smooth="yes"/>
      <point x="332.5357142857143" y="1405.8214285714287" type="line" smooth="yes"/>
      <point x="332.5357142857143" y="1550.5357142857142"/>
      <point x="345.19642857142856" y="1648.5714285714287"/>
      <point x="443.7857142857143" y="1648.5714285714287" type="curve" smooth="yes"/>
      <point x="535.4821428571429" y="1648.5714285714287"/>
      <point x="549.5892857142857" y="1550.5357142857142"/>
      <point x="549.5892857142857" y="1405.8214285714287" type="curve" smooth="yes"/>
      <point x="549.5892857142857" y="915.7678571428571" type="line" smooth="yes"/>
      <point x="549.5892857142857" y="763.8214285714286"/>
      <point x="534.2678571428571" y="662.5535714285714"/>
    </contour>
  </outline>
</glyph>
<glyph name="guillemotright" format="2">
  <advance width="1304.0"/>
  <unicode hex="00BB"/>
  <outline>
    <contour>
      <point x="712.6785714285714" y="390.75" type="line"/>
      <point x="1185.3214285714287" y="675.75" type="line"/>
      <point x="1185.3214285714287" y="818.9107142857143" type="line"/>
      <point x="712.6785714285714" y="1089.9107142857142" type="line"/>
      <point x="712.6785714285714" y="908.3571428571429" type="line"/>
      <point x="1024.6785714285713" y="749.0" type="line"/>
      <point x="712.6785714285714" y="580.6428571428571" type="line"/>
    </contour>
    <contour>
      <point x="181.375" y="390.75" type="line"/>
      <point x="654.0178571428571" y="675.75" type="line"/>
      <point x="654.0178571428571" y="818.9107142857143" type="line"/>
      <point x="181.375" y="1089.9107142857142" type="line"/>
      <point x="181.375" y="908.3571428571429" type="line"/>
      <point x="493.375" y="749.0" type="line"/>
      <point x="181.375" y="580.6428571428571" type="line"/>
    </contour>
  </outline>
</glyph>
<glyph name="onequarter" format="2">
  <advance width="1535.0"/>
  <unicode hex="00BC"/>
  <outline>
    <contour>
      <point x="476.82142857142856" y="0.0" type="line"/>
      <point x="603.125" y="0.0" type="line"/>
      <point x="1074.0892857142858" y="1770.267857142857" type="line"/>
      <point x="946.8928571428571" y="1770.267857142857" type="line"/>
    </contour>
    <contour>
      <point x="257.5892857142857" y="473.82142857142856" type="line"/>
      <point x="390.75" y="473.82142857142856" type="line"/>
      <point x="390.75" y="1770.267857142857" type="line"/>
      <point x="303.69642857142856" y="1770.267857142857" type="line"/>
      <point x="264.3392857142857" y="1673.9107142857142"/>
      <point x="175.35714285714286" y="1618.357142857143"/>
      <point x="97.23214285714286" y="1607.5714285714287" type="curve"/>
      <point x="97.23214285714286" y="1520.9464285714287" type="line"/>
      <point x="152.01785714285714" y="1520.9464285714287"/>
      <point x="222.03571428571428" y="1541.732142857143"/>
      <point x="257.5892857142857" y="1582.857142857143" type="curve"/>
    </contour>
    <contour>
      <point x="1190.0" y="0.0" type="line"/>
      <point x="1301.7142857142858" y="0.0" type="line"/>
      <point x="1301.7142857142858" y="230.16071428571428" type="line"/>
      <point x="1400.1964285714287" y="230.16071428571428" type="line"/>
      <point x="1400.1964285714287" y="325.44642857142856" type="line"/>
      <point x="1301.7142857142858" y="325.44642857142856" type="line"/>
      <point x="1301.7142857142858" y="1181.375" type="line"/>
      <point x="1172.9464285714287" y="1181.375" type="line"/>
      <point x="909.8928571428571" y="311.7857142857143" type="line"/>
      <point x="912.125" y="230.16071428571428" type="line"/>
      <point x="1190.0" y="230.16071428571428" type="line"/>
    </contour>
    <contour>
      <point x="1018.625" y="325.44642857142856" type="line"/>
      <point x="1190.0" y="955.2321428571429" type="line"/>
      <point x="1190.0" y="325.44642857142856" type="line"/>
    </contour>
  </outline>
</glyph>
<glyph name="onehalf" format="2">
  <advance width="1620.0"/>
  <unicode hex="00BD"/>
  <outline>
    <contour>
      <point x="482.35714285714283" y="0.0" type="line"/>
      <point x="608.6607142857143" y="0.0" type="line"/>
      <point x="1079.625" y="1770.267857142857" type="line"/>
      <point x="952.4285714285714" y="1770.267857142857" type="line"/>
    </contour>
    <contour>
      <point x="257.5892857142857" y="473.82142857142856" type="line"/>
      <point x="390.75" y="473.82142857142856" type="line"/>
      <point x="390.75" y="1770.267857142857" type="line"/>
      <point x="303.69642857142856" y="1770.267857142857" type="line"/>
      <point x="264.3392857142857" y="1673.9107142857142"/>
      <point x="175.35714285714286" y="1618.357142857143"/>
      <point x="97.23214285714286" y="1607.5714285714287" type="curve"/>
      <point x="97.23214285714286" y="1520.9464285714287" type="line"/>
      <point x="152.01785714285714" y="1520.9464285714287"/>
      <point x="222.03571428571428" y="1541.732142857143"/>
      <point x="257.5892857142857" y="1582.857142857143" type="curve"/>
    </contour>
    <contour>
      <point x="1111.625" y="0.0" type="line"/>
      <point x="1522.4464285714287" y="0.0" type="line"/>
      <point x="1522.4464285714287" y="103.53571428571429" type="line"/>
      <point x="1244.107142857143" y="103.53571428571429" type="line"/>
      <point x="1247.982142857143" y="150.03571428571428"/>
      <point x="1261.732142857143" y="235.64285714285714"/>
      <point x="1307.2142857142858" y="325.51785714285717" type="curve" smooth="yes"/>
      <point x="1468.892857142857" y="642.9821428571429" type="line" smooth="yes"/>
      <point x="1517.232142857143" y="736.9107142857143"/>
      <point x="1540.232142857143" y="834.8035714285714"/>
      <point x="1540.232142857143" y="953.2678571428571" type="curve" smooth="yes"/>
      <point x="1540.232142857143" y="1136.2142857142858"/>
      <point x="1510.607142857143" y="1311.6607142857142"/>
      <point x="1343.607142857143" y="1311.6607142857142" type="curve" smooth="yes"/>
      <point x="1121.267857142857" y="1311.6607142857142"/>
      <point x="1107.625" y="1145.0714285714287"/>
      <point x="1107.625" y="864.6964285714286" type="curve" smooth="yes"/>
      <point x="1107.625" y="785.0178571428571" type="line"/>
      <point x="1239.017857142857" y="785.0178571428571" type="line"/>
      <point x="1239.017857142857" y="955.6071428571429" type="line" smooth="yes"/>
      <point x="1239.017857142857" y="1166.0357142857142"/>
      <point x="1280.5892857142858" y="1199.9285714285713"/>
      <point x="1328.8214285714287" y="1199.9285714285713" type="curve" smooth="yes"/>
      <point x="1376.607142857143" y="1199.9285714285713"/>
      <point x="1413.2857142857142" y="1164.5892857142858"/>
      <point x="1413.2857142857142" y="966.5" type="curve" smooth="yes"/>
      <point x="1413.2857142857142" y="876.8214285714286"/>
      <point x="1396.857142857143" y="769.1607142857143"/>
      <point x="1359.8392857142858" y="696.3214285714286" type="curve" smooth="yes"/>
      <point x="1186.1964285714287" y="358.9107142857143" type="line" smooth="yes"/>
      <point x="1125.4285714285713" y="240.55357142857142"/>
      <point x="1111.625" y="129.94642857142858"/>
      <point x="1111.625" y="69.01785714285714" type="curve" smooth="yes"/>
    </contour>
  </outline>
</glyph>
<glyph name="threequarters" format="2">
  <advance width="1555.0"/>
  <unicode hex="00BE"/>
  <outline>
    <contour>
      <point x="512.0892857142857" y="0.0" type="line"/>
      <point x="638.3928571428571" y="0.0" type="line"/>
      <point x="1109.357142857143" y="1770.267857142857" type="line"/>
      <point x="982.1607142857143" y="1770.267857142857" type="line"/>
    </contour>
    <contour>
      <point x="348.0357142857143" y="583.1071428571429" type="curve" smooth="yes"/>
      <point x="508.57142857142856" y="583.1071428571429"/>
      <point x="577.2321428571429" y="692.1071428571429"/>
      <point x="577.2321428571429" y="916.0178571428571" type="curve" smooth="yes"/>
      <point x="577.2321428571429" y="1050.4642857142858"/>
      <point x="543.1071428571429" y="1174.9464285714287"/>
      <point x="457.10714285714283" y="1213.9464285714287" type="curve"/>
      <point x="542.3392857142857" y="1245.8392857142858"/>
      <point x="574.6785714285714" y="1347.642857142857"/>
      <point x="574.6785714285714" y="1481.0" type="curve" smooth="yes"/>
      <point x="574.6785714285714" y="1684.9107142857142"/>
      <point x="508.9107142857143" y="1790.0357142857142"/>
      <point x="350.69642857142856" y="1790.0357142857142" type="curve" smooth="yes"/>
      <point x="191.92857142857142" y="1790.0357142857142"/>
      <point x="135.5" y="1685.5714285714287"/>
      <point x="135.5" y="1481.0" type="curve" smooth="yes"/>
      <point x="135.5" y="1455.3392857142858" type="line"/>
      <point x="256.0" y="1455.3392857142858" type="line"/>
      <point x="256.0" y="1478.892857142857" type="line" smooth="yes"/>
      <point x="256.0" y="1648.3035714285713"/>
      <point x="289.9107142857143" y="1688.3035714285713"/>
      <point x="349.25" y="1688.3035714285713" type="curve" smooth="yes"/>
      <point x="408.82142857142856" y="1688.3035714285713"/>
      <point x="454.73214285714283" y="1657.857142857143"/>
      <point x="454.73214285714283" y="1481.4464285714287" type="curve" smooth="yes"/>
      <point x="454.73214285714283" y="1292.5892857142858"/>
      <point x="413.94642857142856" y="1265.5892857142858"/>
      <point x="319.0357142857143" y="1265.0357142857142" type="curve"/>
      <point x="290.80357142857144" y="1265.0357142857142" type="line"/>
      <point x="290.80357142857144" y="1164.75" type="line"/>
      <point x="320.14285714285717" y="1164.75" type="line" smooth="yes"/>
      <point x="418.7142857142857" y="1164.75"/>
      <point x="456.73214285714283" y="1106.0892857142858"/>
      <point x="456.73214285714283" y="918.0178571428571" type="curve" smooth="yes"/>
      <point x="456.73214285714283" y="747.7321428571429"/>
      <point x="435.05357142857144" y="683.9464285714286"/>
      <point x="350.69642857142856" y="683.9464285714286" type="curve" smooth="yes"/>
      <point x="264.7857142857143" y="683.9464285714286"/>
      <point x="251.44642857142858" y="737.1785714285714"/>
      <point x="251.44642857142858" y="914.0357142857143" type="curve" smooth="yes"/>
      <point x="251.44642857142858" y="955.5535714285714" type="line"/>
      <point x="131.5" y="955.5535714285714" type="line"/>
      <point x="131.5" y="914.0357142857143" type="line" smooth="yes"/>
      <point x="131.5" y="690.7857142857143"/>
      <point x="189.26785714285714" y="583.1071428571429"/>
    </contour>
    <contour>
      <point x="1225.267857142857" y="0.0" type="line"/>
      <point x="1336.982142857143" y="0.0" type="line"/>
      <point x="1336.982142857143" y="230.16071428571428" type="line"/>
      <point x="1435.4642857142858" y="230.16071428571428" type="line"/>
      <point x="1435.4642857142858" y="325.44642857142856" type="line"/>
      <point x="1336.982142857143" y="325.44642857142856" type="line"/>
      <point x="1336.982142857143" y="1181.375" type="line"/>
      <point x="1208.2142857142858" y="1181.375" type="line"/>
      <point x="945.1607142857143" y="311.7857142857143" type="line"/>
      <point x="947.3928571428571" y="230.16071428571428" type="line"/>
      <point x="1225.267857142857" y="230.16071428571428" type="line"/>
    </contour>
    <contour>
      <point x="1053.892857142857" y="325.44642857142856" type="line"/>
      <point x="1225.267857142857" y="955.2321428571429" type="line"/>
      <point x="1225.267857142857" y="325.44642857142856" type="line"/>
    </contour>
  </outline>
</glyph>
<glyph name="AE" format="2">
  <advance width="1138.2142857142858"/>
  <unicode hex="00C6"/>
  <anchor x="573.5357142857143" y="0.0" name="bottom"/>
  <anchor x="573.5357142857143" y="1760.0" name="top"/>
  <outline>
    <contour>
      <point x="55.732142857142854" y="0.0" type="line"/>
      <point x="227.83928571428572" y="0.0" type="line"/>
      <point x="297.75" y="351.17857142857144" type="line"/>
      <point x="575.9107142857143" y="351.17857142857144" type="line"/>
      <point x="575.9107142857143" y="0.0" type="line"/>
      <point x="1054.0892857142858" y="0.0" type="line"/>
      <point x="1054.0892857142858" y="147.89285714285714" type="line"/>
      <point x="749.875" y="147.89285714285714" type="line"/>
      <point x="749.875" y="822.7142857142857" type="line"/>
      <point x="1035.3214285714287" y="822.7142857142857" type="line"/>
      <point x="1035.3214285714287" y="972.6071428571429" type="line"/>
      <point x="749.875" y="972.6071428571429" type="line"/>
      <point x="749.875" y="1613.0" type="line"/>
      <point x="1053.2142857142858" y="1613.0" type="line"/>
      <point x="1053.2142857142858" y="1760.0" type="line"/>
      <point x="425.25" y="1760.0" type="line"/>
    </contour>
    <contour>
      <point x="327.30357142857144" y="490.75" type="line"/>
      <point x="553.4821428571429" y="1614.0" type="line"/>
      <point x="575.9107142857143" y="1615.0" type="line"/>
      <point x="575.9107142857143" y="490.75" type="line"/>
    </contour>
  </outline>
</glyph>
<glyph name="multiply" format="2">
  <advance width="710.0"/>
  <unicode hex="00D7"/>
  <outline>
    <contour>
      <point x="172.42857142857142" y="382.92857142857144" type="line"/>
      <point x="355.0" y="565.3928571428571" type="line"/>
      <point x="537.5714285714286" y="382.92857142857144" type="line"/>
      <point x="630.4285714285714" y="478.0" type="line"/>
      <point x="449.07142857142856" y="659.4642857142857" type="line"/>
      <point x="630.4285714285714" y="840.9285714285714" type="line"/>
      <point x="537.5714285714286" y="936.0" type="line"/>
      <point x="355.0" y="753.5357142857143" type="line"/>
      <point x="172.42857142857142" y="936.0" type="line"/>
      <point x="79.57142857142857" y="840.9285714285714" type="line"/>
      <point x="260.92857142857144" y="659.4642857142857" type="line"/>
      <point x="79.57142857142857" y="478.0" type="line"/>
    </contour>
  </outline>
</glyph>
<glyph name="Oslash" format="2">
  <advance width="895.9821428571429"/>
  <unicode hex="00D8"/>
  <anchor x="448.2142857142857" y="0.0" name="bottom"/>
  <anchor x="460.39285714285717" y="880.0" name="center"/>
  <anchor x="828.5714285714286" y="10.0" name="ogonek"/>
  <anchor x="448.2142857142857" y="1760.0" name="top"/>
  <anchor x="20.0" y="1760.0" name="topleft"/>
  <anchor x="900.3392857142857" y="1760.0" name="topright"/>
  <outline>
    <contour>
      <point x="210.60714285714286" y="-214.48214285714286" type="line"/>
      <point x="830.9821428571429" y="1901.6964285714287" type="line"/>
      <point x="741.8392857142857" y="1928.3214285714287" type="line"/>
      <point x="129.46428571428572" y="-183.85714285714286" type="line"/>
    </contour>
    <contour>
      <point x="461.94642857142856" y="-20.0" type="curve" smooth="yes"/>
      <point x="721.9285714285714" y="-20.0"/>
      <point x="790.9821428571429" y="152.10714285714286"/>
      <point x="790.9821428571429" y="511.80357142857144" type="curve" smooth="yes"/>
      <point x="790.9821428571429" y="1275.75" type="line" smooth="yes"/>
      <point x="790.9821428571429" y="1578.75"/>
      <point x="749.8392857142857" y="1782.4464285714287"/>
      <point x="467.8392857142857" y="1782.4464285714287" type="curve" smooth="yes"/>
      <point x="185.83928571428572" y="1782.4464285714287"/>
      <point x="129.35714285714286" y="1578.75"/>
      <point x="129.35714285714286" y="1275.75" type="curve" smooth="yes"/>
      <point x="129.35714285714286" y="511.80357142857144" type="line" smooth="yes"/>
      <point x="129.35714285714286" y="152.10714285714286"/>
      <point x="201.96428571428572" y="-20.0"/>
    </contour>
    <contour>
      <point x="461.94642857142856" y="133.0" type="curve" smooth="yes"/>
      <point x="336.69642857142856" y="133.0"/>
      <point x="310.4642857142857" y="222.57142857142856"/>
      <point x="310.4642857142857" y="510.69642857142856" type="curve" smooth="yes"/>
      <point x="310.4642857142857" y="1288.75" type="line" smooth="yes"/>
      <point x="310.4642857142857" y="1522.517857142857"/>
      <point x="343.80357142857144" y="1628.107142857143"/>
      <point x="467.8392857142857" y="1628.107142857143" type="curve" smooth="yes"/>
      <point x="586.5357142857143" y="1628.107142857143"/>
      <point x="609.875" y="1522.857142857143"/>
      <point x="609.875" y="1287.75" type="curve" smooth="yes"/>
      <point x="609.875" y="510.69642857142856" type="line" smooth="yes"/>
      <point x="609.875" y="223.67857142857142"/>
      <point x="582.1964285714286" y="133.0"/>
    </contour>
  </outline>
</glyph>
<glyph name="Thorn" format="2">
  <advance width="899.3214285714286"/>
  <unicode hex="00DE"/>
  <anchor x="450.1607142857143" y="0.0" name="bottom"/>
  <anchor x="450.1607142857143" y="1760.0" name="top"/>
  <outline>
    <contour>
      <point x="163.78571428571428" y="0.0" type="line"/>
      <point x="344.3392857142857" y="0.0" type="line"/>
      <point x="344.3392857142857" y="442.5357142857143" type="line"/>
      <point x="491.7857142857143" y="442.5357142857143" type="line" smooth="yes"/>
      <point x="752.3214285714286" y="442.5357142857143"/>
      <point x="815.75" y="622.8392857142857"/>
      <point x="815.75" y="982.6428571428571" type="curve" smooth="yes"/>
      <point x="815.75" y="1004.8571428571429" type="line"/>
      <point x="815.6428571428571" y="1311.1607142857142"/>
      <point x="778.3571428571429" y="1515.625"/>
      <point x="495.80357142857144" y="1515.625" type="curve" smooth="yes"/>
      <point x="344.3392857142857" y="1515.625" type="line"/>
      <point x="344.3392857142857" y="1760.0" type="line"/>
      <point x="163.78571428571428" y="1760.0" type="line"/>
    </contour>
    <contour>
      <point x="344.3392857142857" y="594.0" type="line"/>
      <point x="344.3392857142857" y="1368.9285714285713" type="line"/>
      <point x="490.51785714285717" y="1368.9285714285713" type="line" smooth="yes"/>
      <point x="612.3035714285714" y="1368.9285714285713"/>
      <point x="635.6428571428571" y="1255.9285714285713"/>
      <point x="635.6428571428571" y="1015.4285714285714" type="curve" smooth="yes"/>
      <point x="635.6428571428571" y="982.75" type="line" smooth="yes"/>
      <point x="635.6428571428571" y="689.8928571428571"/>
      <point x="607.9642857142857" y="594.0"/>
      <point x="485.625" y="594.0" type="curve" smooth="yes"/>
    </contour>
  </outline>
</glyph>
